<?xml version="1.0" encoding="UTF-8" standalone="no"?><svg xmlns="http://www.w3.org/2000/svg" xmlns:xlink="http://www.w3.org/1999/xlink" contentScriptType="application/ecmascript" contentStyleType="text/css" height="604px" preserveAspectRatio="none" style="width:424px;height:604px;background:#FFFFFF;" version="1.1" viewBox="0 0 424 604" width="424px" zoomAndPan="magnify"><defs><filter height="300%" id="fd74ojlve5nsp" width="300%" x="-1" y="-1"><feGaussianBlur result="blurOut" stdDeviation="2.0"/><feColorMatrix in="blurOut" result="blurOut2" type="matrix" values="0 0 0 0 0 0 0 0 0 0 0 0 0 0 0 0 0 0 .4 0"/><feOffset dx="4.0" dy="4.0" in="blurOut2" result="blurOut3"/><feBlend in="SourceGraphic" in2="blurOut3" mode="normal"/></filter></defs><g><!--MD5=[e9cbb9dd88ded91326c7c57ecf0f8dfc]
cluster PostgreSQL--><polygon fill="#FFFFFF" filter="url(#fd74ojlve5nsp)" points="16,140.5,115,140.5,122,162.7969,247,162.7969,247,597.5,16,597.5,16,140.5" style="stroke:#000000;stroke-width:1.5;"/><line style="stroke:#000000;stroke-width:1.5;" x1="16" x2="122" y1="162.7969" y2="162.7969"/><text fill="#000000" font-family="sans-serif" font-size="14" font-weight="bold" lengthAdjust="spacing" textLength="93" x="20" y="155.4951">PostgreSQL</text><!--MD5=[46a063155973224c3fa27ddf1e3a8ae1]
cluster OLTP--><polygon fill="#FFFFFF" filter="url(#fd74ojlve5nsp)" points="255,330.5,302,330.5,309,352.7969,393,352.7969,393,411.5,255,411.5,255,330.5" style="stroke:#000000;stroke-width:1.5;"/><line style="stroke:#000000;stroke-width:1.5;" x1="255" x2="309" y1="352.7969" y2="352.7969"/><text fill="#000000" font-family="sans-serif" font-size="14" font-weight="bold" lengthAdjust="spacing" textLength="41" x="259" y="345.4951">OLTP</text><!--MD5=[e753409e3a4de609e6aed690c35e546b]
entity role--><ellipse cx="59" cy="372.5" fill="#FEFECE" filter="url(#fd74ojlve5nsp)" rx="12" ry="12" style="stroke:#A80036;stroke-width:1.5;"/><line style="stroke:#A80036;stroke-width:1.5;" x1="47" x2="71" y1="386.5" y2="386.5"/><text fill="#000000" font-family="sans-serif" font-size="14" lengthAdjust="spacing" textLength="26" x="46" y="401.4951">role</text><!--MD5=[a0302e260767c3a151b9bc67457b16f8]
entity pg_catalog--><path d="M129.5,368 C129.5,358 177,358 177,358 C177,358 224.5,358 224.5,368 L224.5,393.2969 C224.5,403.2969 177,403.2969 177,403.2969 C177,403.2969 129.5,403.2969 129.5,393.2969 L129.5,368 " fill="#FEFECE" filter="url(#fd74ojlve5nsp)" style="stroke:#000000;stroke-width:1.5;"/><path d="M129.5,368 C129.5,378 177,378 177,378 C177,378 224.5,378 224.5,368 " fill="none" style="stroke:#000000;stroke-width:1.5;"/><text fill="#000000" font-family="sans-serif" font-size="14" lengthAdjust="spacing" textLength="75" x="139.5" y="394.9951">pg_catalog</text><!--MD5=[b1e3d2dcb3697de9e6328d1cb436cbc4]
entity frontend--><rect fill="#FEFECE" filter="url(#fd74ojlve5nsp)" height="46.2969" style="stroke:#A80036;stroke-width:1.5;" width="99" x="124.5" y="167.5"/><rect fill="#FEFECE" height="10" style="stroke:#A80036;stroke-width:1.5;" width="15" x="203.5" y="172.5"/><rect fill="#FEFECE" height="2" style="stroke:#A80036;stroke-width:1.5;" width="4" x="201.5" y="174.5"/><rect fill="#FEFECE" height="2" style="stroke:#A80036;stroke-width:1.5;" width="4" x="201.5" y="178.5"/><text fill="#000000" font-family="sans-serif" font-size="14" lengthAdjust="spacing" textLength="59" x="139.5" y="200.4951">frontend</text><!--MD5=[2b2d5ad518bf6746de4ffeb5be0566d4]
entity manager--><rect fill="#FEFECE" filter="url(#fd74ojlve5nsp)" height="46.2969" style="stroke:#A80036;stroke-width:1.5;" width="101" x="132.5" y="543.5"/><rect fill="#FEFECE" height="10" style="stroke:#A80036;stroke-width:1.5;" width="15" x="213.5" y="548.5"/><rect fill="#FEFECE" height="2" style="stroke:#A80036;stroke-width:1.5;" width="4" x="211.5" y="550.5"/><rect fill="#FEFECE" height="2" style="stroke:#A80036;stroke-width:1.5;" width="4" x="211.5" y="554.5"/><text fill="#000000" font-family="sans-serif" font-size="14" lengthAdjust="spacing" textLength="61" x="147.5" y="576.4951">manager</text><!--MD5=[3617a1dcecd131945f386a894a6d65d9]
entity ogawayama--><rect fill="#FEFECE" filter="url(#fd74ojlve5nsp)" height="46.2969" style="stroke:#A80036;stroke-width:1.5;" width="121" x="263.5" y="357.5"/><rect fill="#FEFECE" height="10" style="stroke:#A80036;stroke-width:1.5;" width="15" x="364.5" y="362.5"/><rect fill="#FEFECE" height="2" style="stroke:#A80036;stroke-width:1.5;" width="4" x="362.5" y="364.5"/><rect fill="#FEFECE" height="2" style="stroke:#A80036;stroke-width:1.5;" width="4" x="362.5" y="368.5"/><text fill="#000000" font-family="sans-serif" font-size="14" lengthAdjust="spacing" textLength="81" x="278.5" y="390.4951">ogawayama</text><!--MD5=[79a439086b036a57b90a01d7b2f8bbd1]
entity admin--><ellipse cx="174" cy="14" fill="#FEFECE" filter="url(#fd74ojlve5nsp)" rx="8" ry="8" style="stroke:#A80036;stroke-width:1.5;"/><path d="M174,22 L174,49 M161,30 L187,30 M174,49 L161,64 M174,49 L187,64 " fill="none" filter="url(#fd74ojlve5nsp)" style="stroke:#A80036;stroke-width:1.5;"/><text fill="#000000" font-family="sans-serif" font-size="14" lengthAdjust="spacing" textLength="42" x="153" y="82.4951">admin</text><!--MD5=[7b7568e7b3d3d33b5be17ec55672259a]
link admin to frontend--><path d="M174,85.5299 C174,109.9734 174,140.4984 174,162.3196 " fill="none" id="admin-to-frontend" style="stroke:#A80036;stroke-width:1.0;"/><polygon fill="#A80036" points="174,167.3923,178,158.3923,174,162.3923,170,158.3923,174,167.3923" style="stroke:#A80036;stroke-width:1.0;"/><text fill="#000000" font-family="sans-serif" font-size="13" lengthAdjust="spacing" textLength="86" x="175" y="128.5669">CREATE ROLE</text><!--MD5=[242fd6c38af4d79897e802fc81ea2a1b]
link frontend to role--><path d="M159.5407,213.6061 C149.0438,230.4411 134.543,253.8234 122,274.5 C106.1402,300.6443 88.3652,330.6141 75.7499,352.0008 " fill="none" id="frontend-to-role" style="stroke:#A80036;stroke-width:1.0;"/><polygon fill="#A80036" points="73.1388,356.4298,81.1554,350.7084,75.6782,352.1226,74.2639,346.6454,73.1388,356.4298" style="stroke:#A80036;stroke-width:1.0;"/><text fill="#000000" font-family="sans-serif" font-size="13" lengthAdjust="spacing" textLength="43" x="123" y="287.5669">Create</text><!--MD5=[da2c763e58946f6fd59bbf53369beba3]
link frontend to pg_catalog--><path d="M174.3679,213.7977 C174.9211,248.8378 175.9657,314.9925 176.559,352.5699 " fill="none" id="frontend-to-pg_catalog" style="stroke:#A80036;stroke-width:1.0;"/><polygon fill="#A80036" points="176.6432,357.8997,180.5002,348.8375,176.5641,352.9003,172.5012,348.9641,176.6432,357.8997" style="stroke:#A80036;stroke-width:1.0;"/><text fill="#000000" font-family="sans-serif" font-size="13" lengthAdjust="spacing" textLength="63" x="176" y="287.5669">metadata</text><!--MD5=[af99cae13808bda9d00715640c767a61]
link pg_catalog to manager--><path d="M177.7357,403.3073 C178.8303,437.2398 180.8864,500.9787 182.0793,537.9584 " fill="none" id="pg_catalog-to-manager" style="stroke:#A80036;stroke-width:1.0;"/><polygon fill="#A80036" points="182.2488,543.2135,185.9564,534.0892,182.0875,538.2161,177.9606,534.3472,182.2488,543.2135" style="stroke:#A80036;stroke-width:1.0;"/><!--MD5=[f66ac5c38e9ad47d6ea49c19b522b722]
reverse link ogawayama to manager--><path d="M303.1428,408.0138 C275.335,444.6963 226.6066,508.9764 200.5721,543.3198 " fill="none" id="ogawayama-backto-manager" style="stroke:#A80036;stroke-width:1.0;"/><polygon fill="#A80036" points="306.4273,403.681,297.8027,408.4367,303.4068,407.6655,304.178,413.2696,306.4273,403.681" style="stroke:#A80036;stroke-width:1.0;"/><text fill="#000000" font-family="sans-serif" font-size="13" lengthAdjust="spacing" textLength="91" x="260" y="478.5669">role metadata</text><!--MD5=[cac2dd5fce51c8c44451d2cde01b0fb9]
link frontend to ogawayama--><path d="M195.7019,213.8527 C210.8087,230.4128 231.1795,253.3607 248,274.5 C268.62,300.4143 290.4842,331.3149 305.4413,353.0468 " fill="none" id="frontend-to-ogawayama" style="stroke:#A80036;stroke-width:1.0;"/><polygon fill="#A80036" points="308.3382,357.2667,306.5422,347.583,305.5084,353.1446,299.9468,352.1107,308.3382,357.2667" style="stroke:#A80036;stroke-width:1.0;"/><text fill="#000000" font-family="sans-serif" font-size="13" lengthAdjust="spacing" textLength="155" x="261" y="287.5669">message(CREATE ROLE)</text><!--MD5=[f31d123d1db5271dbbbf345e5ad439fa]
@startuml role
actor admin

package PostgreSQL {
  entity role
  database pg_catalog
  component frontend
  component manager
}

package OLTP {
  component ogawayama
}

admin - -> frontend : CREATE ROLE
frontend - -> role : Create
frontend - -> pg_catalog : metadata
pg_catalog - -> manager
ogawayama <- - - manager : role metadata
frontend - -> ogawayama : message(CREATE ROLE)

@enduml

PlantUML version 1.2021.7(Sun May 23 21:40:07 JST 2021)
(GPL source distribution)
Java Runtime: OpenJDK Runtime Environment
JVM: OpenJDK 64-Bit Server VM
Default Encoding: UTF-8
Language: en
Country: US
--></g></svg>