<?xml version="1.0" encoding="UTF-8" standalone="no"?><svg xmlns="http://www.w3.org/2000/svg" xmlns:xlink="http://www.w3.org/1999/xlink" contentScriptType="application/ecmascript" contentStyleType="text/css" height="543px" preserveAspectRatio="none" style="width:443px;height:543px;background:#FFFFFF;" version="1.1" viewBox="0 0 443 543" width="443px" zoomAndPan="magnify"><defs><filter height="300%" id="fu5n6ww2l64mr" width="300%" x="-1" y="-1"><feGaussianBlur result="blurOut" stdDeviation="2.0"/><feColorMatrix in="blurOut" result="blurOut2" type="matrix" values="0 0 0 0 0 0 0 0 0 0 0 0 0 0 0 0 0 0 .4 0"/><feOffset dx="4.0" dy="4.0" in="blurOut2" result="blurOut3"/><feBlend in="SourceGraphic" in2="blurOut3" mode="normal"/></filter></defs><g><!--MD5=[e9cbb9dd88ded91326c7c57ecf0f8dfc]
cluster PostgreSQL--><polygon fill="#FFFFFF" filter="url(#fu5n6ww2l64mr)" points="38,140.5,137,140.5,144,162.7969,426,162.7969,426,408.5,38,408.5,38,140.5" style="stroke:#000000;stroke-width:1.5;"/><line style="stroke:#000000;stroke-width:1.5;" x1="38" x2="144" y1="162.7969" y2="162.7969"/><text fill="#000000" font-family="sans-serif" font-size="14" font-weight="bold" lengthAdjust="spacing" textLength="93" x="42" y="155.4951">PostgreSQL</text><!--MD5=[07f0e25f731765bfa93aaa20542a266d]
cluster oltp--><polygon fill="#FFFFFF" filter="url(#fu5n6ww2l64mr)" points="16,455.5,63,455.5,70,477.7969,288,477.7969,288,536.5,16,536.5,16,455.5" style="stroke:#000000;stroke-width:1.5;"/><line style="stroke:#000000;stroke-width:1.5;" x1="16" x2="70" y1="477.7969" y2="477.7969"/><text fill="#000000" font-family="sans-serif" font-size="14" font-weight="bold" lengthAdjust="spacing" textLength="41" x="20" y="470.4951">OLTP</text><!--MD5=[f25decad58752b05205e78abebe8791f]
entity fdw--><rect fill="#FEFECE" filter="url(#fu5n6ww2l64mr)" height="46.2969" style="stroke:#A80036;stroke-width:1.5;" width="72" x="49" y="354.5"/><rect fill="#FEFECE" height="10" style="stroke:#A80036;stroke-width:1.5;" width="15" x="101" y="359.5"/><rect fill="#FEFECE" height="2" style="stroke:#A80036;stroke-width:1.5;" width="4" x="99" y="361.5"/><rect fill="#FEFECE" height="2" style="stroke:#A80036;stroke-width:1.5;" width="4" x="99" y="365.5"/><text fill="#000000" font-family="sans-serif" font-size="14" lengthAdjust="spacing" textLength="32" x="64" y="387.4951">FDW</text><!--MD5=[0ef533f09b2843476631a5fe543a12d7]
entity ext_table--><ellipse cx="85" cy="183.5" fill="#FEFECE" filter="url(#fu5n6ww2l64mr)" rx="12" ry="12" style="stroke:#A80036;stroke-width:1.5;"/><line style="stroke:#A80036;stroke-width:1.5;" x1="73" x2="97" y1="197.5" y2="197.5"/><text fill="#000000" font-family="sans-serif" font-size="14" lengthAdjust="spacing" textLength="77" x="46.5" y="212.4951">t_table(ext)</text><!--MD5=[a0302e260767c3a151b9bc67457b16f8]
entity pg_catalog--><path d="M322.5,179 C322.5,169 370,169 370,169 C370,169 417.5,169 417.5,179 L417.5,204.2969 C417.5,214.2969 370,214.2969 370,214.2969 C370,214.2969 322.5,214.2969 322.5,204.2969 L322.5,179 " fill="#FEFECE" filter="url(#fu5n6ww2l64mr)" style="stroke:#000000;stroke-width:1.5;"/><path d="M322.5,179 C322.5,189 370,189 370,189 C370,189 417.5,189 417.5,179 " fill="none" style="stroke:#000000;stroke-width:1.5;"/><text fill="#000000" font-family="sans-serif" font-size="14" lengthAdjust="spacing" textLength="75" x="332.5" y="205.9951">pg_catalog</text><!--MD5=[3617a1dcecd131945f386a894a6d65d9]
entity ogawayama--><rect fill="#FEFECE" filter="url(#fu5n6ww2l64mr)" height="46.2969" style="stroke:#A80036;stroke-width:1.5;" width="121" x="24.5" y="482.5"/><rect fill="#FEFECE" height="10" style="stroke:#A80036;stroke-width:1.5;" width="15" x="125.5" y="487.5"/><rect fill="#FEFECE" height="2" style="stroke:#A80036;stroke-width:1.5;" width="4" x="123.5" y="489.5"/><rect fill="#FEFECE" height="2" style="stroke:#A80036;stroke-width:1.5;" width="4" x="123.5" y="493.5"/><text fill="#000000" font-family="sans-serif" font-size="14" lengthAdjust="spacing" textLength="81" x="39.5" y="515.4951">ogawayama</text><!--MD5=[f885883bf97652c4492f5888ce4a5716]
entity t_table--><path d="M214,493 C214,483 247,483 247,483 C247,483 280,483 280,493 L280,518.2969 C280,528.2969 247,528.2969 247,528.2969 C247,528.2969 214,528.2969 214,518.2969 L214,493 " fill="#FEFECE" filter="url(#fu5n6ww2l64mr)" style="stroke:#000000;stroke-width:1.5;"/><path d="M214,493 C214,503 247,503 247,503 C247,503 280,503 280,493 " fill="none" style="stroke:#000000;stroke-width:1.5;"/><text fill="#000000" font-family="sans-serif" font-size="14" lengthAdjust="spacing" textLength="46" x="224" y="519.9951">t_table</text><!--MD5=[8fc3522a43f8c7199df5e09e5bb0188e]
entity user--><ellipse cx="85" cy="14" fill="#FEFECE" filter="url(#fu5n6ww2l64mr)" rx="8" ry="8" style="stroke:#A80036;stroke-width:1.5;"/><path d="M85,22 L85,49 M72,30 L98,30 M85,49 L72,64 M85,49 L98,64 " fill="none" filter="url(#fu5n6ww2l64mr)" style="stroke:#A80036;stroke-width:1.5;"/><text fill="#000000" font-family="sans-serif" font-size="14" lengthAdjust="spacing" textLength="31" x="69.5" y="82.4951">user</text><!--MD5=[e60bf614408567617223929f1faa631f]
link ext_table to fdw--><path d="M85,215.8163 C85,250.1675 85,312.7658 85,349.1733 " fill="none" id="ext_table-to-fdw" style="stroke:#A80036;stroke-width:1.0;"/><polygon fill="#A80036" points="85,354.3483,89,345.3483,85,349.3483,81,345.3483,85,354.3483" style="stroke:#A80036;stroke-width:1.0;"/><text fill="#000000" font-family="sans-serif" font-size="13" lengthAdjust="spacing" textLength="149" x="86" y="289.5669">Scan the table on OLTP</text><!--MD5=[e25b590661d96e51952dc6bbfc439e98]
link ext_table to pg_catalog--><path d="M123.733,191.5 C173.715,191.5 260.8969,191.5 316.9937,191.5 " fill="none" id="ext_table-to-pg_catalog" style="stroke:#A80036;stroke-width:1.0;"/><polygon fill="#A80036" points="322.3231,191.5,313.3231,187.5,317.3231,191.5,313.3231,195.5,322.3231,191.5" style="stroke:#A80036;stroke-width:1.0;"/><text fill="#000000" font-family="sans-serif" font-size="13" lengthAdjust="spacing" textLength="162" x="142" y="184.5669">Confirm access privileges</text><!--MD5=[0b1ccbb062529ded3928f775cc3541cd]
link ogawayama to t_table--><path d="M145.7837,505.5 C166.7926,505.5 189.7399,505.5 208.4654,505.5 " fill="none" id="ogawayama-to-t_table" style="stroke:#A80036;stroke-width:1.0;"/><polygon fill="#A80036" points="213.6299,505.5,204.6299,501.5,208.6299,505.5,204.6299,509.5,213.6299,505.5" style="stroke:#A80036;stroke-width:1.0;"/><text fill="#000000" font-family="sans-serif" font-size="13" lengthAdjust="spacing" textLength="32" x="163.75" y="498.5669">Scan</text><!--MD5=[42672c6e43761d495519170ab12babf6]
link user to ext_table--><path d="M85,85.8084 C85,110.1064 85,140.3727 85,162.2821 " fill="none" id="user-to-ext_table" style="stroke:#A80036;stroke-width:1.0;"/><polygon fill="#A80036" points="85,167.3829,89,158.3829,85,162.3829,81,158.3829,85,167.3829" style="stroke:#A80036;stroke-width:1.0;"/><text fill="#000000" font-family="sans-serif" font-size="13" lengthAdjust="spacing" textLength="136" x="86" y="128.5669">SELECT FROM t_table</text><!--MD5=[1074ee772f66a71e76416c045469f633]
link fdw to ogawayama--><path d="M85,400.6798 C85,422.2466 85,454.4274 85,477.4377 " fill="none" id="fdw-to-ogawayama" style="stroke:#A80036;stroke-width:1.0;"/><polygon fill="#A80036" points="85,482.4926,89,473.4926,85,477.4926,81,473.4926,85,482.4926" style="stroke:#A80036;stroke-width:1.0;"/><text fill="#000000" font-family="sans-serif" font-size="13" lengthAdjust="spacing" textLength="136" x="86" y="443.5669">SELECT FROM t_table</text><!--MD5=[8711155643c21f7c6af42447df124f65]
@startuml select_table
actor user

package PostgreSQL {
  component "FDW" as fdw
  entity "t_table(ext)" as ext_table
  database pg_catalog

  ext_table - -> fdw : Scan the table on OLTP
  ext_table -> pg_catalog : Confirm access privileges
}

package OLTP as oltp {
  component ogawayama
  database t_table as t_table

  ogawayama -> t_table : Scan
}

user - -> ext_table : SELECT FROM t_table
fdw - -> ogawayama : SELECT FROM t_table
@enduml

PlantUML version 1.2021.7(Sun May 23 21:40:07 JST 2021)
(GPL source distribution)
Java Runtime: OpenJDK Runtime Environment
JVM: OpenJDK 64-Bit Server VM
Default Encoding: UTF-8
Language: en
Country: US
--></g></svg>