<?xml version="1.0" encoding="UTF-8" standalone="no"?><svg xmlns="http://www.w3.org/2000/svg" xmlns:xlink="http://www.w3.org/1999/xlink" contentScriptType="application/ecmascript" contentStyleType="text/css" height="242px" preserveAspectRatio="none" style="width:562px;height:242px;background:#FFFFFF;" version="1.1" viewBox="0 0 562 242" width="562px" zoomAndPan="magnify"><defs><filter height="300%" id="fwk5vruu8zfja" width="300%" x="-1" y="-1"><feGaussianBlur result="blurOut" stdDeviation="2.0"/><feColorMatrix in="blurOut" result="blurOut2" type="matrix" values="0 0 0 0 0 0 0 0 0 0 0 0 0 0 0 0 0 0 .4 0"/><feOffset dx="4.0" dy="4.0" in="blurOut2" result="blurOut3"/><feBlend in="SourceGraphic" in2="blurOut3" mode="normal"/></filter></defs><g><!--MD5=[e9cbb9dd88ded91326c7c57ecf0f8dfc]
cluster PostgreSQL--><polygon fill="#FFFFFF" filter="url(#fwk5vruu8zfja)" points="151.5,6,250.5,6,257.5,28.2969,545.5,28.2969,545.5,87,151.5,87,151.5,6" style="stroke:#000000;stroke-width:1.5;"/><line style="stroke:#000000;stroke-width:1.5;" x1="151.5" x2="257.5" y1="28.2969" y2="28.2969"/><text fill="#000000" font-family="sans-serif" font-size="14" font-weight="bold" lengthAdjust="spacing" textLength="93" x="155.5" y="20.9951">PostgreSQL</text><!--MD5=[46a063155973224c3fa27ddf1e3a8ae1]
cluster OLTP--><polygon fill="#FFFFFF" filter="url(#fwk5vruu8zfja)" points="156.5,145.5,203.5,145.5,210.5,167.7969,421.5,167.7969,421.5,228.5,156.5,228.5,156.5,145.5" style="stroke:#000000;stroke-width:1.5;"/><line style="stroke:#000000;stroke-width:1.5;" x1="156.5" x2="210.5" y1="167.7969" y2="167.7969"/><text fill="#000000" font-family="sans-serif" font-size="14" font-weight="bold" lengthAdjust="spacing" textLength="41" x="160.5" y="160.4951">OLTP</text><!--MD5=[7d1852b57be8f1b04aace6ea3e5cee6e]
entity authenticator--><rect fill="#FEFECE" filter="url(#fwk5vruu8zfja)" height="46.2969" style="stroke:#A80036;stroke-width:1.5;" width="132" x="159.5" y="33"/><rect fill="#FEFECE" height="10" style="stroke:#A80036;stroke-width:1.5;" width="15" x="271.5" y="38"/><rect fill="#FEFECE" height="2" style="stroke:#A80036;stroke-width:1.5;" width="4" x="269.5" y="40"/><rect fill="#FEFECE" height="2" style="stroke:#A80036;stroke-width:1.5;" width="4" x="269.5" y="44"/><text fill="#000000" font-family="sans-serif" font-size="14" lengthAdjust="spacing" textLength="92" x="174.5" y="65.9951">authenticator</text><!--MD5=[a0302e260767c3a151b9bc67457b16f8]
entity pg_catalog--><path d="M442,43.5 C442,33.5 489.5,33.5 489.5,33.5 C489.5,33.5 537,33.5 537,43.5 L537,68.7969 C537,78.7969 489.5,78.7969 489.5,78.7969 C489.5,78.7969 442,78.7969 442,68.7969 L442,43.5 " fill="#FEFECE" filter="url(#fwk5vruu8zfja)" style="stroke:#000000;stroke-width:1.5;"/><path d="M442,43.5 C442,53.5 489.5,53.5 489.5,53.5 C489.5,53.5 537,53.5 537,43.5 " fill="none" style="stroke:#000000;stroke-width:1.5;"/><text fill="#000000" font-family="sans-serif" font-size="14" lengthAdjust="spacing" textLength="75" x="452" y="70.4951">pg_catalog</text><!--MD5=[3617a1dcecd131945f386a894a6d65d9]
entity ogawayama--><rect fill="#FEFECE" filter="url(#fwk5vruu8zfja)" height="46.2969" style="stroke:#A80036;stroke-width:1.5;" width="121" x="165" y="173.5"/><rect fill="#FEFECE" height="10" style="stroke:#A80036;stroke-width:1.5;" width="15" x="266" y="178.5"/><rect fill="#FEFECE" height="2" style="stroke:#A80036;stroke-width:1.5;" width="4" x="264" y="180.5"/><rect fill="#FEFECE" height="2" style="stroke:#A80036;stroke-width:1.5;" width="4" x="264" y="184.5"/><text fill="#000000" font-family="sans-serif" font-size="14" lengthAdjust="spacing" textLength="81" x="180" y="206.4951">ogawayama</text><!--MD5=[81eb248ad19e595af57658e74548f0fb]
entity batch--><ellipse cx="393.5" cy="188.5" fill="#FEFECE" filter="url(#fwk5vruu8zfja)" rx="12" ry="12" style="stroke:#A80036;stroke-width:1.5;"/><line style="stroke:#A80036;stroke-width:1.5;" x1="381.5" x2="405.5" y1="202.5" y2="202.5"/><text fill="#000000" font-family="sans-serif" font-size="14" lengthAdjust="spacing" textLength="39" x="374" y="217.4951">batch</text><!--MD5=[8fc3522a43f8c7199df5e09e5bb0188e]
entity user--><ellipse cx="21.5" cy="165.5" fill="#FEFECE" filter="url(#fwk5vruu8zfja)" rx="8" ry="8" style="stroke:#A80036;stroke-width:1.5;"/><path d="M21.5,173.5 L21.5,200.5 M8.5,181.5 L34.5,181.5 M21.5,200.5 L8.5,215.5 M21.5,200.5 L34.5,215.5 " fill="none" filter="url(#fwk5vruu8zfja)" style="stroke:#A80036;stroke-width:1.5;"/><text fill="#000000" font-family="sans-serif" font-size="14" lengthAdjust="spacing" textLength="31" x="6" y="233.9951">user</text><!--MD5=[07c9f6ceb6b13169dccc078eb7477883]
link user to ogawayama--><path d="M37.1688,196.5 C63.079,196.5 116.2891,196.5 159.561,196.5 " fill="none" id="user-to-ogawayama" style="stroke:#A80036;stroke-width:1.0;"/><polygon fill="#A80036" points="164.7863,196.5,155.7863,192.5,159.7863,196.5,155.7863,200.5,164.7863,196.5" style="stroke:#A80036;stroke-width:1.0;"/><text fill="#000000" font-family="sans-serif" font-size="13" lengthAdjust="spacing" textLength="91" x="55.5" y="189.5669">Execute batch</text><!--MD5=[b1c36b16e08e8c88da161d7c3145dea8]
reverse link authenticator to ogawayama--><path d="M225.5,84.261 C225.5,110.419 225.5,148.8463 225.5,173.2648 " fill="none" id="authenticator-backto-ogawayama" style="stroke:#A80036;stroke-width:1.0;"/><polygon fill="#A80036" points="225.5,79.2007,221.5,88.2007,225.5,84.2007,229.5,88.2007,225.5,79.2007" style="stroke:#A80036;stroke-width:1.0;"/><text fill="#000000" font-family="sans-serif" font-size="13" lengthAdjust="spacing" textLength="180" x="226.5" y="122.0669">Request user authentication</text><!--MD5=[89c691e24ba628e4fa953297b318eed4]
link authenticator to pg_catalog--><path d="M291.7776,56 C336.6897,56 395.2301,56 436.9316,56 " fill="none" id="authenticator-to-pg_catalog" style="stroke:#A80036;stroke-width:1.0;"/><polygon fill="#A80036" points="441.9316,56,432.9316,52,436.9316,56,432.9316,60,441.9316,56" style="stroke:#A80036;stroke-width:1.0;"/><text fill="#000000" font-family="sans-serif" font-size="13" lengthAdjust="spacing" textLength="114" x="309.75" y="49.0669">Authenticate user</text><!--MD5=[a48438d057d94242a0bb51b8333d18ec]
link ogawayama to batch--><path d="M286.1519,196.5 C314.5713,196.5 346.864,196.5 368.5428,196.5 " fill="none" id="ogawayama-to-batch" style="stroke:#A80036;stroke-width:1.0;"/><polygon fill="#A80036" points="373.8169,196.5,364.8169,192.5,368.8169,196.5,364.8169,200.5,373.8169,196.5" style="stroke:#A80036;stroke-width:1.0;"/><text fill="#000000" font-family="sans-serif" font-size="13" lengthAdjust="spacing" textLength="51" x="304.5" y="189.5669">Execute</text><!--MD5=[f0f77c04e99c714fa340b2c13f3c5bb4]
@startuml auth
actor user
package PostgreSQL {
  component authenticator
  database pg_catalog
}
package OLTP {
  component ogawayama
  entity batch
}

user -> ogawayama : Execute batch
authenticator <- - ogawayama : Request user authentication
authenticator -> pg_catalog : Authenticate user
ogawayama -> batch : Execute
@enduml

PlantUML version 1.2021.7(Sun May 23 21:40:07 JST 2021)
(GPL source distribution)
Java Runtime: OpenJDK Runtime Environment
JVM: OpenJDK 64-Bit Server VM
Default Encoding: UTF-8
Language: en
Country: US
--></g></svg>