<?xml version="1.0" encoding="UTF-8" standalone="no"?><svg xmlns="http://www.w3.org/2000/svg" xmlns:xlink="http://www.w3.org/1999/xlink" contentScriptType="application/ecmascript" contentStyleType="text/css" height="265px" preserveAspectRatio="none" style="width:536px;height:265px;" version="1.1" viewBox="0 0 536 265" width="536px" zoomAndPan="magnify"><defs><filter height="300%" id="fwk5vruu8zfja" width="300%" x="-1" y="-1"><feGaussianBlur result="blurOut" stdDeviation="2.0"/><feColorMatrix in="blurOut" result="blurOut2" type="matrix" values="0 0 0 0 0 0 0 0 0 0 0 0 0 0 0 0 0 0 .4 0"/><feOffset dx="4.0" dy="4.0" in="blurOut2" result="blurOut3"/><feBlend in="SourceGraphic" in2="blurOut3" mode="normal"/></filter></defs><g><!--MD5=[e9cbb9dd88ded91326c7c57ecf0f8dfc]
cluster PostgreSQL--><polygon fill="#FFFFFF" filter="url(#fwk5vruu8zfja)" points="135,6,224,6,231,29.6094,519,29.6094,519,106,135,106,135,6" style="stroke:#000000;stroke-width:1.5;"/><line style="stroke:#000000;stroke-width:1.5;" x1="135" x2="231" y1="29.6094" y2="29.6094"/><text fill="#000000" font-family="sans-serif" font-size="14" font-weight="bold" lengthAdjust="spacing" textLength="83" x="139" y="22.5332">PostgreSQL</text><!--MD5=[46a063155973224c3fa27ddf1e3a8ae1]
cluster OLTP--><polygon fill="#FFFFFF" filter="url(#fwk5vruu8zfja)" points="139,156,181,156,188,179.6094,407,179.6094,407,258,139,258,139,156" style="stroke:#000000;stroke-width:1.5;"/><line style="stroke:#000000;stroke-width:1.5;" x1="139" x2="188" y1="179.6094" y2="179.6094"/><text fill="#000000" font-family="sans-serif" font-size="14" font-weight="bold" lengthAdjust="spacing" textLength="36" x="143" y="172.5332">OLTP</text><!--MD5=[7d1852b57be8f1b04aace6ea3e5cee6e]
entity authenticator--><rect fill="#FEFECE" filter="url(#fwk5vruu8zfja)" height="47.6094" style="stroke:#A80036;stroke-width:1.5;" width="123" x="151.5" y="42"/><rect fill="#FEFECE" height="10" style="stroke:#A80036;stroke-width:1.5;" width="15" x="254.5" y="47"/><rect fill="#FEFECE" height="2" style="stroke:#A80036;stroke-width:1.5;" width="4" x="252.5" y="49"/><rect fill="#FEFECE" height="2" style="stroke:#A80036;stroke-width:1.5;" width="4" x="252.5" y="53"/><text fill="#000000" font-family="sans-serif" font-size="14" lengthAdjust="spacing" textLength="83" x="166.5" y="76.5332">authenticator</text><!--MD5=[a0302e260767c3a151b9bc67457b16f8]
entity pg_catalog--><path d="M413,52.5 C413,42.5 458,42.5 458,42.5 C458,42.5 503,42.5 503,52.5 L503,79.1094 C503,89.1094 458,89.1094 458,89.1094 C458,89.1094 413,89.1094 413,79.1094 L413,52.5 " fill="#FEFECE" filter="url(#fwk5vruu8zfja)" style="stroke:#000000;stroke-width:1.5;"/><path d="M413,52.5 C413,62.5 458,62.5 458,62.5 C458,62.5 503,62.5 503,52.5 " fill="none" style="stroke:#000000;stroke-width:1.5;"/><text fill="#000000" font-family="sans-serif" font-size="14" lengthAdjust="spacing" textLength="70" x="423" y="81.0332">pg_catalog</text><!--MD5=[3617a1dcecd131945f386a894a6d65d9]
entity ogawayama--><rect fill="#FEFECE" filter="url(#fwk5vruu8zfja)" height="47.6094" style="stroke:#A80036;stroke-width:1.5;" width="115" x="155.5" y="193"/><rect fill="#FEFECE" height="10" style="stroke:#A80036;stroke-width:1.5;" width="15" x="250.5" y="198"/><rect fill="#FEFECE" height="2" style="stroke:#A80036;stroke-width:1.5;" width="4" x="248.5" y="200"/><rect fill="#FEFECE" height="2" style="stroke:#A80036;stroke-width:1.5;" width="4" x="248.5" y="204"/><text fill="#000000" font-family="sans-serif" font-size="14" lengthAdjust="spacing" textLength="75" x="170.5" y="227.5332">ogawayama</text><!--MD5=[81eb248ad19e595af57658e74548f0fb]
entity batch--><ellipse cx="373" cy="208" fill="#FEFECE" filter="url(#fwk5vruu8zfja)" rx="12" ry="12" style="stroke:#A80036;stroke-width:1.5;"/><line style="stroke:#A80036;stroke-width:1.5;" x1="361" x2="385" y1="222" y2="222"/><text fill="#000000" font-family="sans-serif" font-size="14" lengthAdjust="spacing" textLength="35" x="355.5" y="238.5332">batch</text><!--MD5=[8fc3522a43f8c7199df5e09e5bb0188e]
entity user--><ellipse cx="20" cy="185" fill="#FEFECE" filter="url(#fwk5vruu8zfja)" rx="8" ry="8" style="stroke:#A80036;stroke-width:1.5;"/><path d="M20,193 L20,220 M7,201 L33,201 M20,220 L7,235 M20,220 L33,235 " fill="none" filter="url(#fwk5vruu8zfja)" style="stroke:#A80036;stroke-width:1.5;"/><text fill="#000000" font-family="sans-serif" font-size="14" lengthAdjust="spacing" textLength="28" x="6" y="255.0332">user</text><!--MD5=[07c9f6ceb6b13169dccc078eb7477883]
link user to ogawayama--><path d="M34.51,217 C58.8,217 109.1,217 150.12,217 " fill="none" id="user-to-ogawayama" style="stroke:#A80036;stroke-width:1.0;"/><polygon fill="#A80036" points="155.33,217,146.33,213,150.33,217,146.33,221,155.33,217" style="stroke:#A80036;stroke-width:1.0;"/><text fill="#000000" font-family="sans-serif" font-size="13" lengthAdjust="spacing" textLength="84" x="53" y="210.4951">Execute batch</text><!--MD5=[b1c36b16e08e8c88da161d7c3145dea8]
reverse link authenticator to ogawayama--><path d="M213,95.39 C213,123.68 213,166.6 213,192.88 " fill="none" id="authenticator-backto-ogawayama" style="stroke:#A80036;stroke-width:1.0;"/><polygon fill="#A80036" points="213,90.28,209,99.28,213,95.28,217,99.28,213,90.28" style="stroke:#A80036;stroke-width:1.0;"/><text fill="#000000" font-family="sans-serif" font-size="13" lengthAdjust="spacing" textLength="162" x="214" y="136.4951">Request user authentication</text><!--MD5=[89c691e24ba628e4fa953297b318eed4]
link authenticator to pg_catalog--><path d="M274.51,66 C315.61,66 369.01,66 407.6,66 " fill="none" id="authenticator-to-pg_catalog" style="stroke:#A80036;stroke-width:1.0;"/><polygon fill="#A80036" points="412.71,66,403.71,62,407.71,66,403.71,70,412.71,66" style="stroke:#A80036;stroke-width:1.0;"/><text fill="#000000" font-family="sans-serif" font-size="13" lengthAdjust="spacing" textLength="102" x="292.75" y="59.4951">Authenticate user</text><!--MD5=[a48438d057d94242a0bb51b8333d18ec]
link ogawayama to batch--><path d="M270.76,217 C298.32,217 329.71,217 350.35,217 " fill="none" id="ogawayama-to-batch" style="stroke:#A80036;stroke-width:1.0;"/><polygon fill="#A80036" points="355.36,217,346.36,213,350.36,217,346.36,221,355.36,217" style="stroke:#A80036;stroke-width:1.0;"/><text fill="#000000" font-family="sans-serif" font-size="13" lengthAdjust="spacing" textLength="48" x="289" y="210.4951">Execute</text><!--MD5=[6f1e61e6f1269d5f4cd1079b1fb39426]
@startuml auth
actor user
package PostgreSQL {
  component authenticator
  database pg_catalog
}
package OLTP {
  component ogawayama
  entity batch
}

user -> ogawayama : Execute batch
authenticator <- - ogawayama : Request user authentication
authenticator -> pg_catalog : Authenticate user
ogawayama -> batch : Execute
@enduml

PlantUML version 1.2021.01(Tue Feb 02 16:55:08 JST 2021)
(GPL source distribution)
Java Runtime: OpenJDK Runtime Environment
JVM: OpenJDK 64-Bit Server VM
Default Encoding: MS932
Language: ja
Country: JP
--></g></svg>