<?xml version="1.0" encoding="UTF-8" standalone="no"?><svg xmlns="http://www.w3.org/2000/svg" xmlns:xlink="http://www.w3.org/1999/xlink" contentScriptType="application/ecmascript" contentStyleType="text/css" height="757px" preserveAspectRatio="none" style="width:620px;height:757px;background:#FFFFFF;" version="1.1" viewBox="0 0 620 757" width="620px" zoomAndPan="magnify"><defs><filter height="300%" id="f197coez87otel" width="300%" x="-1" y="-1"><feGaussianBlur result="blurOut" stdDeviation="2.0"/><feColorMatrix in="blurOut" result="blurOut2" type="matrix" values="0 0 0 0 0 0 0 0 0 0 0 0 0 0 0 0 0 0 .4 0"/><feOffset dx="4.0" dy="4.0" in="blurOut2" result="blurOut3"/><feBlend in="SourceGraphic" in2="blurOut3" mode="normal"/></filter></defs><g><!--MD5=[e9cbb9dd88ded91326c7c57ecf0f8dfc]
cluster PostgreSQL--><polygon fill="#FFFFFF" filter="url(#f197coez87otel)" points="16,140.5,115,140.5,122,162.7969,603,162.7969,603,622.5,16,622.5,16,140.5" style="stroke:#000000;stroke-width:1.5;"/><line style="stroke:#000000;stroke-width:1.5;" x1="16" x2="122" y1="162.7969" y2="162.7969"/><text fill="#000000" font-family="sans-serif" font-size="14" font-weight="bold" lengthAdjust="spacing" textLength="93" x="20" y="155.4951">PostgreSQL</text><!--MD5=[07f0e25f731765bfa93aaa20542a266d]
cluster oltp--><polygon fill="#FFFFFF" filter="url(#f197coez87otel)" points="140,669.5,187,669.5,194,691.7969,423,691.7969,423,750.5,140,750.5,140,669.5" style="stroke:#000000;stroke-width:1.5;"/><line style="stroke:#000000;stroke-width:1.5;" x1="140" x2="194" y1="691.7969" y2="691.7969"/><text fill="#000000" font-family="sans-serif" font-size="14" font-weight="bold" lengthAdjust="spacing" textLength="41" x="144" y="684.4951">OLTP</text><!--MD5=[b1e3d2dcb3697de9e6328d1cb436cbc4]
entity frontend--><rect fill="#FEFECE" filter="url(#f197coez87otel)" height="46.2969" style="stroke:#A80036;stroke-width:1.5;" width="99" x="24.5" y="168.5"/><rect fill="#FEFECE" height="10" style="stroke:#A80036;stroke-width:1.5;" width="15" x="103.5" y="173.5"/><rect fill="#FEFECE" height="2" style="stroke:#A80036;stroke-width:1.5;" width="4" x="101.5" y="175.5"/><rect fill="#FEFECE" height="2" style="stroke:#A80036;stroke-width:1.5;" width="4" x="101.5" y="179.5"/><text fill="#000000" font-family="sans-serif" font-size="14" lengthAdjust="spacing" textLength="59" x="39.5" y="201.4951">frontend</text><!--MD5=[0ef533f09b2843476631a5fe543a12d7]
entity ext_table--><ellipse cx="361" cy="183.5" fill="#FEFECE" filter="url(#f197coez87otel)" rx="12" ry="12" style="stroke:#A80036;stroke-width:1.5;"/><line style="stroke:#A80036;stroke-width:1.5;" x1="349" x2="373" y1="197.5" y2="197.5"/><text fill="#000000" font-family="sans-serif" font-size="14" lengthAdjust="spacing" textLength="77" x="322.5" y="212.4951">t_table(ext)</text><!--MD5=[87734a20c2eaadadc712f7efe19c3795]
entity metadata--><path d="M33.5,379.5 C33.5,369.5 76,369.5 76,369.5 C76,369.5 118.5,369.5 118.5,379.5 L118.5,404.7969 C118.5,414.7969 76,414.7969 76,414.7969 C76,414.7969 33.5,414.7969 33.5,404.7969 L33.5,379.5 " fill="#FEFECE" filter="url(#f197coez87otel)" style="stroke:#000000;stroke-width:1.5;"/><path d="M33.5,379.5 C33.5,389.5 76,389.5 76,389.5 C76,389.5 118.5,389.5 118.5,379.5 " fill="none" style="stroke:#000000;stroke-width:1.5;"/><text fill="#000000" font-family="sans-serif" font-size="14" lengthAdjust="spacing" textLength="65" x="43.5" y="406.4951">metadata</text><!--MD5=[a0302e260767c3a151b9bc67457b16f8]
entity pg_catalog--><path d="M499.5,179 C499.5,169 547,169 547,169 C547,169 594.5,169 594.5,179 L594.5,204.2969 C594.5,214.2969 547,214.2969 547,214.2969 C547,214.2969 499.5,214.2969 499.5,204.2969 L499.5,179 " fill="#FEFECE" filter="url(#f197coez87otel)" style="stroke:#000000;stroke-width:1.5;"/><path d="M499.5,179 C499.5,189 547,189 547,189 C547,189 594.5,189 594.5,179 " fill="none" style="stroke:#000000;stroke-width:1.5;"/><text fill="#000000" font-family="sans-serif" font-size="14" lengthAdjust="spacing" textLength="75" x="509.5" y="205.9951">pg_catalog</text><!--MD5=[2b2d5ad518bf6746de4ffeb5be0566d4]
entity manager--><rect fill="#FEFECE" filter="url(#f197coez87otel)" height="46.2969" style="stroke:#A80036;stroke-width:1.5;" width="101" x="66.5" y="568.5"/><rect fill="#FEFECE" height="10" style="stroke:#A80036;stroke-width:1.5;" width="15" x="147.5" y="573.5"/><rect fill="#FEFECE" height="2" style="stroke:#A80036;stroke-width:1.5;" width="4" x="145.5" y="575.5"/><rect fill="#FEFECE" height="2" style="stroke:#A80036;stroke-width:1.5;" width="4" x="145.5" y="579.5"/><text fill="#000000" font-family="sans-serif" font-size="14" lengthAdjust="spacing" textLength="61" x="81.5" y="601.4951">manager</text><!--MD5=[3617a1dcecd131945f386a894a6d65d9]
entity ogawayama--><rect fill="#FEFECE" filter="url(#f197coez87otel)" height="46.2969" style="stroke:#A80036;stroke-width:1.5;" width="121" x="148.5" y="696.5"/><rect fill="#FEFECE" height="10" style="stroke:#A80036;stroke-width:1.5;" width="15" x="249.5" y="701.5"/><rect fill="#FEFECE" height="2" style="stroke:#A80036;stroke-width:1.5;" width="4" x="247.5" y="703.5"/><rect fill="#FEFECE" height="2" style="stroke:#A80036;stroke-width:1.5;" width="4" x="247.5" y="707.5"/><text fill="#000000" font-family="sans-serif" font-size="14" lengthAdjust="spacing" textLength="81" x="163.5" y="729.4951">ogawayama</text><!--MD5=[f885883bf97652c4492f5888ce4a5716]
entity t_table--><path d="M349,707 C349,697 382,697 382,697 C382,697 415,697 415,707 L415,732.2969 C415,742.2969 382,742.2969 382,742.2969 C382,742.2969 349,742.2969 349,732.2969 L349,707 " fill="#FEFECE" filter="url(#f197coez87otel)" style="stroke:#000000;stroke-width:1.5;"/><path d="M349,707 C349,717 382,717 382,717 C382,717 415,717 415,707 " fill="none" style="stroke:#000000;stroke-width:1.5;"/><text fill="#000000" font-family="sans-serif" font-size="14" lengthAdjust="spacing" textLength="46" x="359" y="733.9951">t_table</text><!--MD5=[79a439086b036a57b90a01d7b2f8bbd1]
entity admin--><ellipse cx="74" cy="14" fill="#FEFECE" filter="url(#f197coez87otel)" rx="8" ry="8" style="stroke:#A80036;stroke-width:1.5;"/><path d="M74,22 L74,49 M61,30 L87,30 M74,49 L61,64 M74,49 L87,64 " fill="none" filter="url(#f197coez87otel)" style="stroke:#A80036;stroke-width:1.5;"/><text fill="#000000" font-family="sans-serif" font-size="14" lengthAdjust="spacing" textLength="42" x="53" y="82.4951">admin</text><!--MD5=[4067870adf98276f6cabac832cf6bd71]
link frontend to ext_table--><path d="M123.6639,191.5 C178.2622,191.5 265.1332,191.5 317.2544,191.5 " fill="none" id="frontend-to-ext_table" style="stroke:#A80036;stroke-width:1.0;"/><polygon fill="#A80036" points="322.4987,191.5,313.4987,187.5,317.4987,191.5,313.4987,195.5,322.4987,191.5" style="stroke:#A80036;stroke-width:1.0;"/><text fill="#000000" font-family="sans-serif" font-size="13" lengthAdjust="spacing" textLength="162" x="142" y="184.5669">CREATE EXTERNAL TABLE</text><!--MD5=[e25b590661d96e51952dc6bbfc439e98]
link ext_table to pg_catalog--><path d="M399.5393,191.5 C426.8993,191.5 463.969,191.5 494.0957,191.5 " fill="none" id="ext_table-to-pg_catalog" style="stroke:#A80036;stroke-width:1.0;"/><polygon fill="#A80036" points="499.2514,191.5,490.2514,187.5,494.2514,191.5,490.2514,195.5,499.2514,191.5" style="stroke:#A80036;stroke-width:1.0;"/><text fill="#000000" font-family="sans-serif" font-size="13" lengthAdjust="spacing" textLength="63" x="418" y="184.5669">metadata</text><!--MD5=[8f0a720853ed37f32da10868ca0b1939]
link frontend to metadata--><path d="M74.2333,214.8923 C74.6041,252.0642 75.3264,324.4692 75.7229,364.2209 " fill="none" id="frontend-to-metadata" style="stroke:#A80036;stroke-width:1.0;"/><polygon fill="#A80036" points="75.7743,369.3716,79.6841,360.332,75.7243,364.3719,71.6845,360.4121,75.7743,369.3716" style="stroke:#A80036;stroke-width:1.0;"/><text fill="#000000" font-family="sans-serif" font-size="13" lengthAdjust="spacing" textLength="123" x="76" y="289.5669">metadata including</text><text fill="#000000" font-family="sans-serif" font-size="13" lengthAdjust="spacing" textLength="108" x="83.5" y="304.6997">access privileges</text><!--MD5=[7cf1da3d91892ef8487211adcc52537b]
link metadata to manager--><path d="M80.7032,414.8852 C88.2319,451.5186 102.973,523.2468 111.1631,563.0983 " fill="none" id="metadata-to-manager" style="stroke:#A80036;stroke-width:1.0;"/><polygon fill="#A80036" points="112.2253,568.2672,114.3313,558.6461,111.2186,563.3696,106.4951,560.2569,112.2253,568.2672" style="stroke:#A80036;stroke-width:1.0;"/><!--MD5=[0b1ccbb062529ded3928f775cc3541cd]
link ogawayama to t_table--><path d="M269.507,719.5 C294.2235,719.5 322.0614,719.5 343.8609,719.5 " fill="none" id="ogawayama-to-t_table" style="stroke:#A80036;stroke-width:1.0;"/><polygon fill="#A80036" points="348.9827,719.5,339.9827,715.5,343.9827,719.5,339.9827,723.5,348.9827,719.5" style="stroke:#A80036;stroke-width:1.0;"/><text fill="#000000" font-family="sans-serif" font-size="13" lengthAdjust="spacing" textLength="43" x="287.75" y="712.5669">Create</text><!--MD5=[7b7568e7b3d3d33b5be17ec55672259a]
link admin to frontend--><path d="M74,85.8084 C74,110.42 74,141.1547 74,163.126 " fill="none" id="admin-to-frontend" style="stroke:#A80036;stroke-width:1.0;"/><polygon fill="#A80036" points="74,168.2335,78,159.2335,74,163.2335,70,159.2335,74,168.2335" style="stroke:#A80036;stroke-width:1.0;"/><text fill="#000000" font-family="sans-serif" font-size="13" lengthAdjust="spacing" textLength="278" x="75" y="128.5669">CREATE TABLE t_table TABLESPACE Tsurugi</text><!--MD5=[725134c58ac48e76f7dc9724fb62703c]
link manager to ogawayama--><path d="M123.7124,614.5172 C128.5452,628.8236 135.9814,647.1572 146,661.5 C154.0372,673.0061 164.7142,683.9136 174.9911,693.0992 " fill="none" id="manager-to-ogawayama" style="stroke:#A80036;stroke-width:1.0;"/><polygon fill="#A80036" points="178.7535,696.4034,174.6305,687.4591,174.9966,693.1041,169.3516,693.4701,178.7535,696.4034" style="stroke:#A80036;stroke-width:1.0;"/><text fill="#000000" font-family="sans-serif" font-size="13" lengthAdjust="spacing" textLength="63" x="147" y="657.5669">metadata</text><!--MD5=[cac2dd5fce51c8c44451d2cde01b0fb9]
link frontend to ogawayama--><path d="M123.7911,200.5381 C171.7264,212.4487 237,238.5689 237,292.5 C237,292.5 237,292.5 237,591.5 C237,626.4746 226.9003,665.6087 218.8324,691.2906 " fill="none" id="frontend-to-ogawayama" style="stroke:#A80036;stroke-width:1.0;"/><polygon fill="#A80036" points="217.2495,696.2424,223.7999,688.8877,218.7719,691.4798,216.1798,686.4518,217.2495,696.2424" style="stroke:#A80036;stroke-width:1.0;"/><text fill="#000000" font-family="sans-serif" font-size="13" lengthAdjust="spacing" textLength="59" x="260" y="457.5669">message</text><text fill="#000000" font-family="sans-serif" font-size="13" lengthAdjust="spacing" textLength="103" x="238" y="472.6997">(CREATE TABLE)</text><!--MD5=[ce78cd1f6cb2b30c2aa60673e297be3a]
link ext_table to t_table--><path d="M368.9392,215.6981 C374.886,235.9778 382,265.8145 382,292.5 C382,292.5 382,292.5 382,591.5 C382,625.9392 382,665.5907 382,691.5222 " fill="none" id="ext_table-to-t_table" style="stroke:#A80036;stroke-width:1.0;stroke-dasharray:7.0,7.0;"/><polygon fill="#A80036" points="382,696.8407,386,687.8407,382,691.8407,378,687.8407,382,696.8407" style="stroke:#A80036;stroke-width:1.0;"/><text fill="#000000" font-family="sans-serif" font-size="13" lengthAdjust="spacing" textLength="49" x="383" y="465.0669">Point to</text><!--MD5=[9784ecf32955861c87206ac379b87812]
@startuml create_table
actor admin

package PostgreSQL {
  component frontend
  entity "t_table(ext)" as ext_table
  database metadata
  database pg_catalog
  component manager

  frontend -> ext_table : CREATE EXTERNAL TABLE
  ext_table -> pg_catalog : metadata
  frontend - -> metadata : metadata including\naccess privileges
  metadata - -> manager
}

package OLTP as oltp {
  component ogawayama
  database t_table as t_table

  ogawayama -> t_table : Create
}

admin - -> frontend : CREATE TABLE t_table TABLESPACE Tsurugi
manager - -> ogawayama : metadata
frontend - -> ogawayama : message\n(CREATE TABLE)
ext_table ..> t_table : Point to
@enduml

PlantUML version 1.2021.7(Sun May 23 21:40:07 JST 2021)
(GPL source distribution)
Java Runtime: OpenJDK Runtime Environment
JVM: OpenJDK 64-Bit Server VM
Default Encoding: UTF-8
Language: en
Country: US
--></g></svg>