<?xml version="1.0" encoding="UTF-8" standalone="no"?><svg xmlns="http://www.w3.org/2000/svg" xmlns:xlink="http://www.w3.org/1999/xlink" contentScriptType="application/ecmascript" contentStyleType="text/css" height="746px" preserveAspectRatio="none" style="width:621px;height:746px;background:#FFFFFF;" version="1.1" viewBox="0 0 621 746" width="621px" zoomAndPan="magnify"><defs><filter height="300%" id="f14stn3h92fcee" width="300%" x="-1" y="-1"><feGaussianBlur result="blurOut" stdDeviation="2.0"/><feColorMatrix in="blurOut" result="blurOut2" type="matrix" values="0 0 0 0 0 0 0 0 0 0 0 0 0 0 0 0 0 0 .4 0"/><feOffset dx="4.0" dy="4.0" in="blurOut2" result="blurOut3"/><feBlend in="SourceGraphic" in2="blurOut3" mode="normal"/></filter></defs><g><!--MD5=[e9cbb9dd88ded91326c7c57ecf0f8dfc]
cluster PostgreSQL--><polygon fill="#FFFFFF" filter="url(#f14stn3h92fcee)" points="16,140.5,115,140.5,122,162.7969,264,162.7969,264,609.5,16,609.5,16,140.5" style="stroke:#000000;stroke-width:1.5;"/><line style="stroke:#000000;stroke-width:1.5;" x1="16" x2="122" y1="162.7969" y2="162.7969"/><text fill="#000000" font-family="sans-serif" font-size="14" font-weight="bold" lengthAdjust="spacing" textLength="93" x="20" y="155.4951">PostgreSQL</text><!--MD5=[46a063155973224c3fa27ddf1e3a8ae1]
cluster OLTP--><polygon fill="#FFFFFF" filter="url(#f14stn3h92fcee)" points="192,656.5,239,656.5,246,678.7969,604,678.7969,604,739.5,192,739.5,192,656.5" style="stroke:#000000;stroke-width:1.5;"/><line style="stroke:#000000;stroke-width:1.5;" x1="192" x2="246" y1="678.7969" y2="678.7969"/><text fill="#000000" font-family="sans-serif" font-size="14" font-weight="bold" lengthAdjust="spacing" textLength="41" x="196" y="671.4951">OLTP</text><!--MD5=[b1e3d2dcb3697de9e6328d1cb436cbc4]
entity frontend--><rect fill="#FEFECE" filter="url(#f14stn3h92fcee)" height="46.2969" style="stroke:#A80036;stroke-width:1.5;" width="99" x="90.5" y="167.5"/><rect fill="#FEFECE" height="10" style="stroke:#A80036;stroke-width:1.5;" width="15" x="169.5" y="172.5"/><rect fill="#FEFECE" height="2" style="stroke:#A80036;stroke-width:1.5;" width="4" x="167.5" y="174.5"/><rect fill="#FEFECE" height="2" style="stroke:#A80036;stroke-width:1.5;" width="4" x="167.5" y="178.5"/><text fill="#000000" font-family="sans-serif" font-size="14" lengthAdjust="spacing" textLength="59" x="105.5" y="200.4951">frontend</text><!--MD5=[f7991d5f1ff7b3cd7b1e7cf630944cdf]
entity t_view--><ellipse cx="71" cy="368.5" fill="#FEFECE" filter="url(#f14stn3h92fcee)" rx="12" ry="12" style="stroke:#A80036;stroke-width:1.5;"/><line style="stroke:#A80036;stroke-width:1.5;" x1="59" x2="83" y1="382.5" y2="382.5"/><text fill="#000000" font-family="sans-serif" font-size="14" lengthAdjust="spacing" textLength="42" x="50" y="397.4951">t_view</text><!--MD5=[0ef533f09b2843476631a5fe543a12d7]
entity ext_table--><ellipse cx="217" cy="368.5" fill="#FEFECE" filter="url(#f14stn3h92fcee)" rx="12" ry="12" style="stroke:#A80036;stroke-width:1.5;"/><line style="stroke:#A80036;stroke-width:1.5;" x1="205" x2="229" y1="382.5" y2="382.5"/><text fill="#000000" font-family="sans-serif" font-size="14" lengthAdjust="spacing" textLength="77" x="178.5" y="397.4951">t_table(ext)</text><!--MD5=[a0302e260767c3a151b9bc67457b16f8]
entity pg_catalog--><path d="M24.5,566 C24.5,556 72,556 72,556 C72,556 119.5,556 119.5,566 L119.5,591.2969 C119.5,601.2969 72,601.2969 72,601.2969 C72,601.2969 24.5,601.2969 24.5,591.2969 L24.5,566 " fill="#FEFECE" filter="url(#f14stn3h92fcee)" style="stroke:#000000;stroke-width:1.5;"/><path d="M24.5,566 C24.5,576 72,576 72,576 C72,576 119.5,576 119.5,566 " fill="none" style="stroke:#000000;stroke-width:1.5;"/><text fill="#000000" font-family="sans-serif" font-size="14" lengthAdjust="spacing" textLength="75" x="34.5" y="592.9951">pg_catalog</text><!--MD5=[2b2d5ad518bf6746de4ffeb5be0566d4]
entity manager--><rect fill="#FEFECE" filter="url(#f14stn3h92fcee)" height="46.2969" style="stroke:#A80036;stroke-width:1.5;" width="101" x="154.5" y="555.5"/><rect fill="#FEFECE" height="10" style="stroke:#A80036;stroke-width:1.5;" width="15" x="235.5" y="560.5"/><rect fill="#FEFECE" height="2" style="stroke:#A80036;stroke-width:1.5;" width="4" x="233.5" y="562.5"/><rect fill="#FEFECE" height="2" style="stroke:#A80036;stroke-width:1.5;" width="4" x="233.5" y="566.5"/><text fill="#000000" font-family="sans-serif" font-size="14" lengthAdjust="spacing" textLength="61" x="169.5" y="588.4951">manager</text><!--MD5=[3617a1dcecd131945f386a894a6d65d9]
entity ogawayama--><rect fill="#FEFECE" filter="url(#f14stn3h92fcee)" height="46.2969" style="stroke:#A80036;stroke-width:1.5;" width="121" x="200.5" y="684.5"/><rect fill="#FEFECE" height="10" style="stroke:#A80036;stroke-width:1.5;" width="15" x="301.5" y="689.5"/><rect fill="#FEFECE" height="2" style="stroke:#A80036;stroke-width:1.5;" width="4" x="299.5" y="691.5"/><rect fill="#FEFECE" height="2" style="stroke:#A80036;stroke-width:1.5;" width="4" x="299.5" y="695.5"/><text fill="#000000" font-family="sans-serif" font-size="14" lengthAdjust="spacing" textLength="81" x="215.5" y="717.4951">ogawayama</text><!--MD5=[f885883bf97652c4492f5888ce4a5716]
entity t_table--><path d="M530,695 C530,685 563,685 563,685 C563,685 596,685 596,695 L596,720.2969 C596,730.2969 563,730.2969 563,730.2969 C563,730.2969 530,730.2969 530,720.2969 L530,695 " fill="#FEFECE" filter="url(#f14stn3h92fcee)" style="stroke:#000000;stroke-width:1.5;"/><path d="M530,695 C530,705 563,705 563,705 C563,705 596,705 596,695 " fill="none" style="stroke:#000000;stroke-width:1.5;"/><text fill="#000000" font-family="sans-serif" font-size="14" lengthAdjust="spacing" textLength="46" x="540" y="721.9951">t_table</text><!--MD5=[12691976fc4225cdd1449db5c8dcc7e5]
entity t_view_--><ellipse cx="422" cy="699.5" fill="#FEFECE" filter="url(#f14stn3h92fcee)" rx="12" ry="12" style="stroke:#A80036;stroke-width:1.5;"/><line style="stroke:#A80036;stroke-width:1.5;" x1="410" x2="434" y1="713.5" y2="713.5"/><text fill="#000000" font-family="sans-serif" font-size="14" lengthAdjust="spacing" textLength="42" x="401" y="728.4951">t_view</text><!--MD5=[8fc3522a43f8c7199df5e09e5bb0188e]
entity user--><ellipse cx="140" cy="14" fill="#FEFECE" filter="url(#f14stn3h92fcee)" rx="8" ry="8" style="stroke:#A80036;stroke-width:1.5;"/><path d="M140,22 L140,49 M127,30 L153,30 M140,49 L127,64 M140,49 L153,64 " fill="none" filter="url(#f14stn3h92fcee)" style="stroke:#A80036;stroke-width:1.5;"/><text fill="#000000" font-family="sans-serif" font-size="14" lengthAdjust="spacing" textLength="31" x="124.5" y="82.4951">user</text><!--MD5=[bf23f50bbf4beba057f19fb84fdb274a]
link frontend to t_view--><path d="M131.4006,213.681 C118.2506,249.1287 93.2699,316.4682 79.9266,352.4369 " fill="none" id="frontend-t_view" style="stroke:#A80036;stroke-width:1.0;"/><text fill="#000000" font-family="sans-serif" font-size="13" lengthAdjust="spacing" textLength="43" x="110" y="287.5669">Create</text><!--MD5=[102edd712dfffddc375fe5ebb4f394c6]
link t_view to ext_table--><path d="M92.2297,376.5 C113.3608,376.5 146.4158,376.5 173.1951,376.5 " fill="none" id="t_view-to-ext_table" style="stroke:#A80036;stroke-width:1.0;"/><polygon fill="#A80036" points="178.4619,376.5,169.4619,372.5,173.4619,376.5,169.4619,380.5,178.4619,376.5" style="stroke:#A80036;stroke-width:1.0;"/><text fill="#000000" font-family="sans-serif" font-size="13" lengthAdjust="spacing" textLength="50" x="110.25" y="369.5669">Refer to</text><!--MD5=[104d30eb53c6e461744c2920cfb36496]
link t_view to pg_catalog--><path d="M71.1206,400.8659 C71.3076,438.6255 71.6661,511.0521 71.8627,550.7648 " fill="none" id="t_view-to-pg_catalog" style="stroke:#A80036;stroke-width:1.0;"/><polygon fill="#A80036" points="71.8882,555.9099,75.8434,546.8901,71.8633,550.91,67.8435,546.9299,71.8882,555.9099" style="stroke:#A80036;stroke-width:1.0;"/><text fill="#000000" font-family="sans-serif" font-size="13" lengthAdjust="spacing" textLength="63" x="73" y="490.5669">metadata</text><!--MD5=[af99cae13808bda9d00715640c767a61]
link pg_catalog to manager--><path d="M119.5371,578.5 C129.3923,578.5 139.2475,578.5 149.1028,578.5 " fill="none" id="pg_catalog-to-manager" style="stroke:#A80036;stroke-width:1.0;"/><polygon fill="#A80036" points="154.2564,578.5,145.2564,574.5,149.2564,578.5,145.2564,582.5,154.2564,578.5" style="stroke:#A80036;stroke-width:1.0;"/><!--MD5=[6b56d76f140c66c2d469ce854abf653b]
link ogawayama to t_view_--><path d="M321.8672,707.5 C347.371,707.5 375.6748,707.5 395.6655,707.5 " fill="none" id="ogawayama-to-t_view_" style="stroke:#A80036;stroke-width:1.0;"/><polygon fill="#A80036" points="400.8176,707.5,391.8176,703.5,395.8176,707.5,391.8176,711.5,400.8176,707.5" style="stroke:#A80036;stroke-width:1.0;"/><text fill="#000000" font-family="sans-serif" font-size="13" lengthAdjust="spacing" textLength="43" x="339.75" y="700.5669">Create</text><!--MD5=[c5fabe7bd539025ddc0b69b95515883e]
link t_view_ to t_table--><path d="M443.1091,707.5 C464.6441,707.5 498.535,707.5 524.7976,707.5 " fill="none" id="t_view_-to-t_table" style="stroke:#A80036;stroke-width:1.0;"/><polygon fill="#A80036" points="529.9425,707.5,520.9425,703.5,524.9425,707.5,520.9425,711.5,529.9425,707.5" style="stroke:#A80036;stroke-width:1.0;"/><text fill="#000000" font-family="sans-serif" font-size="13" lengthAdjust="spacing" textLength="50" x="461.5" y="700.5669">Refer to</text><!--MD5=[122aa4dd056032f23668896f93924b57]
link user to frontend--><path d="M140,85.5299 C140,109.9734 140,140.4984 140,162.3196 " fill="none" id="user-to-frontend" style="stroke:#A80036;stroke-width:1.0;"/><polygon fill="#A80036" points="140,167.3923,144,158.3923,140,162.3923,136,158.3923,140,167.3923" style="stroke:#A80036;stroke-width:1.0;"/><text fill="#000000" font-family="sans-serif" font-size="13" lengthAdjust="spacing" textLength="289" x="141" y="128.5669">CREATE VIEW t_view AS SELECT FROM t_table</text><!--MD5=[cac2dd5fce51c8c44451d2cde01b0fb9]
link frontend to ogawayama--><path d="M189.7915,196.4995 C239.6423,205.6116 309,228.1459 309,283 C309,283 309,283 309,578.5 C309,615.1682 291.7539,654.2266 277.9367,679.6352 " fill="none" id="frontend-to-ogawayama" style="stroke:#A80036;stroke-width:1.0;"/><polygon fill="#A80036" points="275.4016,684.217,283.2588,678.2786,277.8223,679.842,276.2589,674.4055,275.4016,684.217" style="stroke:#A80036;stroke-width:1.0;"/><text fill="#000000" font-family="sans-serif" font-size="13" lengthAdjust="spacing" textLength="145" x="310" y="443.5669">messge(CREATE VIEW)</text><!--MD5=[725134c58ac48e76f7dc9724fb62703c]
link manager to ogawayama--><path d="M206.6899,601.6328 C208.3404,615.6471 211.5944,633.6285 218,648.5 C222.826,659.7043 230.1015,670.8237 237.3024,680.3381 " fill="none" id="manager-to-ogawayama" style="stroke:#A80036;stroke-width:1.0;"/><polygon fill="#A80036" points="240.3766,684.313,238.0347,674.7466,237.3177,680.3579,231.7065,679.6409,240.3766,684.313" style="stroke:#A80036;stroke-width:1.0;"/><text fill="#000000" font-family="sans-serif" font-size="13" lengthAdjust="spacing" textLength="63" x="219" y="644.5669">metadata</text><!--MD5=[de7fceefff62096c7d9c8fddbc68c1ca]
@startuml create_view
actor user

package PostgreSQL {
  component frontend
  entity t_view
  entity "t_table(ext)" as ext_table
  database pg_catalog
  component manager
 
  frontend - - t_view : Create
  t_view -> ext_table  : Refer to
  t_view - -> pg_catalog : metadata
  pg_catalog -> manager
}

package OLTP {
  component ogawayama
  database t_table
  entity "t_view" as t_view_

  ogawayama -> t_view_ : Create
  t_view_ -> t_table : Refer to
}

user - -> frontend : CREATE VIEW t_view AS SELECT FROM t_table
frontend - - -> ogawayama : messge(CREATE VIEW)
manager - -> ogawayama : metadata
'ext_table ...> t_table : Point to
@enduml

@startuml create_view
actor user

package PostgreSQL {
  component frontend
  entity t_view
  entity "t_table(ext)" as ext_table
  database pg_catalog
  component manager
 
  frontend - - t_view : Create
  t_view -> ext_table  : Refer to
  t_view - -> pg_catalog : metadata
  pg_catalog -> manager
}

package OLTP {
  component ogawayama
  database t_table
  entity "t_view" as t_view_

  ogawayama -> t_view_ : Create
  t_view_ -> t_table : Refer to
}

user - -> frontend : CREATE VIEW t_view AS SELECT FROM t_table
frontend - - -> ogawayama : messge(CREATE VIEW)
manager - -> ogawayama : metadata
@enduml

PlantUML version 1.2021.7(Sun May 23 21:40:07 JST 2021)
(GPL source distribution)
Java Runtime: OpenJDK Runtime Environment
JVM: OpenJDK 64-Bit Server VM
Default Encoding: UTF-8
Language: en
Country: US
--></g></svg>