<?xml version="1.0" encoding="UTF-8" standalone="no"?><svg xmlns="http://www.w3.org/2000/svg" xmlns:xlink="http://www.w3.org/1999/xlink" contentScriptType="application/ecmascript" contentStyleType="text/css" height="693px" preserveAspectRatio="none" style="width:614px;height:693px;" version="1.1" viewBox="0 0 614 693" width="614px" zoomAndPan="magnify"><defs><filter height="300%" id="f197coez87otel" width="300%" x="-1" y="-1"><feGaussianBlur result="blurOut" stdDeviation="2.0"/><feColorMatrix in="blurOut" result="blurOut2" type="matrix" values="0 0 0 0 0 0 0 0 0 0 0 0 0 0 0 0 0 0 .4 0"/><feOffset dx="4.0" dy="4.0" in="blurOut2" result="blurOut3"/><feBlend in="SourceGraphic" in2="blurOut3" mode="normal"/></filter></defs><g><!--MD5=[e9cbb9dd88ded91326c7c57ecf0f8dfc]
cluster PostgreSQL--><polygon fill="#FFFFFF" filter="url(#f197coez87otel)" points="16,151.5,105,151.5,112,175.1094,597,175.1094,597,536.5,16,536.5,16,151.5" style="stroke:#000000;stroke-width:1.5;"/><line style="stroke:#000000;stroke-width:1.5;" x1="16" x2="112" y1="175.1094" y2="175.1094"/><text fill="#000000" font-family="sans-serif" font-size="14" font-weight="bold" lengthAdjust="spacing" textLength="83" x="20" y="168.0332">PostgreSQL</text><!--MD5=[07f0e25f731765bfa93aaa20542a266d]
cluster oltp--><polygon fill="#FFFFFF" filter="url(#f197coez87otel)" points="127,586.5,169,586.5,176,610.1094,413,610.1094,413,686.5,127,686.5,127,586.5" style="stroke:#000000;stroke-width:1.5;"/><line style="stroke:#000000;stroke-width:1.5;" x1="127" x2="176" y1="610.1094" y2="610.1094"/><text fill="#000000" font-family="sans-serif" font-size="14" font-weight="bold" lengthAdjust="spacing" textLength="36" x="131" y="603.0332">OLTP</text><!--MD5=[b1e3d2dcb3697de9e6328d1cb436cbc4]
entity frontend--><rect fill="#FEFECE" filter="url(#f197coez87otel)" height="47.6094" style="stroke:#A80036;stroke-width:1.5;" width="93" x="32.5" y="188.5"/><rect fill="#FEFECE" height="10" style="stroke:#A80036;stroke-width:1.5;" width="15" x="105.5" y="193.5"/><rect fill="#FEFECE" height="2" style="stroke:#A80036;stroke-width:1.5;" width="4" x="103.5" y="195.5"/><rect fill="#FEFECE" height="2" style="stroke:#A80036;stroke-width:1.5;" width="4" x="103.5" y="199.5"/><text fill="#000000" font-family="sans-serif" font-size="14" lengthAdjust="spacing" textLength="53" x="47.5" y="223.0332">frontend</text><!--MD5=[0ef533f09b2843476631a5fe543a12d7]
entity ext_table--><ellipse cx="365" cy="203.5" fill="#FEFECE" filter="url(#f197coez87otel)" rx="12" ry="12" style="stroke:#A80036;stroke-width:1.5;"/><line style="stroke:#A80036;stroke-width:1.5;" x1="353" x2="377" y1="217.5" y2="217.5"/><text fill="#000000" font-family="sans-serif" font-size="14" lengthAdjust="spacing" textLength="71" x="329.5" y="234.0332">t_table(ext)</text><!--MD5=[87734a20c2eaadadc712f7efe19c3795]
entity metadata--><path d="M38.5,341.5 C38.5,331.5 78,331.5 78,331.5 C78,331.5 117.5,331.5 117.5,341.5 L117.5,368.1094 C117.5,378.1094 78,378.1094 78,378.1094 C78,378.1094 38.5,378.1094 38.5,368.1094 L38.5,341.5 " fill="#FEFECE" filter="url(#f197coez87otel)" style="stroke:#000000;stroke-width:1.5;"/><path d="M38.5,341.5 C38.5,351.5 78,351.5 78,351.5 C78,351.5 117.5,351.5 117.5,341.5 " fill="none" style="stroke:#000000;stroke-width:1.5;"/><text fill="#000000" font-family="sans-serif" font-size="14" lengthAdjust="spacing" textLength="59" x="48.5" y="370.0332">metadata</text><!--MD5=[a0302e260767c3a151b9bc67457b16f8]
entity pg_catalog--><path d="M491,199 C491,189 536,189 536,189 C536,189 581,189 581,199 L581,225.6094 C581,235.6094 536,235.6094 536,235.6094 C536,235.6094 491,235.6094 491,225.6094 L491,199 " fill="#FEFECE" filter="url(#f197coez87otel)" style="stroke:#000000;stroke-width:1.5;"/><path d="M491,199 C491,209 536,209 536,209 C536,209 581,209 581,199 " fill="none" style="stroke:#000000;stroke-width:1.5;"/><text fill="#000000" font-family="sans-serif" font-size="14" lengthAdjust="spacing" textLength="70" x="501" y="227.5332">pg_catalog</text><!--MD5=[2b2d5ad518bf6746de4ffeb5be0566d4]
entity manager--><rect fill="#FEFECE" filter="url(#f197coez87otel)" height="47.6094" style="stroke:#A80036;stroke-width:1.5;" width="96" x="42" y="472.5"/><rect fill="#FEFECE" height="10" style="stroke:#A80036;stroke-width:1.5;" width="15" x="118" y="477.5"/><rect fill="#FEFECE" height="2" style="stroke:#A80036;stroke-width:1.5;" width="4" x="116" y="479.5"/><rect fill="#FEFECE" height="2" style="stroke:#A80036;stroke-width:1.5;" width="4" x="116" y="483.5"/><text fill="#000000" font-family="sans-serif" font-size="14" lengthAdjust="spacing" textLength="56" x="57" y="507.0332">manager</text><!--MD5=[3617a1dcecd131945f386a894a6d65d9]
entity ogawayama--><rect fill="#FEFECE" filter="url(#f197coez87otel)" height="47.6094" style="stroke:#A80036;stroke-width:1.5;" width="115" x="143.5" y="622.5"/><rect fill="#FEFECE" height="10" style="stroke:#A80036;stroke-width:1.5;" width="15" x="238.5" y="627.5"/><rect fill="#FEFECE" height="2" style="stroke:#A80036;stroke-width:1.5;" width="4" x="236.5" y="629.5"/><rect fill="#FEFECE" height="2" style="stroke:#A80036;stroke-width:1.5;" width="4" x="236.5" y="633.5"/><text fill="#000000" font-family="sans-serif" font-size="14" lengthAdjust="spacing" textLength="75" x="158.5" y="657.0332">ogawayama</text><!--MD5=[f885883bf97652c4492f5888ce4a5716]
entity t_table--><path d="M333.5,633 C333.5,623 365,623 365,623 C365,623 396.5,623 396.5,633 L396.5,659.6094 C396.5,669.6094 365,669.6094 365,669.6094 C365,669.6094 333.5,669.6094 333.5,659.6094 L333.5,633 " fill="#FEFECE" filter="url(#f197coez87otel)" style="stroke:#000000;stroke-width:1.5;"/><path d="M333.5,633 C333.5,643 365,643 365,643 C365,643 396.5,643 396.5,633 " fill="none" style="stroke:#000000;stroke-width:1.5;"/><text fill="#000000" font-family="sans-serif" font-size="14" lengthAdjust="spacing" textLength="43" x="343.5" y="661.5332">t_table</text><!--MD5=[79a439086b036a57b90a01d7b2f8bbd1]
entity admin--><ellipse cx="79" cy="14" fill="#FEFECE" filter="url(#f197coez87otel)" rx="8" ry="8" style="stroke:#A80036;stroke-width:1.5;"/><path d="M79,22 L79,49 M66,30 L92,30 M79,49 L66,64 M79,49 L92,64 " fill="none" filter="url(#f197coez87otel)" style="stroke:#A80036;stroke-width:1.5;"/><text fill="#000000" font-family="sans-serif" font-size="14" lengthAdjust="spacing" textLength="38" x="60" y="84.0332">admin</text><!--MD5=[4067870adf98276f6cabac832cf6bd71]
link frontend to ext_table--><path d="M125.59,212.5 C180.68,212.5 271.5,212.5 324.02,212.5 " fill="none" id="frontend-to-ext_table" style="stroke:#A80036;stroke-width:1.0;"/><polygon fill="#A80036" points="329.29,212.5,320.29,208.5,324.29,212.5,320.29,216.5,329.29,212.5" style="stroke:#A80036;stroke-width:1.0;"/><text fill="#000000" font-family="sans-serif" font-size="13" lengthAdjust="spacing" textLength="167" x="144" y="205.9951">CREATE EXTERNAL TABLE</text><!--MD5=[e25b590661d96e51952dc6bbfc439e98]
link ext_table to pg_catalog--><path d="M400.85,212.5 C425.46,212.5 458.48,212.5 485.72,212.5 " fill="none" id="ext_table-to-pg_catalog" style="stroke:#A80036;stroke-width:1.0;"/><polygon fill="#A80036" points="490.74,212.5,481.74,208.5,485.74,212.5,481.74,216.5,490.74,212.5" style="stroke:#A80036;stroke-width:1.0;"/><text fill="#000000" font-family="sans-serif" font-size="13" lengthAdjust="spacing" textLength="54" x="418.75" y="205.9951">metadata</text><!--MD5=[8f0a720853ed37f32da10868ca0b1939]
link frontend to metadata--><path d="M74.3,236.52 C72.58,246.06 70.85,257.27 70,267.5 C68.75,282.56 68.86,286.43 70,301.5 C70.61,309.49 71.72,318.11 72.93,326.01 " fill="none" id="frontend-to-metadata" style="stroke:#A80036;stroke-width:1.0;"/><polygon fill="#A80036" points="73.78,331.35,76.3132,321.8325,72.9928,326.4124,68.413,323.092,73.78,331.35" style="stroke:#A80036;stroke-width:1.0;"/><text fill="#000000" font-family="sans-serif" font-size="13" lengthAdjust="spacing" textLength="109" x="71" y="281.9951">metadata including</text><text fill="#000000" font-family="sans-serif" font-size="13" lengthAdjust="spacing" textLength="99" x="76" y="298.3467">access privileges</text><!--MD5=[7cf1da3d91892ef8487211adcc52537b]
link metadata to manager--><path d="M79.95,378.72 C82.03,402.9 85.33,441.18 87.57,467.27 " fill="none" id="metadata-to-manager" style="stroke:#A80036;stroke-width:1.0;"/><polygon fill="#A80036" points="88.01,472.32,91.2245,463.0105,87.5818,467.3384,83.2539,463.6956,88.01,472.32" style="stroke:#A80036;stroke-width:1.0;"/><!--MD5=[0b1ccbb062529ded3928f775cc3541cd]
link ogawayama to t_table--><path d="M258.82,646.5 C281.94,646.5 307.89,646.5 328.34,646.5 " fill="none" id="ogawayama-to-t_table" style="stroke:#A80036;stroke-width:1.0;"/><polygon fill="#A80036" points="333.42,646.5,324.42,642.5,328.42,646.5,324.42,650.5,333.42,646.5" style="stroke:#A80036;stroke-width:1.0;"/><text fill="#000000" font-family="sans-serif" font-size="13" lengthAdjust="spacing" textLength="38" x="277" y="639.9951">Create</text><!--MD5=[7b7568e7b3d3d33b5be17ec55672259a]
link admin to frontend--><path d="M79,87.66 C79,117.28 79,156.65 79,182.97 " fill="none" id="admin-to-frontend" style="stroke:#A80036;stroke-width:1.0;"/><polygon fill="#A80036" points="79,188.06,83,179.06,79,183.06,75,179.06,79,188.06" style="stroke:#A80036;stroke-width:1.0;"/><text fill="#000000" font-family="sans-serif" font-size="13" lengthAdjust="spacing" textLength="276" x="80" y="131.9951">CREATE TABLE t_table TABLESPACE Tsurugi</text><!--MD5=[725134c58ac48e76f7dc9724fb62703c]
link manager to ogawayama--><path d="M98.68,520.66 C104.85,535.6 113.98,555.05 125,570.5 C137.59,588.16 154.55,605.34 169.25,618.8 " fill="none" id="manager-to-ogawayama" style="stroke:#A80036;stroke-width:1.0;"/><polygon fill="#A80036" points="173.33,622.49,169.3526,613.48,169.6271,619.1302,163.9769,619.4047,173.33,622.49" style="stroke:#A80036;stroke-width:1.0;"/><text fill="#000000" font-family="sans-serif" font-size="13" lengthAdjust="spacing" textLength="54" x="126" y="566.9951">metadata</text><!--MD5=[cac2dd5fce51c8c44451d2cde01b0fb9]
link frontend to ogawayama--><path d="M125.62,225.37 C147.48,233.48 171.61,246.65 185,267.5 C256.79,379.26 225.14,550.34 208.68,617.27 " fill="none" id="frontend-to-ogawayama" style="stroke:#A80036;stroke-width:1.0;"/><polygon fill="#A80036" points="207.43,622.29,213.4934,614.5289,208.6427,617.4393,205.7323,612.5886,207.43,622.29" style="stroke:#A80036;stroke-width:1.0;"/><text fill="#000000" font-family="sans-serif" font-size="13" lengthAdjust="spacing" textLength="53" x="256" y="422.9951">message</text><text fill="#000000" font-family="sans-serif" font-size="13" lengthAdjust="spacing" textLength="105" x="230" y="439.3467">(CREATE TABLE)</text><!--MD5=[ce78cd1f6cb2b30c2aa60673e297be3a]
link ext_table to t_table--><path d="M365,237.65 C365,312.09 365,537.78 365,617.36 " fill="none" id="ext_table-to-t_table" style="stroke:#A80036;stroke-width:1.0;stroke-dasharray:7.0,7.0;"/><polygon fill="#A80036" points="365,622.83,369,613.83,365,617.83,361,613.83,365,622.83" style="stroke:#A80036;stroke-width:1.0;"/><text fill="#000000" font-family="sans-serif" font-size="13" lengthAdjust="spacing" textLength="45" x="366" y="430.9951">Point to</text><!--MD5=[a47ad1a92c9f169444b08f8e2cdd17d9]
@startuml create_table
actor admin

package PostgreSQL {
  component frontend
  entity "t_table(ext)" as ext_table
  database metadata
  database pg_catalog
  component manager

  frontend -> ext_table : CREATE EXTERNAL TABLE
  ext_table -> pg_catalog : metadata
  frontend - -> metadata : metadata including\naccess privileges
  metadata - -> manager
}

package OLTP as oltp {
  component ogawayama
  database t_table as t_table

  ogawayama -> t_table : Create
}

admin - -> frontend : CREATE TABLE t_table TABLESPACE Tsurugi
manager - -> ogawayama : metadata
frontend - -> ogawayama : message\n(CREATE TABLE)
ext_table ..> t_table : Point to
@enduml

PlantUML version 1.2021.01(Tue Feb 02 16:55:08 JST 2021)
(GPL source distribution)
Java Runtime: OpenJDK Runtime Environment
JVM: OpenJDK 64-Bit Server VM
Default Encoding: MS932
Language: ja
Country: JP
--></g></svg>