<?xml version="1.0" encoding="UTF-8" standalone="no"?><svg xmlns="http://www.w3.org/2000/svg" xmlns:xlink="http://www.w3.org/1999/xlink" contentScriptType="application/ecmascript" contentStyleType="text/css" height="619px" preserveAspectRatio="none" style="width:584px;height:619px;background:#FFFFFF;" version="1.1" viewBox="0 0 584 619" width="584px" zoomAndPan="magnify"><defs><filter height="300%" id="fdvu800w2ea8" width="300%" x="-1" y="-1"><feGaussianBlur result="blurOut" stdDeviation="2.0"/><feColorMatrix in="blurOut" result="blurOut2" type="matrix" values="0 0 0 0 0 0 0 0 0 0 0 0 0 0 0 0 0 0 .4 0"/><feOffset dx="4.0" dy="4.0" in="blurOut2" result="blurOut3"/><feBlend in="SourceGraphic" in2="blurOut3" mode="normal"/></filter></defs><g><!--MD5=[e9cbb9dd88ded91326c7c57ecf0f8dfc]
cluster PostgreSQL--><polygon fill="#FFFFFF" filter="url(#fdvu800w2ea8)" points="16,140.5,115,140.5,122,162.7969,377,162.7969,377,612.5,16,612.5,16,140.5" style="stroke:#000000;stroke-width:1.5;"/><line style="stroke:#000000;stroke-width:1.5;" x1="16" x2="122" y1="162.7969" y2="162.7969"/><text fill="#000000" font-family="sans-serif" font-size="14" font-weight="bold" lengthAdjust="spacing" textLength="93" x="20" y="155.4951">PostgreSQL</text><!--MD5=[46a063155973224c3fa27ddf1e3a8ae1]
cluster OLTP--><polygon fill="#FFFFFF" filter="url(#fdvu800w2ea8)" points="385,345.5,432,345.5,439,367.7969,523,367.7969,523,426.5,385,426.5,385,345.5" style="stroke:#000000;stroke-width:1.5;"/><line style="stroke:#000000;stroke-width:1.5;" x1="385" x2="439" y1="367.7969" y2="367.7969"/><text fill="#000000" font-family="sans-serif" font-size="14" font-weight="bold" lengthAdjust="spacing" textLength="41" x="389" y="360.4951">OLTP</text><!--MD5=[b1e3d2dcb3697de9e6328d1cb436cbc4]
entity frontend--><rect fill="#FEFECE" filter="url(#fdvu800w2ea8)" height="46.2969" style="stroke:#A80036;stroke-width:1.5;" width="99" x="180.5" y="167.5"/><rect fill="#FEFECE" height="10" style="stroke:#A80036;stroke-width:1.5;" width="15" x="259.5" y="172.5"/><rect fill="#FEFECE" height="2" style="stroke:#A80036;stroke-width:1.5;" width="4" x="257.5" y="174.5"/><rect fill="#FEFECE" height="2" style="stroke:#A80036;stroke-width:1.5;" width="4" x="257.5" y="178.5"/><text fill="#000000" font-family="sans-serif" font-size="14" lengthAdjust="spacing" textLength="59" x="195.5" y="200.4951">frontend</text><!--MD5=[2b2d5ad518bf6746de4ffeb5be0566d4]
entity manager--><rect fill="#FEFECE" filter="url(#fdvu800w2ea8)" height="46.2969" style="stroke:#A80036;stroke-width:1.5;" width="101" x="227.5" y="558.5"/><rect fill="#FEFECE" height="10" style="stroke:#A80036;stroke-width:1.5;" width="15" x="308.5" y="563.5"/><rect fill="#FEFECE" height="2" style="stroke:#A80036;stroke-width:1.5;" width="4" x="306.5" y="565.5"/><rect fill="#FEFECE" height="2" style="stroke:#A80036;stroke-width:1.5;" width="4" x="306.5" y="569.5"/><text fill="#000000" font-family="sans-serif" font-size="14" lengthAdjust="spacing" textLength="61" x="242.5" y="591.4951">manager</text><!--MD5=[0ef533f09b2843476631a5fe543a12d7]
entity ext_table--><ellipse cx="66" cy="387.5" fill="#FEFECE" filter="url(#fdvu800w2ea8)" rx="12" ry="12" style="stroke:#A80036;stroke-width:1.5;"/><line style="stroke:#A80036;stroke-width:1.5;" x1="54" x2="78" y1="401.5" y2="401.5"/><text fill="#000000" font-family="sans-serif" font-size="14" lengthAdjust="spacing" textLength="77" x="27.5" y="416.4951">t_table(ext)</text><!--MD5=[a0302e260767c3a151b9bc67457b16f8]
entity pg_catalog--><path d="M24.5,569 C24.5,559 72,559 72,559 C72,559 119.5,559 119.5,569 L119.5,594.2969 C119.5,604.2969 72,604.2969 72,604.2969 C72,604.2969 24.5,604.2969 24.5,594.2969 L24.5,569 " fill="#FEFECE" filter="url(#fdvu800w2ea8)" style="stroke:#000000;stroke-width:1.5;"/><path d="M24.5,569 C24.5,579 72,579 72,579 C72,579 119.5,579 119.5,569 " fill="none" style="stroke:#000000;stroke-width:1.5;"/><text fill="#000000" font-family="sans-serif" font-size="14" lengthAdjust="spacing" textLength="75" x="34.5" y="595.9951">pg_catalog</text><!--MD5=[87734a20c2eaadadc712f7efe19c3795]
entity metadata--><path d="M195.5,383 C195.5,373 238,373 238,373 C238,373 280.5,373 280.5,383 L280.5,408.2969 C280.5,418.2969 238,418.2969 238,418.2969 C238,418.2969 195.5,418.2969 195.5,408.2969 L195.5,383 " fill="#FEFECE" filter="url(#fdvu800w2ea8)" style="stroke:#000000;stroke-width:1.5;"/><path d="M195.5,383 C195.5,393 238,393 238,393 C238,393 280.5,393 280.5,383 " fill="none" style="stroke:#000000;stroke-width:1.5;"/><text fill="#000000" font-family="sans-serif" font-size="14" lengthAdjust="spacing" textLength="65" x="205.5" y="409.9951">metadata</text><!--MD5=[3617a1dcecd131945f386a894a6d65d9]
entity ogawayama--><rect fill="#FEFECE" filter="url(#fdvu800w2ea8)" height="46.2969" style="stroke:#A80036;stroke-width:1.5;" width="121" x="393.5" y="372.5"/><rect fill="#FEFECE" height="10" style="stroke:#A80036;stroke-width:1.5;" width="15" x="494.5" y="377.5"/><rect fill="#FEFECE" height="2" style="stroke:#A80036;stroke-width:1.5;" width="4" x="492.5" y="379.5"/><rect fill="#FEFECE" height="2" style="stroke:#A80036;stroke-width:1.5;" width="4" x="492.5" y="383.5"/><text fill="#000000" font-family="sans-serif" font-size="14" lengthAdjust="spacing" textLength="81" x="408.5" y="405.4951">ogawayama</text><!--MD5=[79a439086b036a57b90a01d7b2f8bbd1]
entity admin--><ellipse cx="230" cy="14" fill="#FEFECE" filter="url(#fdvu800w2ea8)" rx="8" ry="8" style="stroke:#A80036;stroke-width:1.5;"/><path d="M230,22 L230,49 M217,30 L243,30 M230,49 L217,64 M230,49 L243,64 " fill="none" filter="url(#fdvu800w2ea8)" style="stroke:#A80036;stroke-width:1.5;"/><text fill="#000000" font-family="sans-serif" font-size="14" lengthAdjust="spacing" textLength="42" x="209" y="82.4951">admin</text><!--MD5=[4067870adf98276f6cabac832cf6bd71]
link frontend to ext_table--><path d="M192.8438,213.6576 C170.7089,228.8672 143.2666,250.3716 124,274.5 C101.6508,302.4888 85.2261,340.5033 75.6709,366.4054 " fill="none" id="frontend-to-ext_table" style="stroke:#A80036;stroke-width:1.0;"/><polygon fill="#A80036" points="73.8517,371.4177,80.6822,364.3224,75.5576,366.7177,73.1622,361.593,73.8517,371.4177" style="stroke:#A80036;stroke-width:1.0;"/><text fill="#000000" font-family="sans-serif" font-size="13" lengthAdjust="spacing" textLength="99" x="125" y="295.0669">GRANT/REVOKE</text><!--MD5=[e25b590661d96e51952dc6bbfc439e98]
link ext_table to pg_catalog--><path d="M66.7844,419.8163 C67.8986,454.3552 69.9339,517.4508 71.1054,553.7677 " fill="none" id="ext_table-to-pg_catalog" style="stroke:#A80036;stroke-width:1.0;"/><polygon fill="#A80036" points="71.2718,558.9251,74.9791,549.8006,71.1104,553.9277,66.9833,550.0589,71.2718,558.9251" style="stroke:#A80036;stroke-width:1.0;"/><text fill="#000000" font-family="sans-serif" font-size="13" lengthAdjust="spacing" textLength="63" x="70" y="493.5669">metadata</text><!--MD5=[8f0a720853ed37f32da10868ca0b1939]
link frontend to metadata--><path d="M230.9022,213.6176 C232.3804,251.4981 235.3131,326.6492 236.907,367.4923 " fill="none" id="frontend-to-metadata" style="stroke:#A80036;stroke-width:1.0;"/><polygon fill="#A80036" points="237.1134,372.7797,240.7591,363.6304,236.9183,367.7835,232.7652,363.9427,237.1134,372.7797" style="stroke:#A80036;stroke-width:1.0;"/><text fill="#000000" font-family="sans-serif" font-size="13" lengthAdjust="spacing" textLength="95" x="256" y="287.5669">Update access</text><text fill="#000000" font-family="sans-serif" font-size="13" lengthAdjust="spacing" textLength="137" x="235" y="302.6997">privileges of the table</text><!--MD5=[7cf1da3d91892ef8487211adcc52537b]
link metadata to manager--><path d="M242.9048,418.3073 C250.2021,452.2398 263.9094,515.9787 271.862,552.9584 " fill="none" id="metadata-to-manager" style="stroke:#A80036;stroke-width:1.0;"/><polygon fill="#A80036" points="272.9922,558.2135,275.0104,548.5736,271.9409,553.3253,267.1893,550.2557,272.9922,558.2135" style="stroke:#A80036;stroke-width:1.0;"/><!--MD5=[7b7568e7b3d3d33b5be17ec55672259a]
link admin to frontend--><path d="M230,85.5299 C230,109.9734 230,140.4984 230,162.3196 " fill="none" id="admin-to-frontend" style="stroke:#A80036;stroke-width:1.0;"/><polygon fill="#A80036" points="230,167.3923,234,158.3923,230,162.3923,226,158.3923,230,167.3923" style="stroke:#A80036;stroke-width:1.0;"/><text fill="#000000" font-family="sans-serif" font-size="13" lengthAdjust="spacing" textLength="235" x="231" y="128.5669">GRANT/REVOKE privileges ON t_table</text><!--MD5=[cac2dd5fce51c8c44451d2cde01b0fb9]
link frontend to ogawayama--><path d="M279.7857,210.2062 C311.4658,224.5503 351.8642,246.3717 381,274.5 C408.7493,301.2897 429.9473,340.8096 442.1751,367.3204 " fill="none" id="frontend-to-ogawayama" style="stroke:#A80036;stroke-width:1.0;"/><polygon fill="#A80036" points="444.3534,372.1132,444.2708,362.2647,442.2845,367.5613,436.9878,365.575,444.3534,372.1132" style="stroke:#A80036;stroke-width:1.0;"/><text fill="#000000" font-family="sans-serif" font-size="13" lengthAdjust="spacing" textLength="168" x="408" y="295.0669">message(GRANT/REVOKE)</text><!--MD5=[f66ac5c38e9ad47d6ea49c19b522b722]
reverse link ogawayama to manager--><path d="M428.3875,422.5678 C393.75,459.1732 332.563,523.8368 299.934,558.3198 " fill="none" id="ogawayama-backto-manager" style="stroke:#A80036;stroke-width:1.0;"/><polygon fill="#A80036" points="432.0653,418.681,422.9741,422.4691,428.6288,422.3128,428.785,427.9675,432.0653,418.681" style="stroke:#A80036;stroke-width:1.0;"/><text fill="#000000" font-family="sans-serif" font-size="13" lengthAdjust="spacing" textLength="193" x="374" y="493.5669">metadata of database objects</text><!--MD5=[fd3a9fd022461f1a76955f887a110514]
@startuml grant_revoke
actor admin

package PostgreSQL {
  component frontend
  component manager
  entity "t_table(ext)" as ext_table
  database pg_catalog
  database metadata

  frontend - -> ext_table : GRANT/REVOKE
  ext_table - -> pg_catalog : metadata
  frontend - -> metadata : Update access\nprivileges of the table
  metadata - -> manager
}

package OLTP {
  component ogawayama
}

admin - -> frontend : GRANT/REVOKE privileges ON t_table
frontend - -> ogawayama : message(GRANT/REVOKE)
ogawayama <- - - manager : metadata of database objects
@enduml

PlantUML version 1.2021.7(Sun May 23 21:40:07 JST 2021)
(GPL source distribution)
Java Runtime: OpenJDK Runtime Environment
JVM: OpenJDK 64-Bit Server VM
Default Encoding: UTF-8
Language: en
Country: US
--></g></svg>