<?xml version="1.0" encoding="UTF-8" standalone="no"?><svg xmlns="http://www.w3.org/2000/svg" xmlns:xlink="http://www.w3.org/1999/xlink" contentScriptType="application/ecmascript" contentStyleType="text/css" height="730px" preserveAspectRatio="none" style="width:467px;height:730px;background:#FFFFFF;" version="1.1" viewBox="0 0 467 730" width="467px" zoomAndPan="magnify"><defs><filter height="300%" id="f77u9ziz91iui" width="300%" x="-1" y="-1"><feGaussianBlur result="blurOut" stdDeviation="2.0"/><feColorMatrix in="blurOut" result="blurOut2" type="matrix" values="0 0 0 0 0 0 0 0 0 0 0 0 0 0 0 0 0 0 .4 0"/><feOffset dx="4.0" dy="4.0" in="blurOut2" result="blurOut3"/><feBlend in="SourceGraphic" in2="blurOut3" mode="normal"/></filter></defs><g><!--MD5=[e9cbb9dd88ded91326c7c57ecf0f8dfc]
cluster PostgreSQL--><polygon fill="#FFFFFF" filter="url(#f77u9ziz91iui)" points="27,140.5,126,140.5,133,162.7969,450,162.7969,450,595.5,27,595.5,27,140.5" style="stroke:#000000;stroke-width:1.5;"/><line style="stroke:#000000;stroke-width:1.5;" x1="27" x2="133" y1="162.7969" y2="162.7969"/><text fill="#000000" font-family="sans-serif" font-size="14" font-weight="bold" lengthAdjust="spacing" textLength="93" x="31" y="155.4951">PostgreSQL</text><!--MD5=[07f0e25f731765bfa93aaa20542a266d]
cluster oltp--><polygon fill="#FFFFFF" filter="url(#f77u9ziz91iui)" points="16,642.5,63,642.5,70,664.7969,288,664.7969,288,723.5,16,723.5,16,642.5" style="stroke:#000000;stroke-width:1.5;"/><line style="stroke:#000000;stroke-width:1.5;" x1="16" x2="70" y1="664.7969" y2="664.7969"/><text fill="#000000" font-family="sans-serif" font-size="14" font-weight="bold" lengthAdjust="spacing" textLength="41" x="20" y="657.4951">OLTP</text><!--MD5=[f7991d5f1ff7b3cd7b1e7cf630944cdf]
entity t_view--><ellipse cx="63" cy="183.5" fill="#FEFECE" filter="url(#f77u9ziz91iui)" rx="12" ry="12" style="stroke:#A80036;stroke-width:1.5;"/><line style="stroke:#A80036;stroke-width:1.5;" x1="51" x2="75" y1="197.5" y2="197.5"/><text fill="#000000" font-family="sans-serif" font-size="14" lengthAdjust="spacing" textLength="42" x="42" y="212.4951">t_view</text><!--MD5=[0ef533f09b2843476631a5fe543a12d7]
entity ext_table--><ellipse cx="85" cy="370.5" fill="#FEFECE" filter="url(#f77u9ziz91iui)" rx="12" ry="12" style="stroke:#A80036;stroke-width:1.5;"/><line style="stroke:#A80036;stroke-width:1.5;" x1="73" x2="97" y1="384.5" y2="384.5"/><text fill="#000000" font-family="sans-serif" font-size="14" lengthAdjust="spacing" textLength="77" x="46.5" y="399.4951">t_table(ext)</text><!--MD5=[f25decad58752b05205e78abebe8791f]
entity fdw--><rect fill="#FEFECE" filter="url(#f77u9ziz91iui)" height="46.2969" style="stroke:#A80036;stroke-width:1.5;" width="72" x="49" y="541.5"/><rect fill="#FEFECE" height="10" style="stroke:#A80036;stroke-width:1.5;" width="15" x="101" y="546.5"/><rect fill="#FEFECE" height="2" style="stroke:#A80036;stroke-width:1.5;" width="4" x="99" y="548.5"/><rect fill="#FEFECE" height="2" style="stroke:#A80036;stroke-width:1.5;" width="4" x="99" y="552.5"/><text fill="#000000" font-family="sans-serif" font-size="14" lengthAdjust="spacing" textLength="32" x="64" y="574.4951">FDW</text><!--MD5=[a0302e260767c3a151b9bc67457b16f8]
entity pg_catalog--><path d="M282.5,179 C282.5,169 330,169 330,169 C330,169 377.5,169 377.5,179 L377.5,204.2969 C377.5,214.2969 330,214.2969 330,214.2969 C330,214.2969 282.5,214.2969 282.5,204.2969 L282.5,179 " fill="#FEFECE" filter="url(#f77u9ziz91iui)" style="stroke:#000000;stroke-width:1.5;"/><path d="M282.5,179 C282.5,189 330,189 330,189 C330,189 377.5,189 377.5,179 " fill="none" style="stroke:#000000;stroke-width:1.5;"/><text fill="#000000" font-family="sans-serif" font-size="14" lengthAdjust="spacing" textLength="75" x="292.5" y="205.9951">pg_catalog</text><!--MD5=[3617a1dcecd131945f386a894a6d65d9]
entity ogawayama--><rect fill="#FEFECE" filter="url(#f77u9ziz91iui)" height="46.2969" style="stroke:#A80036;stroke-width:1.5;" width="121" x="24.5" y="669.5"/><rect fill="#FEFECE" height="10" style="stroke:#A80036;stroke-width:1.5;" width="15" x="125.5" y="674.5"/><rect fill="#FEFECE" height="2" style="stroke:#A80036;stroke-width:1.5;" width="4" x="123.5" y="676.5"/><rect fill="#FEFECE" height="2" style="stroke:#A80036;stroke-width:1.5;" width="4" x="123.5" y="680.5"/><text fill="#000000" font-family="sans-serif" font-size="14" lengthAdjust="spacing" textLength="81" x="39.5" y="702.4951">ogawayama</text><!--MD5=[f885883bf97652c4492f5888ce4a5716]
entity t_table--><path d="M214,680 C214,670 247,670 247,670 C247,670 280,670 280,680 L280,705.2969 C280,715.2969 247,715.2969 247,715.2969 C247,715.2969 214,715.2969 214,705.2969 L214,680 " fill="#FEFECE" filter="url(#f77u9ziz91iui)" style="stroke:#000000;stroke-width:1.5;"/><path d="M214,680 C214,690 247,690 247,690 C247,690 280,690 280,680 " fill="none" style="stroke:#000000;stroke-width:1.5;"/><text fill="#000000" font-family="sans-serif" font-size="14" lengthAdjust="spacing" textLength="46" x="224" y="706.9951">t_table</text><!--MD5=[8fc3522a43f8c7199df5e09e5bb0188e]
entity user--><ellipse cx="63" cy="14" fill="#FEFECE" filter="url(#f77u9ziz91iui)" rx="8" ry="8" style="stroke:#A80036;stroke-width:1.5;"/><path d="M63,22 L63,49 M50,30 L76,30 M63,49 L50,64 M63,49 L76,64 " fill="none" filter="url(#f77u9ziz91iui)" style="stroke:#A80036;stroke-width:1.5;"/><text fill="#000000" font-family="sans-serif" font-size="14" lengthAdjust="spacing" textLength="31" x="47.5" y="82.4951">user</text><!--MD5=[102edd712dfffddc375fe5ebb4f394c6]
link t_view to ext_table--><path d="M65.8311,215.5642 C69.8463,249.6934 77.1882,312.0998 81.5273,348.982 " fill="none" id="t_view-to-ext_table" style="stroke:#A80036;stroke-width:1.0;"/><polygon fill="#A80036" points="82.1449,354.232,85.0658,344.8262,81.5606,349.2663,77.1206,345.7611,82.1449,354.232" style="stroke:#A80036;stroke-width:1.0;"/><text fill="#000000" font-family="sans-serif" font-size="13" lengthAdjust="spacing" textLength="136" x="75" y="289.5669">SELECT FROM t_table</text><!--MD5=[e60bf614408567617223929f1faa631f]
link ext_table to fdw--><path d="M85,402.8163 C85,437.1675 85,499.7658 85,536.1733 " fill="none" id="ext_table-to-fdw" style="stroke:#A80036;stroke-width:1.0;"/><polygon fill="#A80036" points="85,541.3483,89,532.3483,85,536.3483,81,532.3483,85,541.3483" style="stroke:#A80036;stroke-width:1.0;"/><text fill="#000000" font-family="sans-serif" font-size="13" lengthAdjust="spacing" textLength="149" x="86" y="476.5669">Scan the table on OLTP</text><!--MD5=[104d30eb53c6e461744c2920cfb36496]
link t_view to pg_catalog--><path d="M84.3984,191.5 C125.8401,191.5 218.1445,191.5 277.0444,191.5 " fill="none" id="t_view-to-pg_catalog" style="stroke:#A80036;stroke-width:1.0;"/><polygon fill="#A80036" points="282.2838,191.5,273.2838,187.5,277.2838,191.5,273.2838,195.5,282.2838,191.5" style="stroke:#A80036;stroke-width:1.0;"/><text fill="#000000" font-family="sans-serif" font-size="13" lengthAdjust="spacing" textLength="162" x="102.25" y="184.5669">Confirm access privileges</text><!--MD5=[0bf708b540673187c9c88aa38a469cba]
reverse link pg_catalog to ext_table--><path d="M304.2902,217.9304 C282.7399,239.4322 250.6583,269.9603 220,293.5 C189.0254,317.2826 151.2176,340.6528 123.5003,356.8501 " fill="none" id="pg_catalog-backto-ext_table" style="stroke:#A80036;stroke-width:1.0;"/><polygon fill="#A80036" points="307.9223,214.2924,298.7328,217.8355,304.3897,217.8309,304.3944,223.4877,307.9223,214.2924" style="stroke:#A80036;stroke-width:1.0;"/><text fill="#000000" font-family="sans-serif" font-size="13" lengthAdjust="spacing" textLength="162" x="240" y="289.5669">Confirm access privileges</text><!--MD5=[0b1ccbb062529ded3928f775cc3541cd]
link ogawayama to t_table--><path d="M145.7837,692.5 C166.7926,692.5 189.7399,692.5 208.4654,692.5 " fill="none" id="ogawayama-to-t_table" style="stroke:#A80036;stroke-width:1.0;"/><polygon fill="#A80036" points="213.6299,692.5,204.6299,688.5,208.6299,692.5,204.6299,696.5,213.6299,692.5" style="stroke:#A80036;stroke-width:1.0;"/><text fill="#000000" font-family="sans-serif" font-size="13" lengthAdjust="spacing" textLength="32" x="163.75" y="685.5669">Scan</text><!--MD5=[30f23ba568becac92ffefcc7fcc0b9e1]
link user to t_view--><path d="M63,85.8084 C63,110.1064 63,140.3727 63,162.2821 " fill="none" id="user-to-t_view" style="stroke:#A80036;stroke-width:1.0;"/><polygon fill="#A80036" points="63,167.3829,67,158.3829,63,162.3829,59,158.3829,63,167.3829" style="stroke:#A80036;stroke-width:1.0;"/><text fill="#000000" font-family="sans-serif" font-size="13" lengthAdjust="spacing" textLength="131" x="64" y="128.5669">SELECT FROM t_view</text><!--MD5=[1074ee772f66a71e76416c045469f633]
link fdw to ogawayama--><path d="M85,587.6798 C85,609.2466 85,641.4274 85,664.4377 " fill="none" id="fdw-to-ogawayama" style="stroke:#A80036;stroke-width:1.0;"/><polygon fill="#A80036" points="85,669.4926,89,660.4926,85,664.4926,81,660.4926,85,669.4926" style="stroke:#A80036;stroke-width:1.0;"/><text fill="#000000" font-family="sans-serif" font-size="13" lengthAdjust="spacing" textLength="136" x="86" y="630.5669">SELECT FROM t_table</text><!--MD5=[4a0acb012361a88fa9dfac7b47a28acb]
@startuml select_view
actor user

package PostgreSQL {
  entity t_view
  entity "t_table(ext)" as ext_table
  component "FDW" as fdw
  database pg_catalog

  t_view - -> ext_table : SELECT FROM t_table
  ext_table - -> fdw : Scan the table on OLTP
  t_view -> pg_catalog : Confirm access privileges
  ext_table -up-> pg_catalog :  Confirm access privileges
}

package OLTP as oltp {
  component ogawayama
  database t_table as t_table

  ogawayama -> t_table : Scan
}

user - -> t_view : SELECT FROM t_view
fdw - -> ogawayama : SELECT FROM t_table
@enduml

PlantUML version 1.2021.7(Sun May 23 21:40:07 JST 2021)
(GPL source distribution)
Java Runtime: OpenJDK Runtime Environment
JVM: OpenJDK 64-Bit Server VM
Default Encoding: UTF-8
Language: en
Country: US
--></g></svg>