<?xml version="1.0" encoding="UTF-8" standalone="no"?><svg xmlns="http://www.w3.org/2000/svg" xmlns:xlink="http://www.w3.org/1999/xlink" contentScriptType="application/ecmascript" contentStyleType="text/css" height="1039px" preserveAspectRatio="none" style="width:1692px;height:1039px;background:#FFFFFF;" version="1.1" viewBox="0 0 1692 1039" width="1692px" zoomAndPan="magnify"><defs><filter height="300%" id="f1fqu1uk0rqzgf" width="300%" x="-1" y="-1"><feGaussianBlur result="blurOut" stdDeviation="2.0"/><feColorMatrix in="blurOut" result="blurOut2" type="matrix" values="0 0 0 0 0 0 0 0 0 0 0 0 0 0 0 0 0 0 .4 0"/><feOffset dx="4.0" dy="4.0" in="blurOut2" result="blurOut3"/><feBlend in="SourceGraphic" in2="blurOut3" mode="normal"/></filter></defs><g><!--MD5=[23cbaadc18b1780d966e07254adaec4d]
cluster frontend--><polygon fill="#FFFFFF" filter="url(#f1fqu1uk0rqzgf)" points="581,6,648,6,655,29.6094,1201,29.6094,1201,322,581,322,581,6" style="stroke:#000000;stroke-width:1.5;"/><line style="stroke:#000000;stroke-width:1.5;" x1="581" x2="655" y1="29.6094" y2="29.6094"/><text fill="#000000" font-family="sans-serif" font-size="14" font-weight="bold" lengthAdjust="spacing" textLength="61" x="585" y="22.5332">frontend</text><!--MD5=[10ad930ee69173cd9d3aa754f8a8a48b]
cluster manager--><polygon fill="#FFFFFF" filter="url(#f1fqu1uk0rqzgf)" points="16,346,83,346,90,369.6094,1675,369.6094,1675,1032,16,1032,16,346" style="stroke:#000000;stroke-width:1.5;"/><line style="stroke:#000000;stroke-width:1.5;" x1="16" x2="90" y1="369.6094" y2="369.6094"/><text fill="#000000" font-family="sans-serif" font-size="14" font-weight="bold" lengthAdjust="spacing" textLength="61" x="20" y="362.5332">manager</text><!--MD5=[ac1f6f2508ba84cffb478b8f295f3168]
cluster metadata--><polygon fill="#FFFFFF" filter="url(#f1fqu1uk0rqzgf)" points="40,390,110,390,117,413.6094,492,413.6094,492,792,40,792,40,390" style="stroke:#000000;stroke-width:1.5;"/><line style="stroke:#000000;stroke-width:1.5;" x1="40" x2="117" y1="413.6094" y2="413.6094"/><text fill="#000000" font-family="sans-serif" font-size="14" font-weight="bold" lengthAdjust="spacing" textLength="64" x="44" y="406.5332">metadata</text><!--MD5=[88851b7b27e529b39ff5d3ce6ae79142]
cluster message--><polygon fill="#FFFFFF" filter="url(#f1fqu1uk0rqzgf)" points="516,431.5,585,431.5,592,455.1094,1651,455.1094,1651,1008,516,1008,516,431.5" style="stroke:#000000;stroke-width:1.5;"/><line style="stroke:#000000;stroke-width:1.5;" x1="516" x2="592" y1="455.1094" y2="455.1094"/><text fill="#000000" font-family="sans-serif" font-size="14" font-weight="bold" lengthAdjust="spacing" textLength="63" x="520" y="448.0332">message</text><!--MD5=[37a5d98da857897fb534a765cc1849d1]
class alt_utility--><rect codeLine="2" fill="#FEFECE" filter="url(#f1fqu1uk0rqzgf)" height="48" id="alt_utility" style="stroke:#A80036;stroke-width:1.5;" width="79" x="860.5" y="42"/><ellipse cx="875.5" cy="58" fill="#ADD1B2" rx="11" ry="11" style="stroke:#A80036;stroke-width:1.0;"/><path d="M878.2031,63.4375 Q877.2813,64.3594 875.0156,64.3594 Q873.75,64.3594 872.8281,63.4375 Q871.1719,61.7813 871.1719,58.25 Q871.1719,54.1406 872.9531,52.3438 Q873.8906,51.4219 875.0781,51.4219 Q877.3438,51.4219 878.0781,52.1406 Q879.4688,53.5469 879.4063,55.9375 L876.9375,55.9375 Q876.875,53.8125 876.1406,53.0781 Q875.75,52.6719 875.0781,52.6719 Q875.0781,52.6719 875.0156,53.1406 Q873.6875,54.4688 873.6875,58.125 Q873.6875,61.3125 874.8281,62.4375 Q875.3594,62.9688 875.3594,62.9688 Q875.6094,62.9688 876.1406,62.4375 Q876.8125,61.7813 876.875,59.3906 L879.4688,59.3906 Q879.2656,62.375 878.2031,63.4375 Z " fill="#000000"/><text fill="#000000" font-family="sans-serif" font-size="12" lengthAdjust="spacing" textLength="47" x="889.5" y="62.9102">alt_utility</text><line style="stroke:#A80036;stroke-width:1.5;" x1="861.5" x2="938.5" y1="74" y2="74"/><line style="stroke:#A80036;stroke-width:1.5;" x1="861.5" x2="938.5" y1="82" y2="82"/><!--MD5=[ad76435eb1cc4f67f05dd0c6382a4567]
class create_role--><rect codeLine="4" fill="#FEFECE" filter="url(#f1fqu1uk0rqzgf)" height="48" id="create_role" style="stroke:#A80036;stroke-width:1.5;" width="94" x="728" y="150"/><ellipse cx="743" cy="166" fill="#ADD1B2" rx="11" ry="11" style="stroke:#A80036;stroke-width:1.0;"/><path d="M745.7031,171.4375 Q744.7813,172.3594 742.5156,172.3594 Q741.25,172.3594 740.3281,171.4375 Q738.6719,169.7813 738.6719,166.25 Q738.6719,162.1406 740.4531,160.3438 Q741.3906,159.4219 742.5781,159.4219 Q744.8438,159.4219 745.5781,160.1406 Q746.9688,161.5469 746.9063,163.9375 L744.4375,163.9375 Q744.375,161.8125 743.6406,161.0781 Q743.25,160.6719 742.5781,160.6719 Q742.5781,160.6719 742.5156,161.1406 Q741.1875,162.4688 741.1875,166.125 Q741.1875,169.3125 742.3281,170.4375 Q742.8594,170.9688 742.8594,170.9688 Q743.1094,170.9688 743.6406,170.4375 Q744.3125,169.7813 744.375,167.3906 L746.9688,167.3906 Q746.7656,170.375 745.7031,171.4375 Z " fill="#000000"/><text fill="#000000" font-family="sans-serif" font-size="12" lengthAdjust="spacing" textLength="62" x="757" y="170.9102">create_role</text><line style="stroke:#A80036;stroke-width:1.5;" x1="729" x2="821" y1="182" y2="182"/><line style="stroke:#A80036;stroke-width:1.5;" x1="729" x2="821" y1="190" y2="190"/><!--MD5=[c73f50ed6c899a08225279848393f108]
class drop_role--><rect codeLine="5" fill="#FEFECE" filter="url(#f1fqu1uk0rqzgf)" height="48" id="drop_role" style="stroke:#A80036;stroke-width:1.5;" width="85" x="857.5" y="150"/><ellipse cx="872.5" cy="166" fill="#ADD1B2" rx="11" ry="11" style="stroke:#A80036;stroke-width:1.0;"/><path d="M875.2031,171.4375 Q874.2813,172.3594 872.0156,172.3594 Q870.75,172.3594 869.8281,171.4375 Q868.1719,169.7813 868.1719,166.25 Q868.1719,162.1406 869.9531,160.3438 Q870.8906,159.4219 872.0781,159.4219 Q874.3438,159.4219 875.0781,160.1406 Q876.4688,161.5469 876.4063,163.9375 L873.9375,163.9375 Q873.875,161.8125 873.1406,161.0781 Q872.75,160.6719 872.0781,160.6719 Q872.0781,160.6719 872.0156,161.1406 Q870.6875,162.4688 870.6875,166.125 Q870.6875,169.3125 871.8281,170.4375 Q872.3594,170.9688 872.3594,170.9688 Q872.6094,170.9688 873.1406,170.4375 Q873.8125,169.7813 873.875,167.3906 L876.4688,167.3906 Q876.2656,170.375 875.2031,171.4375 Z " fill="#000000"/><text fill="#000000" font-family="sans-serif" font-size="12" lengthAdjust="spacing" textLength="53" x="886.5" y="170.9102">drop_role</text><line style="stroke:#A80036;stroke-width:1.5;" x1="858.5" x2="941.5" y1="182" y2="182"/><line style="stroke:#A80036;stroke-width:1.5;" x1="858.5" x2="941.5" y1="190" y2="190"/><!--MD5=[8cee6e065a95133d8187e230f4640c47]
class alter_role--><rect codeLine="6" fill="#FEFECE" filter="url(#f1fqu1uk0rqzgf)" height="48" id="alter_role" style="stroke:#A80036;stroke-width:1.5;" width="84" x="978" y="150"/><ellipse cx="993" cy="166" fill="#ADD1B2" rx="11" ry="11" style="stroke:#A80036;stroke-width:1.0;"/><path d="M995.7031,171.4375 Q994.7813,172.3594 992.5156,172.3594 Q991.25,172.3594 990.3281,171.4375 Q988.6719,169.7813 988.6719,166.25 Q988.6719,162.1406 990.4531,160.3438 Q991.3906,159.4219 992.5781,159.4219 Q994.8438,159.4219 995.5781,160.1406 Q996.9688,161.5469 996.9063,163.9375 L994.4375,163.9375 Q994.375,161.8125 993.6406,161.0781 Q993.25,160.6719 992.5781,160.6719 Q992.5781,160.6719 992.5156,161.1406 Q991.1875,162.4688 991.1875,166.125 Q991.1875,169.3125 992.3281,170.4375 Q992.8594,170.9688 992.8594,170.9688 Q993.1094,170.9688 993.6406,170.4375 Q994.3125,169.7813 994.375,167.3906 L996.9688,167.3906 Q996.7656,170.375 995.7031,171.4375 Z " fill="#000000"/><text fill="#000000" font-family="sans-serif" font-size="12" lengthAdjust="spacing" textLength="52" x="1007" y="170.9102">alter_role</text><line style="stroke:#A80036;stroke-width:1.5;" x1="979" x2="1061" y1="182" y2="182"/><line style="stroke:#A80036;stroke-width:1.5;" x1="979" x2="1061" y1="190" y2="190"/><!--MD5=[5af47c09d0a85ff991bdb13b688ff1f8]
class grant_role--><rect codeLine="7" fill="#FEFECE" filter="url(#f1fqu1uk0rqzgf)" height="48" id="grant_role" style="stroke:#A80036;stroke-width:1.5;" width="88" x="1097" y="150"/><ellipse cx="1112" cy="166" fill="#ADD1B2" rx="11" ry="11" style="stroke:#A80036;stroke-width:1.0;"/><path d="M1114.7031,171.4375 Q1113.7813,172.3594 1111.5156,172.3594 Q1110.25,172.3594 1109.3281,171.4375 Q1107.6719,169.7813 1107.6719,166.25 Q1107.6719,162.1406 1109.4531,160.3438 Q1110.3906,159.4219 1111.5781,159.4219 Q1113.8438,159.4219 1114.5781,160.1406 Q1115.9688,161.5469 1115.9063,163.9375 L1113.4375,163.9375 Q1113.375,161.8125 1112.6406,161.0781 Q1112.25,160.6719 1111.5781,160.6719 Q1111.5781,160.6719 1111.5156,161.1406 Q1110.1875,162.4688 1110.1875,166.125 Q1110.1875,169.3125 1111.3281,170.4375 Q1111.8594,170.9688 1111.8594,170.9688 Q1112.1094,170.9688 1112.6406,170.4375 Q1113.3125,169.7813 1113.375,167.3906 L1115.9688,167.3906 Q1115.7656,170.375 1114.7031,171.4375 Z " fill="#000000"/><text fill="#000000" font-family="sans-serif" font-size="12" lengthAdjust="spacing" textLength="56" x="1126" y="170.9102">grant_role</text><line style="stroke:#A80036;stroke-width:1.5;" x1="1098" x2="1184" y1="182" y2="182"/><line style="stroke:#A80036;stroke-width:1.5;" x1="1098" x2="1184" y1="190" y2="190"/><!--MD5=[0a8fed50f02a5afcac1df1dec5a330cb]
class revoke_role--><rect codeLine="8" fill="#FEFECE" filter="url(#f1fqu1uk0rqzgf)" height="48" id="revoke_role" style="stroke:#A80036;stroke-width:1.5;" width="96" x="597" y="150"/><ellipse cx="612" cy="166" fill="#ADD1B2" rx="11" ry="11" style="stroke:#A80036;stroke-width:1.0;"/><path d="M614.7031,171.4375 Q613.7813,172.3594 611.5156,172.3594 Q610.25,172.3594 609.3281,171.4375 Q607.6719,169.7813 607.6719,166.25 Q607.6719,162.1406 609.4531,160.3438 Q610.3906,159.4219 611.5781,159.4219 Q613.8438,159.4219 614.5781,160.1406 Q615.9688,161.5469 615.9063,163.9375 L613.4375,163.9375 Q613.375,161.8125 612.6406,161.0781 Q612.25,160.6719 611.5781,160.6719 Q611.5781,160.6719 611.5156,161.1406 Q610.1875,162.4688 610.1875,166.125 Q610.1875,169.3125 611.3281,170.4375 Q611.8594,170.9688 611.8594,170.9688 Q612.1094,170.9688 612.6406,170.4375 Q613.3125,169.7813 613.375,167.3906 L615.9688,167.3906 Q615.7656,170.375 614.7031,171.4375 Z " fill="#000000"/><text fill="#000000" font-family="sans-serif" font-size="12" lengthAdjust="spacing" textLength="64" x="626" y="170.9102">revoke_role</text><line style="stroke:#A80036;stroke-width:1.5;" x1="598" x2="692" y1="182" y2="182"/><line style="stroke:#A80036;stroke-width:1.5;" x1="598" x2="692" y1="190" y2="190"/><!--MD5=[c19f00050520408713bf65a4fca3b479]
class rolecmd--><rect codeLine="11" fill="#FEFECE" filter="url(#f1fqu1uk0rqzgf)" height="48" id="rolecmd" style="stroke:#A80036;stroke-width:1.5;" width="77" x="602.5" y="258"/><ellipse cx="617.5" cy="274" fill="#ADD1B2" rx="11" ry="11" style="stroke:#A80036;stroke-width:1.0;"/><path d="M620.2031,279.4375 Q619.2813,280.3594 617.0156,280.3594 Q615.75,280.3594 614.8281,279.4375 Q613.1719,277.7813 613.1719,274.25 Q613.1719,270.1406 614.9531,268.3438 Q615.8906,267.4219 617.0781,267.4219 Q619.3438,267.4219 620.0781,268.1406 Q621.4688,269.5469 621.4063,271.9375 L618.9375,271.9375 Q618.875,269.8125 618.1406,269.0781 Q617.75,268.6719 617.0781,268.6719 Q617.0781,268.6719 617.0156,269.1406 Q615.6875,270.4688 615.6875,274.125 Q615.6875,277.3125 616.8281,278.4375 Q617.3594,278.9688 617.3594,278.9688 Q617.6094,278.9688 618.1406,278.4375 Q618.8125,277.7813 618.875,275.3906 L621.4688,275.3906 Q621.2656,278.375 620.2031,279.4375 Z " fill="#000000"/><text fill="#000000" font-family="sans-serif" font-size="12" lengthAdjust="spacing" textLength="45" x="631.5" y="278.9102">rolecmd</text><line style="stroke:#A80036;stroke-width:1.5;" x1="603.5" x2="678.5" y1="290" y2="290"/><line style="stroke:#A80036;stroke-width:1.5;" x1="603.5" x2="678.5" y1="298" y2="298"/><!--MD5=[7d2c4ae7970c32f414f93e7b18676929]
class Metadata--><rect codeLine="30" fill="#FEFECE" filter="url(#f1fqu1uk0rqzgf)" height="144.8516" id="Metadata" style="stroke:#A80036;stroke-width:1.5;" width="401" x="65.5" y="631"/><ellipse cx="236.75" cy="647" fill="#A9DCDF" rx="11" ry="11" style="stroke:#A80036;stroke-width:1.0;"/><path d="M234.6094,652.8594 L232.0156,652.8594 L235.3438,639.9219 L237.6719,639.9219 L240.9844,652.8594 L238.3906,652.8594 L237.4688,649.0781 L235.5469,649.0781 L234.6094,652.8594 Z M236.0625,643.4375 L236.0625,643.4375 L235.875,647.8125 L237.125,647.8125 L236.0625,643.4375 Z " fill="#000000"/><text fill="#000000" font-family="sans-serif" font-size="12" font-style="italic" lengthAdjust="spacing" textLength="50" x="257.25" y="651.9102">Metadata</text><line style="stroke:#A80036;stroke-width:1.5;" x1="66.5" x2="465.5" y1="663" y2="663"/><line style="stroke:#A80036;stroke-width:1.5;" x1="66.5" x2="465.5" y1="671" y2="671"/><text fill="#000000" font-family="sans-serif" font-size="11" lengthAdjust="spacing" textLength="73" x="71.5" y="686.4189">ErrorCode init()</text><text fill="#000000" font-family="sans-serif" font-size="11" lengthAdjust="spacing" textLength="247" x="71.5" y="700.2549">ErrorCode add(boost::property_tree::ptree&amp; object)</text><text fill="#000000" font-family="sans-serif" font-size="11" lengthAdjust="spacing" textLength="363" x="71.5" y="714.0908">ErrorCode add(boost::property_tree::ptree&amp; object,ObjectIdType* object_id)</text><text fill="#000000" font-family="sans-serif" font-size="11" lengthAdjust="spacing" textLength="335" x="71.5" y="727.9268">ErrorCode remove(const char* object_name, ObjectIdType* object_id)</text><text fill="#000000" font-family="sans-serif" font-size="11" lengthAdjust="spacing" textLength="235" x="71.5" y="741.7627">ErrorCode remove(const ObjectIdType object_id)</text><text fill="#000000" font-family="sans-serif" font-size="11" lengthAdjust="spacing" textLength="389" x="71.5" y="755.5986">ErrorCode get(std::string_view object_name,boost::property_tree::ptree&amp; object)</text><text fill="#000000" font-family="sans-serif" font-size="11" lengthAdjust="spacing" textLength="386" x="71.5" y="769.4346">ErrorCode get(const ObjectIdType object_id,boost::property_tree::ptree&amp; object)</text><!--MD5=[d880429f06877f77d04df3530938df96]
class Roles--><rect codeLine="39" fill="#FEFECE" filter="url(#f1fqu1uk0rqzgf)" height="144.8516" id="Roles" style="stroke:#A80036;stroke-width:1.5;" width="419" x="56.5" y="426"/><ellipse cx="245.25" cy="442" fill="#ADD1B2" rx="11" ry="11" style="stroke:#A80036;stroke-width:1.0;"/><path d="M247.9531,447.4375 Q247.0313,448.3594 244.7656,448.3594 Q243.5,448.3594 242.5781,447.4375 Q240.9219,445.7813 240.9219,442.25 Q240.9219,438.1406 242.7031,436.3438 Q243.6406,435.4219 244.8281,435.4219 Q247.0938,435.4219 247.8281,436.1406 Q249.2188,437.5469 249.1563,439.9375 L246.6875,439.9375 Q246.625,437.8125 245.8906,437.0781 Q245.5,436.6719 244.8281,436.6719 Q244.8281,436.6719 244.7656,437.1406 Q243.4375,438.4688 243.4375,442.125 Q243.4375,445.3125 244.5781,446.4375 Q245.1094,446.9688 245.1094,446.9688 Q245.3594,446.9688 245.8906,446.4375 Q246.5625,445.7813 246.625,443.3906 L249.2188,443.3906 Q249.0156,446.375 247.9531,447.4375 Z " fill="#000000"/><text fill="#000000" font-family="sans-serif" font-size="12" lengthAdjust="spacing" textLength="33" x="265.75" y="446.9102">Roles</text><line style="stroke:#A80036;stroke-width:1.5;" x1="57.5" x2="474.5" y1="458" y2="458"/><line style="stroke:#A80036;stroke-width:1.5;" x1="57.5" x2="474.5" y1="466" y2="466"/><text fill="#000000" font-family="sans-serif" font-size="11" lengthAdjust="spacing" textLength="73" x="62.5" y="481.4189">ErrorCode init()</text><text fill="#000000" font-family="sans-serif" font-size="11" lengthAdjust="spacing" textLength="407" x="62.5" y="495.2549">ErrorCode update(std::string_view object_name,boost::property_tree::ptree&amp; object)</text><text fill="#000000" font-family="sans-serif" font-size="11" lengthAdjust="spacing" textLength="377" x="62.5" y="509.0908">ErrorCode update(ObjectIdType object_id, boost::property_tree::ptree&amp; object)</text><text fill="#000000" font-family="sans-serif" font-size="11" lengthAdjust="spacing" textLength="335" x="62.5" y="522.9268">ErrorCode remove(const char* object_name, ObjectIdType* object_id)</text><text fill="#000000" font-family="sans-serif" font-size="11" lengthAdjust="spacing" textLength="235" x="62.5" y="536.7627">ErrorCode remove(const ObjectIdType object_id)</text><text fill="#000000" font-family="sans-serif" font-size="11" lengthAdjust="spacing" textLength="389" x="62.5" y="550.5986">ErrorCode get(std::string_view object_name,boost::property_tree::ptree&amp; object)</text><text fill="#000000" font-family="sans-serif" font-size="11" lengthAdjust="spacing" textLength="386" x="62.5" y="564.4346">ErrorCode get(const ObjectIdType object_id,boost::property_tree::ptree&amp; object)</text><!--MD5=[08e7926a162563cf53e1b0cf32838fd3]
class MessageBroker--><rect codeLine="51" fill="#FEFECE" filter="url(#f1fqu1uk0rqzgf)" height="61.8359" id="MessageBroker" style="stroke:#A80036;stroke-width:1.5;" width="223" x="1411.5" y="467.5"/><ellipse cx="1475.25" cy="483.5" fill="#ADD1B2" rx="11" ry="11" style="stroke:#A80036;stroke-width:1.0;"/><path d="M1477.9531,488.9375 Q1477.0313,489.8594 1474.7656,489.8594 Q1473.5,489.8594 1472.5781,488.9375 Q1470.9219,487.2813 1470.9219,483.75 Q1470.9219,479.6406 1472.7031,477.8438 Q1473.6406,476.9219 1474.8281,476.9219 Q1477.0938,476.9219 1477.8281,477.6406 Q1479.2188,479.0469 1479.1563,481.4375 L1476.6875,481.4375 Q1476.625,479.3125 1475.8906,478.5781 Q1475.5,478.1719 1474.8281,478.1719 Q1474.8281,478.1719 1474.7656,478.6406 Q1473.4375,479.9688 1473.4375,483.625 Q1473.4375,486.8125 1474.5781,487.9375 Q1475.1094,488.4688 1475.1094,488.4688 Q1475.3594,488.4688 1475.8906,487.9375 Q1476.5625,487.2813 1476.625,484.8906 L1479.2188,484.8906 Q1479.0156,487.875 1477.9531,488.9375 Z " fill="#000000"/><text fill="#000000" font-family="sans-serif" font-size="12" lengthAdjust="spacing" textLength="87" x="1495.75" y="488.4102">MessageBroker</text><line style="stroke:#A80036;stroke-width:1.5;" x1="1412.5" x2="1633.5" y1="499.5" y2="499.5"/><line style="stroke:#A80036;stroke-width:1.5;" x1="1412.5" x2="1633.5" y1="507.5" y2="507.5"/><text fill="#000000" font-family="sans-serif" font-size="11" lengthAdjust="spacing" textLength="211" x="1417.5" y="522.9189">Status send_message(Message *message)</text><!--MD5=[e3d83ec5fd90ea9f3f2bfe265cb53458]
class Status--><rect codeLine="54" fill="#FEFECE" filter="url(#f1fqu1uk0rqzgf)" height="48" id="Status" style="stroke:#A80036;stroke-width:1.5;" width="67" x="1276.5" y="944"/><ellipse cx="1291.5" cy="960" fill="#ADD1B2" rx="11" ry="11" style="stroke:#A80036;stroke-width:1.0;"/><path d="M1294.2031,965.4375 Q1293.2813,966.3594 1291.0156,966.3594 Q1289.75,966.3594 1288.8281,965.4375 Q1287.1719,963.7813 1287.1719,960.25 Q1287.1719,956.1406 1288.9531,954.3438 Q1289.8906,953.4219 1291.0781,953.4219 Q1293.3438,953.4219 1294.0781,954.1406 Q1295.4688,955.5469 1295.4063,957.9375 L1292.9375,957.9375 Q1292.875,955.8125 1292.1406,955.0781 Q1291.75,954.6719 1291.0781,954.6719 Q1291.0781,954.6719 1291.0156,955.1406 Q1289.6875,956.4688 1289.6875,960.125 Q1289.6875,963.3125 1290.8281,964.4375 Q1291.3594,964.9688 1291.3594,964.9688 Q1291.6094,964.9688 1292.1406,964.4375 Q1292.8125,963.7813 1292.875,961.3906 L1295.4688,961.3906 Q1295.2656,964.375 1294.2031,965.4375 Z " fill="#000000"/><text fill="#000000" font-family="sans-serif" font-size="12" lengthAdjust="spacing" textLength="35" x="1305.5" y="964.9102">Status</text><line style="stroke:#A80036;stroke-width:1.5;" x1="1277.5" x2="1342.5" y1="976" y2="976"/><line style="stroke:#A80036;stroke-width:1.5;" x1="1277.5" x2="1342.5" y1="984" y2="984"/><!--MD5=[bcee973e2623bef0127252815a37a6e8]
class Receiver--><rect codeLine="55" fill="#FEFECE" filter="url(#f1fqu1uk0rqzgf)" height="48" id="Receiver" style="stroke:#A80036;stroke-width:1.5;" width="80" x="1154" y="836"/><ellipse cx="1169" cy="852" fill="#ADD1B2" rx="11" ry="11" style="stroke:#A80036;stroke-width:1.0;"/><path d="M1171.7031,857.4375 Q1170.7813,858.3594 1168.5156,858.3594 Q1167.25,858.3594 1166.3281,857.4375 Q1164.6719,855.7813 1164.6719,852.25 Q1164.6719,848.1406 1166.4531,846.3438 Q1167.3906,845.4219 1168.5781,845.4219 Q1170.8438,845.4219 1171.5781,846.1406 Q1172.9688,847.5469 1172.9063,849.9375 L1170.4375,849.9375 Q1170.375,847.8125 1169.6406,847.0781 Q1169.25,846.6719 1168.5781,846.6719 Q1168.5781,846.6719 1168.5156,847.1406 Q1167.1875,848.4688 1167.1875,852.125 Q1167.1875,855.3125 1168.3281,856.4375 Q1168.8594,856.9688 1168.8594,856.9688 Q1169.1094,856.9688 1169.6406,856.4375 Q1170.3125,855.7813 1170.375,853.3906 L1172.9688,853.3906 Q1172.7656,856.375 1171.7031,857.4375 Z " fill="#000000"/><text fill="#000000" font-family="sans-serif" font-size="12" lengthAdjust="spacing" textLength="48" x="1183" y="856.9102">Receiver</text><line style="stroke:#A80036;stroke-width:1.5;" x1="1155" x2="1233" y1="868" y2="868"/><line style="stroke:#A80036;stroke-width:1.5;" x1="1155" x2="1233" y1="876" y2="876"/><!--MD5=[bea5b0d46523efab5ea1c1d339f396f0]
class Message--><rect codeLine="56" fill="#FEFECE" filter="url(#f1fqu1uk0rqzgf)" height="48" id="Message" style="stroke:#A80036;stroke-width:1.5;" width="83" x="1094.5" y="679.5"/><ellipse cx="1109.5" cy="695.5" fill="#ADD1B2" rx="11" ry="11" style="stroke:#A80036;stroke-width:1.0;"/><path d="M1112.2031,700.9375 Q1111.2813,701.8594 1109.0156,701.8594 Q1107.75,701.8594 1106.8281,700.9375 Q1105.1719,699.2813 1105.1719,695.75 Q1105.1719,691.6406 1106.9531,689.8438 Q1107.8906,688.9219 1109.0781,688.9219 Q1111.3438,688.9219 1112.0781,689.6406 Q1113.4688,691.0469 1113.4063,693.4375 L1110.9375,693.4375 Q1110.875,691.3125 1110.1406,690.5781 Q1109.75,690.1719 1109.0781,690.1719 Q1109.0781,690.1719 1109.0156,690.6406 Q1107.6875,691.9688 1107.6875,695.625 Q1107.6875,698.8125 1108.8281,699.9375 Q1109.3594,700.4688 1109.3594,700.4688 Q1109.6094,700.4688 1110.1406,699.9375 Q1110.8125,699.2813 1110.875,696.8906 L1113.4688,696.8906 Q1113.2656,699.875 1112.2031,700.9375 Z " fill="#000000"/><text fill="#000000" font-family="sans-serif" font-size="12" lengthAdjust="spacing" textLength="51" x="1123.5" y="700.4102">Message</text><line style="stroke:#A80036;stroke-width:1.5;" x1="1095.5" x2="1176.5" y1="711.5" y2="711.5"/><line style="stroke:#A80036;stroke-width:1.5;" x1="1095.5" x2="1176.5" y1="719.5" y2="719.5"/><!--MD5=[50ddc01ba8ab1852d49e2f8fd9dc1ded]
class CreateRoleMessage--><rect codeLine="57" fill="#FEFECE" filter="url(#f1fqu1uk0rqzgf)" height="48" id="CreateRoleMessage" style="stroke:#A80036;stroke-width:1.5;" width="146" x="717" y="474.5"/><ellipse cx="732" cy="490.5" fill="#ADD1B2" rx="11" ry="11" style="stroke:#A80036;stroke-width:1.0;"/><path d="M734.7031,495.9375 Q733.7813,496.8594 731.5156,496.8594 Q730.25,496.8594 729.3281,495.9375 Q727.6719,494.2813 727.6719,490.75 Q727.6719,486.6406 729.4531,484.8438 Q730.3906,483.9219 731.5781,483.9219 Q733.8438,483.9219 734.5781,484.6406 Q735.9688,486.0469 735.9063,488.4375 L733.4375,488.4375 Q733.375,486.3125 732.6406,485.5781 Q732.25,485.1719 731.5781,485.1719 Q731.5781,485.1719 731.5156,485.6406 Q730.1875,486.9688 730.1875,490.625 Q730.1875,493.8125 731.3281,494.9375 Q731.8594,495.4688 731.8594,495.4688 Q732.1094,495.4688 732.6406,494.9375 Q733.3125,494.2813 733.375,491.8906 L735.9688,491.8906 Q735.7656,494.875 734.7031,495.9375 Z " fill="#000000"/><text fill="#000000" font-family="sans-serif" font-size="12" lengthAdjust="spacing" textLength="114" x="746" y="495.4102">CreateRoleMessage</text><line style="stroke:#A80036;stroke-width:1.5;" x1="718" x2="862" y1="506.5" y2="506.5"/><line style="stroke:#A80036;stroke-width:1.5;" x1="718" x2="862" y1="514.5" y2="514.5"/><!--MD5=[efe31322ea20272a1c9bd6e7ba9c1867]
class DropRoleMessage--><rect codeLine="58" fill="#FEFECE" filter="url(#f1fqu1uk0rqzgf)" height="48" id="DropRoleMessage" style="stroke:#A80036;stroke-width:1.5;" width="136" x="898" y="474.5"/><ellipse cx="913" cy="490.5" fill="#ADD1B2" rx="11" ry="11" style="stroke:#A80036;stroke-width:1.0;"/><path d="M915.7031,495.9375 Q914.7813,496.8594 912.5156,496.8594 Q911.25,496.8594 910.3281,495.9375 Q908.6719,494.2813 908.6719,490.75 Q908.6719,486.6406 910.4531,484.8438 Q911.3906,483.9219 912.5781,483.9219 Q914.8438,483.9219 915.5781,484.6406 Q916.9688,486.0469 916.9063,488.4375 L914.4375,488.4375 Q914.375,486.3125 913.6406,485.5781 Q913.25,485.1719 912.5781,485.1719 Q912.5781,485.1719 912.5156,485.6406 Q911.1875,486.9688 911.1875,490.625 Q911.1875,493.8125 912.3281,494.9375 Q912.8594,495.4688 912.8594,495.4688 Q913.1094,495.4688 913.6406,494.9375 Q914.3125,494.2813 914.375,491.8906 L916.9688,491.8906 Q916.7656,494.875 915.7031,495.9375 Z " fill="#000000"/><text fill="#000000" font-family="sans-serif" font-size="12" lengthAdjust="spacing" textLength="104" x="927" y="495.4102">DropRoleMessage</text><line style="stroke:#A80036;stroke-width:1.5;" x1="899" x2="1033" y1="506.5" y2="506.5"/><line style="stroke:#A80036;stroke-width:1.5;" x1="899" x2="1033" y1="514.5" y2="514.5"/><!--MD5=[9b51ee769760f70b46a1900958320ff1]
class AlterRoleMessage--><rect codeLine="59" fill="#FEFECE" filter="url(#f1fqu1uk0rqzgf)" height="48" id="AlterRoleMessage" style="stroke:#A80036;stroke-width:1.5;" width="133" x="1069.5" y="474.5"/><ellipse cx="1084.5" cy="490.5" fill="#ADD1B2" rx="11" ry="11" style="stroke:#A80036;stroke-width:1.0;"/><path d="M1087.2031,495.9375 Q1086.2813,496.8594 1084.0156,496.8594 Q1082.75,496.8594 1081.8281,495.9375 Q1080.1719,494.2813 1080.1719,490.75 Q1080.1719,486.6406 1081.9531,484.8438 Q1082.8906,483.9219 1084.0781,483.9219 Q1086.3438,483.9219 1087.0781,484.6406 Q1088.4688,486.0469 1088.4063,488.4375 L1085.9375,488.4375 Q1085.875,486.3125 1085.1406,485.5781 Q1084.75,485.1719 1084.0781,485.1719 Q1084.0781,485.1719 1084.0156,485.6406 Q1082.6875,486.9688 1082.6875,490.625 Q1082.6875,493.8125 1083.8281,494.9375 Q1084.3594,495.4688 1084.3594,495.4688 Q1084.6094,495.4688 1085.1406,494.9375 Q1085.8125,494.2813 1085.875,491.8906 L1088.4688,491.8906 Q1088.2656,494.875 1087.2031,495.9375 Z " fill="#000000"/><text fill="#000000" font-family="sans-serif" font-size="12" lengthAdjust="spacing" textLength="101" x="1098.5" y="495.4102">AlterRoleMessage</text><line style="stroke:#A80036;stroke-width:1.5;" x1="1070.5" x2="1201.5" y1="506.5" y2="506.5"/><line style="stroke:#A80036;stroke-width:1.5;" x1="1070.5" x2="1201.5" y1="514.5" y2="514.5"/><!--MD5=[167ca76318e73bccb2069d8f346ce6d1]
class GrantRoleMessage--><rect codeLine="60" fill="#FEFECE" filter="url(#f1fqu1uk0rqzgf)" height="48" id="GrantRoleMessage" style="stroke:#A80036;stroke-width:1.5;" width="139" x="1237.5" y="474.5"/><ellipse cx="1252.5" cy="490.5" fill="#ADD1B2" rx="11" ry="11" style="stroke:#A80036;stroke-width:1.0;"/><path d="M1255.2031,495.9375 Q1254.2813,496.8594 1252.0156,496.8594 Q1250.75,496.8594 1249.8281,495.9375 Q1248.1719,494.2813 1248.1719,490.75 Q1248.1719,486.6406 1249.9531,484.8438 Q1250.8906,483.9219 1252.0781,483.9219 Q1254.3438,483.9219 1255.0781,484.6406 Q1256.4688,486.0469 1256.4063,488.4375 L1253.9375,488.4375 Q1253.875,486.3125 1253.1406,485.5781 Q1252.75,485.1719 1252.0781,485.1719 Q1252.0781,485.1719 1252.0156,485.6406 Q1250.6875,486.9688 1250.6875,490.625 Q1250.6875,493.8125 1251.8281,494.9375 Q1252.3594,495.4688 1252.3594,495.4688 Q1252.6094,495.4688 1253.1406,494.9375 Q1253.8125,494.2813 1253.875,491.8906 L1256.4688,491.8906 Q1256.2656,494.875 1255.2031,495.9375 Z " fill="#000000"/><text fill="#000000" font-family="sans-serif" font-size="12" lengthAdjust="spacing" textLength="107" x="1266.5" y="495.4102">GrantRoleMessage</text><line style="stroke:#A80036;stroke-width:1.5;" x1="1238.5" x2="1375.5" y1="506.5" y2="506.5"/><line style="stroke:#A80036;stroke-width:1.5;" x1="1238.5" x2="1375.5" y1="514.5" y2="514.5"/><!--MD5=[9fa483c3d6ad09704f3e143ec82b9a3b]
class RevokeRoleMessage--><rect codeLine="61" fill="#FEFECE" filter="url(#f1fqu1uk0rqzgf)" height="48" id="RevokeRoleMessage" style="stroke:#A80036;stroke-width:1.5;" width="150" x="532" y="474.5"/><ellipse cx="547" cy="490.5" fill="#ADD1B2" rx="11" ry="11" style="stroke:#A80036;stroke-width:1.0;"/><path d="M549.7031,495.9375 Q548.7813,496.8594 546.5156,496.8594 Q545.25,496.8594 544.3281,495.9375 Q542.6719,494.2813 542.6719,490.75 Q542.6719,486.6406 544.4531,484.8438 Q545.3906,483.9219 546.5781,483.9219 Q548.8438,483.9219 549.5781,484.6406 Q550.9688,486.0469 550.9063,488.4375 L548.4375,488.4375 Q548.375,486.3125 547.6406,485.5781 Q547.25,485.1719 546.5781,485.1719 Q546.5781,485.1719 546.5156,485.6406 Q545.1875,486.9688 545.1875,490.625 Q545.1875,493.8125 546.3281,494.9375 Q546.8594,495.4688 546.8594,495.4688 Q547.1094,495.4688 547.6406,494.9375 Q548.3125,494.2813 548.375,491.8906 L550.9688,491.8906 Q550.7656,494.875 549.7031,495.9375 Z " fill="#000000"/><text fill="#000000" font-family="sans-serif" font-size="12" lengthAdjust="spacing" textLength="118" x="561" y="495.4102">RevokeRoleMessage</text><line style="stroke:#A80036;stroke-width:1.5;" x1="533" x2="681" y1="506.5" y2="506.5"/><line style="stroke:#A80036;stroke-width:1.5;" x1="533" x2="681" y1="514.5" y2="514.5"/><!--MD5=[64424ef165630313e5f0ea6e2d93641d]
link alt_utility to create_role--><path codeLine="13" d="M872.88,90 C853.36,106.55 826.97,128.93 806.51,146.28 " fill="none" id="alt_utility-to-create_role" style="stroke:#A80036;stroke-width:1.0;"/><polygon fill="#A80036" points="802.5,149.68,811.9477,146.8979,806.3093,146.4413,806.7659,140.8029,802.5,149.68" style="stroke:#A80036;stroke-width:1.0;"/><!--MD5=[88cf988b9299ecb48862f26b0f7b5f60]
link alt_utility to drop_role--><path codeLine="14" d="M900,90 C900,106 900,127.45 900,144.53 " fill="none" id="alt_utility-to-drop_role" style="stroke:#A80036;stroke-width:1.0;"/><polygon fill="#A80036" points="900,149.68,904,140.68,900,144.68,896,140.68,900,149.68" style="stroke:#A80036;stroke-width:1.0;"/><!--MD5=[f5874fc599e876e00dc57b507932b55e]
link alt_utility to alter_role--><path codeLine="15" d="M926.04,90 C944.78,106.55 970.11,128.93 989.75,146.28 " fill="none" id="alt_utility-to-alter_role" style="stroke:#A80036;stroke-width:1.0;"/><polygon fill="#A80036" points="993.6,149.68,989.5138,140.7188,989.8567,146.3653,984.2102,146.7082,993.6,149.68" style="stroke:#A80036;stroke-width:1.0;"/><!--MD5=[72b5f3eb82cd7038f516f3e8d12f3fe9]
link alt_utility to grant_role--><path codeLine="16" d="M939.53,84.39 C981.27,102.75 1047.15,131.72 1092.13,151.5 " fill="none" id="alt_utility-to-grant_role" style="stroke:#A80036;stroke-width:1.0;"/><polygon fill="#A80036" points="1096.96,153.63,1090.3095,146.3656,1092.3769,151.6312,1087.1114,153.6985,1096.96,153.63" style="stroke:#A80036;stroke-width:1.0;"/><!--MD5=[af116bf2ee28462e2c4596f3b9f1befc]
link alt_utility to revoke_role--><path codeLine="17" d="M860.44,83.45 C816.89,101.55 746.65,130.75 698.28,150.85 " fill="none" id="alt_utility-to-revoke_role" style="stroke:#A80036;stroke-width:1.0;"/><polygon fill="#A80036" points="693.37,152.89,703.2158,153.1359,697.9883,150.974,700.1502,145.7466,693.37,152.89" style="stroke:#A80036;stroke-width:1.0;"/><!--MD5=[48bbb8b88182b5b75de7fe569eca6b64]
link create_role to rolecmd--><path codeLine="20" d="M736.5085,205.4447 C736.5085,205.4447 698.08,235.85 680.81,249.51 " fill="none" id="create_role-rolecmd" style="stroke:#A80036;stroke-width:1.0;"/><polygon fill="#A80036" points="670.48,257.68,680.0198,255.2319,674.4009,254.5773,675.0555,248.9585,670.48,257.68" style="stroke:#A80036;stroke-width:1.0;"/><line style="stroke:#A80036;stroke-width:1.0;" x1="674.4009" x2="680.675" y1="254.5773" y2="249.61"/><polygon fill="#A80036" points="745.92,198,738.7327,198.5852,736.5085,205.4447,743.6958,204.8595,745.92,198" style="stroke:#A80036;stroke-width:1.0;"/><!--MD5=[5a9a94068aed9b75ffd85c32f0d5b0d6]
link drop_role to rolecmd--><path codeLine="21" d="M846.1213,197.0385 C846.1213,197.0385 735.94,242.14 691.78,260.22 " fill="none" id="drop_role-rolecmd" style="stroke:#A80036;stroke-width:1.0;"/><polygon fill="#A80036" points="679.6,265.2,689.4443,265.499,684.2286,263.309,686.4187,258.0933,679.6,265.2" style="stroke:#A80036;stroke-width:1.0;"/><line style="stroke:#A80036;stroke-width:1.0;" x1="684.2286" x2="691.63" y1="263.309" y2="260.28"/><polygon fill="#A80036" points="857.23,192.5,850.1628,191.0663,846.1213,197.0385,853.1885,198.4721,857.23,192.5" style="stroke:#A80036;stroke-width:1.0;"/><!--MD5=[d0f9a4724484946ae491ff516a6abcc7]
link alter_role to rolecmd--><path codeLine="22" d="M966.6048,195.8059 C966.6048,195.8059 961.83,197.41 960,198 C866.9,227.85 755.99,254.83 692.5,269.47 " fill="none" id="alter_role-rolecmd" style="stroke:#A80036;stroke-width:1.0;"/><polygon fill="#A80036" points="679.7,272.4,689.3676,274.281,684.5728,271.2793,687.5745,266.4845,679.7,272.4" style="stroke:#A80036;stroke-width:1.0;"/><line style="stroke:#A80036;stroke-width:1.0;" x1="684.5728" x2="692.37" y1="271.2793" y2="269.495"/><polygon fill="#A80036" points="977.92,191.81,970.9305,190.0362,966.6048,195.8059,973.5944,197.5797,977.92,191.81" style="stroke:#A80036;stroke-width:1.0;"/><!--MD5=[7da90bfa2a0aed8b76ea75ffe407c933]
link grant_role to rolecmd--><path codeLine="23" d="M1085.581,196.3395 C1085.581,196.3395 1081.48,197.59 1080,198 C942.41,236.63 775.48,262.65 692.71,274.2 " fill="none" id="grant_role-rolecmd" style="stroke:#A80036;stroke-width:1.0;"/><polygon fill="#A80036" points="679.69,275.99,689.1543,278.7153,684.6426,275.3029,688.0549,270.7912,679.69,275.99" style="stroke:#A80036;stroke-width:1.0;"/><line style="stroke:#A80036;stroke-width:1.0;" x1="684.6426" x2="692.565" y1="275.3029" y2="274.215"/><polygon fill="#A80036" points="1096.99,192.62,1090.0457,190.6767,1085.581,196.3395,1092.5253,198.2827,1096.99,192.62" style="stroke:#A80036;stroke-width:1.0;"/><!--MD5=[fe517bf72e847bccc559ab93667bc757]
link revoke_role to rolecmd--><path codeLine="24" d="M643.682,209.9916 C643.682,209.9916 642.79,233.68 642.38,244.36 " fill="none" id="revoke_role-rolecmd" style="stroke:#A80036;stroke-width:1.0;"/><polygon fill="#A80036" points="641.88,257.68,646.2132,248.8356,642.0667,252.6835,638.2188,248.5369,641.88,257.68" style="stroke:#A80036;stroke-width:1.0;"/><line style="stroke:#A80036;stroke-width:1.0;" x1="642.0667" x2="642.37" y1="252.6835" y2="244.69"/><polygon fill="#A80036" points="644.13,198,639.9088,203.8465,643.682,209.9916,647.9032,204.1452,644.13,198" style="stroke:#A80036;stroke-width:1.0;"/><!--MD5=[f13a5696d6b61743dd1846909569c612]
link Roles to Metadata--><path codeLine="48" d="M266,571.07 C266,583.81 266,597.23 266,610.44 " fill="none" id="Roles-to-Metadata" style="stroke:#A80036;stroke-width:1.0;"/><polygon fill="none" points="273,610.89,266,630.89,259,610.89,273,610.89" style="stroke:#A80036;stroke-width:1.0;"/><!--MD5=[df314e4fc60eb08b3c5f2af8d0992b72]
link CreateRoleMessage to Message--><path codeLine="62" d="M816.87,522.82 C834.48,537.54 858.35,556.45 881,571 C945.01,612.12 1023.41,650.99 1076.25,675.65 " fill="none" id="CreateRoleMessage-to-Message" style="stroke:#A80036;stroke-width:1.0;"/><polygon fill="none" points="1079.26,669.33,1094.48,684.07,1073.39,682.04,1079.26,669.33" style="stroke:#A80036;stroke-width:1.0;"/><!--MD5=[baf2ac4fc2b1506cc58cfee70401d1f1]
link DropRoleMessage to Message--><path codeLine="63" d="M985.5,522.79 C1014.39,557.28 1068.88,622.35 1103.76,664 " fill="none" id="DropRoleMessage-to-Message" style="stroke:#A80036;stroke-width:1.0;"/><polygon fill="none" points="1109.25,659.66,1116.73,679.48,1098.52,668.65,1109.25,659.66" style="stroke:#A80036;stroke-width:1.0;"/><!--MD5=[f1677b23c56e5235a4d21c90ab7b2bee]
link AlterRoleMessage to Message--><path codeLine="64" d="M1136,522.79 C1136,556.06 1136,617.77 1136,659.48 " fill="none" id="AlterRoleMessage-to-Message" style="stroke:#A80036;stroke-width:1.0;"/><polygon fill="none" points="1143,659.48,1136,679.48,1129,659.48,1143,659.48" style="stroke:#A80036;stroke-width:1.0;"/><!--MD5=[3d92870086a51e0992f239f8db8f539e]
link GrantRoleMessage to Message--><path codeLine="65" d="M1287.38,522.79 C1258.33,557.28 1203.52,622.35 1168.43,664 " fill="none" id="GrantRoleMessage-to-Message" style="stroke:#A80036;stroke-width:1.0;"/><polygon fill="none" points="1173.63,668.7,1155.39,679.48,1162.92,659.68,1173.63,668.7" style="stroke:#A80036;stroke-width:1.0;"/><!--MD5=[e9a5c0bc24e10ea2db46caa65852a41d]
link RevokeRoleMessage to Message--><path codeLine="66" d="M631.74,522.55 C649.56,538.11 674.81,558.07 700,571 C825.41,635.37 987.63,673.86 1074.54,691.3 " fill="none" id="RevokeRoleMessage-to-Message" style="stroke:#A80036;stroke-width:1.0;"/><polygon fill="none" points="1076.16,684.48,1094.45,695.19,1073.47,698.22,1076.16,684.48" style="stroke:#A80036;stroke-width:1.0;"/><!--MD5=[4217ec9cfb6668915743aed1764b3ea5]
link Message to Receiver--><path codeLine="67" d="M1144.68,727.63 C1154.24,753.08 1169.7,794.26 1180.76,823.74 " fill="none" id="Message-to-Receiver" style="stroke:#A80036;stroke-width:1.0;"/><polygon fill="#FFFFFF" points="1185.35,835.96,1186.985,828.9367,1181.1307,824.7262,1179.4958,831.7495,1185.35,835.96" style="stroke:#A80036;stroke-width:1.0;"/><!--MD5=[f2809258fdef5c75cbf0afa0f4e0f43a]
link MessageBroker to Message--><path codeLine="68" d="M1469.56,529.66 C1446.43,542.58 1418.98,557.72 1394,571 C1320.54,610.07 1234.23,653.58 1182.39,679.47 " fill="none" id="MessageBroker-to-Message" style="stroke:#A80036;stroke-width:1.0;"/><polygon fill="#A80036" points="1177.79,681.76,1187.6293,681.3254,1182.265,679.5297,1184.0607,674.1654,1177.79,681.76" style="stroke:#A80036;stroke-width:1.0;"/><!--MD5=[e818c8605f1ba34d7e21fb98c97356f5]
link MessageBroker to Status--><path codeLine="69" d="M1509.19,529.81 C1470.28,615.22 1360.15,856.93 1322.67,939.19 " fill="none" id="MessageBroker-to-Status" style="stroke:#A80036;stroke-width:1.0;"/><polygon fill="#A80036" points="1320.52,943.92,1327.8934,937.3906,1322.5944,939.3706,1320.6144,934.0716,1320.52,943.92" style="stroke:#A80036;stroke-width:1.0;"/><!--MD5=[97110e73f3e09445d867a187240cefa4]
link Receiver to Status--><path codeLine="70" d="M1219.17,884 C1237.29,900.55 1261.77,922.93 1280.76,940.28 " fill="none" id="Receiver-to-Status" style="stroke:#A80036;stroke-width:1.0;"/><polygon fill="#A80036" points="1284.48,943.68,1280.5216,934.6616,1280.7842,940.3124,1275.1334,940.5749,1284.48,943.68" style="stroke:#A80036;stroke-width:1.0;"/><!--MD5=[de02be4802179d58f61a30e5938bf84e]
link create_role to CreateRoleMessage--><path codeLine="75" d="M776.08,198.19 C778.66,253.61 785.19,394.07 788.3,460.98 " fill="none" id="create_role-to-CreateRoleMessage" style="stroke:#A80036;stroke-width:1.0;"/><polygon fill="#FFFFFF" points="788.91,474.08,792.6288,467.9018,788.3561,462.0928,784.6373,468.271,788.91,474.08" style="stroke:#A80036;stroke-width:1.0;"/><!--MD5=[3d04cc8a8bc908427559890ee7c9b98c]
link drop_role to DropRoleMessage--><path codeLine="76" d="M904.75,198.19 C916.09,253.61 944.83,394.07 958.53,460.98 " fill="none" id="drop_role-to-DropRoleMessage" style="stroke:#A80036;stroke-width:1.0;"/><polygon fill="#FFFFFF" points="961.21,474.08,963.9297,467.4015,958.811,462.3222,956.0912,469.0008,961.21,474.08" style="stroke:#A80036;stroke-width:1.0;"/><!--MD5=[28926e90a65191416182333da6429e30]
link alter_role to AlterRoleMessage--><path codeLine="77" d="M1028.34,198.19 C1048.36,253.84 1099.22,395.25 1123.16,461.81 " fill="none" id="alter_role-to-AlterRoleMessage" style="stroke:#A80036;stroke-width:1.0;"/><polygon fill="#FFFFFF" points="1127.58,474.08,1129.3124,467.0801,1123.5172,462.7887,1121.7848,469.7886,1127.58,474.08" style="stroke:#A80036;stroke-width:1.0;"/><!--MD5=[7d3e876aa476e352d69630fe3dfc032d]
link grant_role to GrantRoleMessage--><path codeLine="78" d="M1152.94,198.19 C1181.64,253.96 1254.67,395.84 1288.85,462.23 " fill="none" id="grant_role-to-GrantRoleMessage" style="stroke:#A80036;stroke-width:1.0;"/><polygon fill="#FFFFFF" points="1294.95,474.08,1295.7565,466.9141,1289.452,463.4136,1288.6455,470.5795,1294.95,474.08" style="stroke:#A80036;stroke-width:1.0;"/><!--MD5=[de58e24816327651030302d2f1475306]
link revoke_role to RevokeRoleMessage--><path codeLine="79" d="M664.62,198.31 C676.55,214.06 690.66,235.94 697,258 C705.84,288.76 704.81,298.97 697,330 C684.48,379.75 653.99,430.83 631.97,463.29 " fill="none" id="revoke_role-to-RevokeRoleMessage" style="stroke:#A80036;stroke-width:1.0;"/><polygon fill="#FFFFFF" points="624.28,474.37,630.9868,471.7207,631.1208,464.5108,624.414,467.1601,624.28,474.37" style="stroke:#A80036;stroke-width:1.0;"/><!--MD5=[1f43bae6594b0a9f081af8fa0f5ea0a9]
link rolecmd to Roles--><path codeLine="80" d="M602.26,298.24 C577.2,308.54 544.12,322.96 516,338 C470.78,362.19 422.91,391.7 381.29,418.73 " fill="none" id="rolecmd-to-Roles" style="stroke:#A80036;stroke-width:1.0;"/><polygon fill="#FFFFFF" points="370.29,425.91,377.5007,425.9825,380.3411,419.3544,373.1303,419.2818,370.29,425.91" style="stroke:#A80036;stroke-width:1.0;"/><!--MD5=[6cc0446d106de6c46765aa5675f2a762]
@startuml Role_all_class
package frontend {
class alt_utility

class create_role
class drop_role
class alter_role
class grant_role
class revoke_role


class rolecmd

alt_utility - -> create_role
alt_utility - -> drop_role
alt_utility - -> alter_role
alt_utility - -> grant_role
alt_utility - -> revoke_role


create_role *- -> rolecmd
drop_role *- -> rolecmd
alter_role *- -> rolecmd
grant_role *- -> rolecmd
revoke_role *- -> rolecmd
}


package manager {
package metadata{
  abstract Metadata{
    ErrorCode init() 
    ErrorCode add(boost::property_tree::ptree& object)
    ErrorCode add(boost::property_tree::ptree& object,ObjectIdType* object_id)
    ErrorCode remove(const char* object_name, ObjectIdType* object_id) 
    ErrorCode remove(const ObjectIdType object_id)
    ErrorCode get(std::string_view object_name,boost::property_tree::ptree& object)
    ErrorCode get(const ObjectIdType object_id,boost::property_tree::ptree& object)    
  }
  class Roles{
    ErrorCode init() 
    ErrorCode update(std::string_view object_name,boost::property_tree::ptree& object)
    ErrorCode update(ObjectIdType object_id, boost::property_tree::ptree& object)
    ErrorCode remove(const char* object_name, ObjectIdType* object_id) 
    ErrorCode remove(const ObjectIdType object_id)
    ErrorCode get(std::string_view object_name,boost::property_tree::ptree& object)
    ErrorCode get(const ObjectIdType object_id,boost::property_tree::ptree& object)
  }
  Roles - -|> Metadata
}
package message{
  class MessageBroker{
    Status send_message(Message *message)
  }
  class Status{}
  class Receiver{}
  class Message{}
  class CreateRoleMessage{}
  class DropRoleMessage{}
  class AlterRoleMessage{}
  class GrantRoleMessage{}
  class RevokeRoleMessage{}
  CreateRoleMessage - -|> Message
  DropRoleMessage - -|> Message
  AlterRoleMessage - -|> Message
  GrantRoleMessage - -|> Message
  RevokeRoleMessage - -|> Message
  Message - -o Receiver
  MessageBroker - -> Message
  MessageBroker - -> Status
  Receiver - -> Status
}


}
create_role - -o CreateRoleMessage
drop_role   - -o DropRoleMessage
alter_role  - -o AlterRoleMessage
grant_role  - -o GrantRoleMessage
revoke_role - -o RevokeRoleMessage
rolecmd - -o Roles
@enduml

PlantUML version 1.2021.7(Sun May 23 21:40:07 JST 2021)
(GPL source distribution)
Java Runtime: Java(TM) SE Runtime Environment
JVM: Java HotSpot(TM) Client VM
Default Encoding: MS932
Language: ja
Country: JP
--></g></svg>