<?xml version="1.0" encoding="UTF-8" standalone="no"?><svg xmlns="http://www.w3.org/2000/svg" xmlns:xlink="http://www.w3.org/1999/xlink" contentScriptType="application/ecmascript" contentStyleType="text/css" height="679px" preserveAspectRatio="none" style="width:550px;height:679px;" version="1.1" viewBox="0 0 550 679" width="550px" zoomAndPan="magnify"><defs><filter height="300%" id="fr5jrndpufocu" width="300%" x="-1" y="-1"><feGaussianBlur result="blurOut" stdDeviation="2.0"/><feColorMatrix in="blurOut" result="blurOut2" type="matrix" values="0 0 0 0 0 0 0 0 0 0 0 0 0 0 0 0 0 0 .4 0"/><feOffset dx="4.0" dy="4.0" in="blurOut2" result="blurOut3"/><feBlend in="SourceGraphic" in2="blurOut3" mode="normal"/></filter></defs><g><!--MD5=[e9cbb9dd88ded91326c7c57ecf0f8dfc]
cluster PostgreSQL--><polygon fill="#FFFFFF" filter="url(#fr5jrndpufocu)" points="16,151.5,105,151.5,112,175.1094,533,175.1094,533,520.5,16,520.5,16,151.5" style="stroke:#000000;stroke-width:1.5;"/><line style="stroke:#000000;stroke-width:1.5;" x1="16" x2="112" y1="175.1094" y2="175.1094"/><text fill="#000000" font-family="sans-serif" font-size="14" font-weight="bold" lengthAdjust="spacing" textLength="83" x="20" y="168.0332">PostgreSQL</text><!--MD5=[46a063155973224c3fa27ddf1e3a8ae1]
cluster OLTP--><polygon fill="#FFFFFF" filter="url(#fr5jrndpufocu)" points="98,570.5,140,570.5,147,594.1094,404,594.1094,404,672.5,98,672.5,98,570.5" style="stroke:#000000;stroke-width:1.5;"/><line style="stroke:#000000;stroke-width:1.5;" x1="98" x2="147" y1="594.1094" y2="594.1094"/><text fill="#000000" font-family="sans-serif" font-size="14" font-weight="bold" lengthAdjust="spacing" textLength="36" x="102" y="587.0332">OLTP</text><!--MD5=[b1e3d2dcb3697de9e6328d1cb436cbc4]
entity frontend--><rect fill="#FEFECE" filter="url(#fr5jrndpufocu)" height="47.6094" style="stroke:#A80036;stroke-width:1.5;" width="93" x="32.5" y="188.5"/><rect fill="#FEFECE" height="10" style="stroke:#A80036;stroke-width:1.5;" width="15" x="105.5" y="193.5"/><rect fill="#FEFECE" height="2" style="stroke:#A80036;stroke-width:1.5;" width="4" x="103.5" y="195.5"/><rect fill="#FEFECE" height="2" style="stroke:#A80036;stroke-width:1.5;" width="4" x="103.5" y="199.5"/><text fill="#000000" font-family="sans-serif" font-size="14" lengthAdjust="spacing" textLength="53" x="47.5" y="223.0332">frontend</text><!--MD5=[2b2d5ad518bf6746de4ffeb5be0566d4]
entity manager--><rect fill="#FEFECE" filter="url(#fr5jrndpufocu)" height="47.6094" style="stroke:#A80036;stroke-width:1.5;" width="96" x="59" y="456.5"/><rect fill="#FEFECE" height="10" style="stroke:#A80036;stroke-width:1.5;" width="15" x="135" y="461.5"/><rect fill="#FEFECE" height="2" style="stroke:#A80036;stroke-width:1.5;" width="4" x="133" y="463.5"/><rect fill="#FEFECE" height="2" style="stroke:#A80036;stroke-width:1.5;" width="4" x="133" y="467.5"/><text fill="#000000" font-family="sans-serif" font-size="14" lengthAdjust="spacing" textLength="56" x="74" y="491.0332">manager</text><!--MD5=[0ef533f09b2843476631a5fe543a12d7]
entity ext_table--><ellipse cx="301" cy="203.5" fill="#FEFECE" filter="url(#fr5jrndpufocu)" rx="12" ry="12" style="stroke:#A80036;stroke-width:1.5;"/><line style="stroke:#A80036;stroke-width:1.5;" x1="289" x2="313" y1="217.5" y2="217.5"/><text fill="#000000" font-family="sans-serif" font-size="14" lengthAdjust="spacing" textLength="71" x="265.5" y="234.0332">t_table(ext)</text><!--MD5=[a0302e260767c3a151b9bc67457b16f8]
entity pg_catalog--><path d="M427,199 C427,189 472,189 472,189 C472,189 517,189 517,199 L517,225.6094 C517,235.6094 472,235.6094 472,235.6094 C472,235.6094 427,235.6094 427,225.6094 L427,199 " fill="#FEFECE" filter="url(#fr5jrndpufocu)" style="stroke:#000000;stroke-width:1.5;"/><path d="M427,199 C427,209 472,209 472,209 C472,209 517,209 517,199 " fill="none" style="stroke:#000000;stroke-width:1.5;"/><text fill="#000000" font-family="sans-serif" font-size="14" lengthAdjust="spacing" textLength="70" x="437" y="227.5332">pg_catalog</text><!--MD5=[87734a20c2eaadadc712f7efe19c3795]
entity metadata--><path d="M39.5,341.5 C39.5,331.5 79,331.5 79,331.5 C79,331.5 118.5,331.5 118.5,341.5 L118.5,368.1094 C118.5,378.1094 79,378.1094 79,378.1094 C79,378.1094 39.5,378.1094 39.5,368.1094 L39.5,341.5 " fill="#FEFECE" filter="url(#fr5jrndpufocu)" style="stroke:#000000;stroke-width:1.5;"/><path d="M39.5,341.5 C39.5,351.5 79,351.5 79,351.5 C79,351.5 118.5,351.5 118.5,341.5 " fill="none" style="stroke:#000000;stroke-width:1.5;"/><text fill="#000000" font-family="sans-serif" font-size="14" lengthAdjust="spacing" textLength="59" x="49.5" y="370.0332">metadata</text><!--MD5=[3617a1dcecd131945f386a894a6d65d9]
entity ogawayama--><rect fill="#FEFECE" filter="url(#fr5jrndpufocu)" height="47.6094" style="stroke:#A80036;stroke-width:1.5;" width="115" x="114.5" y="607.5"/><rect fill="#FEFECE" height="10" style="stroke:#A80036;stroke-width:1.5;" width="15" x="209.5" y="612.5"/><rect fill="#FEFECE" height="2" style="stroke:#A80036;stroke-width:1.5;" width="4" x="207.5" y="614.5"/><rect fill="#FEFECE" height="2" style="stroke:#A80036;stroke-width:1.5;" width="4" x="207.5" y="618.5"/><text fill="#000000" font-family="sans-serif" font-size="14" lengthAdjust="spacing" textLength="75" x="129.5" y="642.0332">ogawayama</text><!--MD5=[f885883bf97652c4492f5888ce4a5716]
entity t_table--><ellipse cx="366" cy="622.5" fill="#FEFECE" filter="url(#fr5jrndpufocu)" rx="12" ry="12" style="stroke:#A80036;stroke-width:1.5;"/><line style="stroke:#A80036;stroke-width:1.5;" x1="354" x2="378" y1="636.5" y2="636.5"/><text fill="#000000" font-family="sans-serif" font-size="14" lengthAdjust="spacing" textLength="43" x="344.5" y="653.0332">t_table</text><!--MD5=[79a439086b036a57b90a01d7b2f8bbd1]
entity admin--><ellipse cx="79" cy="14" fill="#FEFECE" filter="url(#fr5jrndpufocu)" rx="8" ry="8" style="stroke:#A80036;stroke-width:1.5;"/><path d="M79,22 L79,49 M66,30 L92,30 M79,49 L66,64 M79,49 L92,64 " fill="none" filter="url(#fr5jrndpufocu)" style="stroke:#A80036;stroke-width:1.5;"/><text fill="#000000" font-family="sans-serif" font-size="14" lengthAdjust="spacing" textLength="38" x="60" y="84.0332">admin</text><!--MD5=[4067870adf98276f6cabac832cf6bd71]
link frontend to ext_table--><path d="M125.54,212.5 C165.45,212.5 222.38,212.5 260.45,212.5 " fill="none" id="frontend-to-ext_table" style="stroke:#A80036;stroke-width:1.0;"/><polygon fill="#A80036" points="265.46,212.5,256.46,208.5,260.46,212.5,256.46,216.5,265.46,212.5" style="stroke:#A80036;stroke-width:1.0;"/><text fill="#000000" font-family="sans-serif" font-size="13" lengthAdjust="spacing" textLength="103" x="144" y="205.9951">GRANT/REVOKE</text><!--MD5=[e25b590661d96e51952dc6bbfc439e98]
link ext_table to pg_catalog--><path d="M336.85,212.5 C361.46,212.5 394.48,212.5 421.72,212.5 " fill="none" id="ext_table-to-pg_catalog" style="stroke:#A80036;stroke-width:1.0;"/><polygon fill="#A80036" points="426.74,212.5,417.74,208.5,421.74,212.5,417.74,216.5,426.74,212.5" style="stroke:#A80036;stroke-width:1.0;"/><text fill="#000000" font-family="sans-serif" font-size="13" lengthAdjust="spacing" textLength="54" x="354.75" y="205.9951">metadata</text><!--MD5=[8f0a720853ed37f32da10868ca0b1939]
link frontend to metadata--><path d="M74.3,236.52 C72.58,246.06 70.85,257.27 70,267.5 C68.75,282.56 68.72,286.44 70,301.5 C70.68,309.51 71.94,318.14 73.3,326.03 " fill="none" id="frontend-to-metadata" style="stroke:#A80036;stroke-width:1.0;"/><polygon fill="#A80036" points="74.26,331.37,76.6319,321.811,73.3894,326.4464,68.7541,323.2039,74.26,331.37" style="stroke:#A80036;stroke-width:1.0;"/><text fill="#000000" font-family="sans-serif" font-size="13" lengthAdjust="spacing" textLength="87" x="88" y="281.9951">Update access</text><text fill="#000000" font-family="sans-serif" font-size="13" lengthAdjust="spacing" textLength="121" x="71" y="298.3467">privileges of the table</text><!--MD5=[7cf1da3d91892ef8487211adcc52537b]
link metadata to manager--><path d="M84.14,378.65 C88.75,399.02 95.56,429.04 100.54,451.03 " fill="none" id="metadata-to-manager" style="stroke:#A80036;stroke-width:1.0;"/><polygon fill="#A80036" points="101.71,456.15,103.6355,446.4912,100.6118,451.2721,95.8309,448.2484,101.71,456.15" style="stroke:#A80036;stroke-width:1.0;"/><!--MD5=[0b1ccbb062529ded3928f775cc3541cd]
link ogawayama to t_table--><path d="M229.68,631.5 C266.06,631.5 311.33,631.5 339.45,631.5 " fill="none" id="ogawayama-to-t_table" style="stroke:#A80036;stroke-width:1.0;"/><polygon fill="#A80036" points="344.49,631.5,335.49,627.5,339.49,631.5,335.49,635.5,344.49,631.5" style="stroke:#A80036;stroke-width:1.0;"/><text fill="#000000" font-family="sans-serif" font-size="13" lengthAdjust="spacing" textLength="78" x="248" y="624.9951">Grant/Revoke</text><!--MD5=[7b7568e7b3d3d33b5be17ec55672259a]
link admin to frontend--><path d="M79,87.66 C79,117.28 79,156.65 79,182.97 " fill="none" id="admin-to-frontend" style="stroke:#A80036;stroke-width:1.0;"/><polygon fill="#A80036" points="79,188.06,83,179.06,79,183.06,75,179.06,79,188.06" style="stroke:#A80036;stroke-width:1.0;"/><text fill="#000000" font-family="sans-serif" font-size="13" lengthAdjust="spacing" textLength="226" x="80" y="131.9951">GRANT/REVOKE privileges ON t_table</text><!--MD5=[725134c58ac48e76f7dc9724fb62703c]
link manager to ogawayama--><path d="M116.21,504.62 C122.03,519.03 129.78,537.92 137,554.5 C143.98,570.53 152.14,588.3 158.82,602.61 " fill="none" id="manager-to-ogawayama" style="stroke:#A80036;stroke-width:1.0;"/><polygon fill="#A80036" points="161.03,607.33,160.8471,597.4828,158.9148,602.7994,153.5982,600.8672,161.03,607.33" style="stroke:#A80036;stroke-width:1.0;"/><text fill="#000000" font-family="sans-serif" font-size="13" lengthAdjust="spacing" textLength="54" x="138" y="550.9951">metadata</text><!--MD5=[cac2dd5fce51c8c44451d2cde01b0fb9]
link frontend to ogawayama--><path d="M125.71,222.13 C151.46,229.52 181.3,243.04 197,267.5 C265.69,374.48 210.93,537.6 184.36,602.48 " fill="none" id="frontend-to-ogawayama" style="stroke:#A80036;stroke-width:1.0;"/><polygon fill="#A80036" points="182.35,607.34,189.486,600.552,184.2609,602.7196,182.0933,597.4945,182.35,607.34" style="stroke:#A80036;stroke-width:1.0;"/><text fill="#000000" font-family="sans-serif" font-size="13" lengthAdjust="spacing" textLength="164" x="231" y="422.9951">message(GRANT/REVOKE)</text><!--MD5=[2e1f5b7d401dbb499c4c76f92f53c0cf]
@startuml grant_revoke
actor admin

package PostgreSQL {
  component frontend
  component manager
  entity "t_table(ext)" as ext_table
  database pg_catalog
  database metadata

  frontend -> ext_table : GRANT/REVOKE
  ext_table -> pg_catalog : metadata
  frontend - -> metadata : Update access\nprivileges of the table
  metadata - -> manager
}

package OLTP {
  component ogawayama
  entity "t_table" as t_table

  ogawayama -> t_table : Grant/Revoke
}

admin - -> frontend : GRANT/REVOKE privileges ON t_table
manager - -> ogawayama : metadata
frontend - - -> ogawayama : message(GRANT/REVOKE)
@enduml

PlantUML version 1.2021.01(Tue Feb 02 16:55:08 JST 2021)
(GPL source distribution)
Java Runtime: OpenJDK Runtime Environment
JVM: OpenJDK 64-Bit Server VM
Default Encoding: MS932
Language: ja
Country: JP
--></g></svg>