<?xml version="1.0" encoding="UTF-8" standalone="no"?><svg xmlns="http://www.w3.org/2000/svg" xmlns:xlink="http://www.w3.org/1999/xlink" contentScriptType="application/ecmascript" contentStyleType="text/css" height="881px" preserveAspectRatio="none" style="width:533px;height:881px;background:#FFFFFF;" version="1.1" viewBox="0 0 533 881" width="533px" zoomAndPan="magnify"><defs><filter height="300%" id="fh0nhzwba0mnu" width="300%" x="-1" y="-1"><feGaussianBlur result="blurOut" stdDeviation="2.0"/><feColorMatrix in="blurOut" result="blurOut2" type="matrix" values="0 0 0 0 0 0 0 0 0 0 0 0 0 0 0 0 0 0 .4 0"/><feOffset dx="4.0" dy="4.0" in="blurOut2" result="blurOut3"/><feBlend in="SourceGraphic" in2="blurOut3" mode="normal"/></filter></defs><g><ellipse cx="256" cy="20" fill="#000000" filter="url(#fh0nhzwba0mnu)" rx="10" ry="10" style="stroke:none;stroke-width:1.0;"/><rect fill="#FFFFFF" filter="url(#fh0nhzwba0mnu)" height="249.9844" style="stroke:#000000;stroke-width:2.0;" width="200" x="156" y="40"/><path d="M270,40 L270,50.6094 L260,60.6094 L156,60.6094 " fill="none" style="stroke:#000000;stroke-width:2.0;"/><text fill="#000000" font-family="sans-serif" font-size="14" lengthAdjust="spacing" textLength="104" x="159" y="55.5332">define_relation()</text><rect fill="#FEFECE" filter="url(#fh0nhzwba0mnu)" height="35.0938" rx="12.5" ry="12.5" style="stroke:#A80036;stroke-width:1.5;" width="180" x="166" y="77.6094"/><text fill="#000000" font-family="sans-serif" font-size="12" lengthAdjust="spacing" textLength="160" x="176" y="100.0664">table,datatypeをロードする。</text><rect fill="#FEFECE" filter="url(#fh0nhzwba0mnu)" height="35.0938" rx="12.5" ry="12.5" style="stroke:#A80036;stroke-width:1.5;" width="140" x="186" y="132.7031"/><text fill="#000000" font-family="sans-serif" font-size="12" lengthAdjust="spacing" textLength="120" x="196" y="155.1602">構文をチェックする。</text><rect fill="#FEFECE" filter="url(#fh0nhzwba0mnu)" height="35.0938" rx="12.5" ry="12.5" style="stroke:#A80036;stroke-width:1.5;" width="162" x="175" y="187.7969"/><text fill="#000000" font-family="sans-serif" font-size="12" lengthAdjust="spacing" textLength="142" x="185" y="210.2539">datatypeをチェックする。</text><rect fill="#FEFECE" filter="url(#fh0nhzwba0mnu)" height="35.0938" rx="12.5" ry="12.5" style="stroke:#A80036;stroke-width:1.5;" width="152" x="180" y="242.8906"/><text fill="#000000" font-family="sans-serif" font-size="12" lengthAdjust="spacing" textLength="132" x="190" y="265.3477">メタデータを登録する。</text><rect fill="#FFFFFF" filter="url(#fh0nhzwba0mnu)" height="366.8086" style="stroke:#000000;stroke-width:2.0;" width="486.5" x="11" y="356.9033"/><path d="M127,356.9033 L127,367.5127 L117,377.5127 L11,377.5127 " fill="none" style="stroke:#000000;stroke-width:2.0;"/><text fill="#000000" font-family="sans-serif" font-size="14" lengthAdjust="spacing" textLength="106" x="14" y="372.4365">send_message()</text><polygon fill="#FEFECE" filter="url(#fh0nhzwba0mnu)" points="148.5,394.5127,363.5,394.5127,375.5,406.5127,363.5,418.5127,148.5,418.5127,136.5,406.5127,148.5,394.5127" style="stroke:#A80036;stroke-width:1.5;"/><text fill="#000000" font-family="sans-serif" font-size="11" lengthAdjust="spacing" textLength="215" x="148.5" y="411.0137">Ogawayamaへメッセージの初期化(Init)する</text><text fill="#000000" font-family="sans-serif" font-size="11" lengthAdjust="spacing" textLength="22" x="114.5" y="404.0957">成功</text><text fill="#000000" font-family="sans-serif" font-size="11" lengthAdjust="spacing" textLength="22" x="375.5" y="404.0957">失敗</text><rect fill="#FEFECE" filter="url(#fh0nhzwba0mnu)" height="35.0938" rx="12.5" ry="12.5" style="stroke:#A80036;stroke-width:1.5;" width="200" x="26.5" y="477.4307"/><text fill="#000000" font-family="sans-serif" font-size="12" lengthAdjust="spacing" textLength="180" x="36.5" y="499.8877">作成したメタデータを削除する。</text><rect fill="#FEFECE" filter="url(#fh0nhzwba0mnu)" height="35.0938" rx="12.5" ry="12.5" style="stroke:#A80036;stroke-width:1.5;" width="116" x="68.5" y="547.5244"/><text fill="#000000" font-family="sans-serif" font-size="12" lengthAdjust="spacing" textLength="96" x="78.5" y="569.9814">エラーメッセージ</text><polygon fill="#FEFECE" filter="url(#fh0nhzwba0mnu)" points="35,428.5127,218,428.5127,230,440.5127,218,452.5127,35,452.5127,23,440.5127,35,428.5127" style="stroke:#A80036;stroke-width:1.5;"/><text fill="#000000" font-family="sans-serif" font-size="11" lengthAdjust="spacing" textLength="22" x="130.5" y="463.9316">失敗</text><text fill="#000000" font-family="sans-serif" font-size="11" lengthAdjust="spacing" textLength="183" x="35" y="445.0137">Ogawayamaへメッセージを送信する</text><text fill="#000000" font-family="sans-serif" font-size="11" lengthAdjust="spacing" textLength="22" x="230" y="438.0957">成功</text><polygon fill="#FEFECE" filter="url(#fh0nhzwba0mnu)" points="126.5,602.6182,138.5,614.6182,126.5,626.6182,114.5,614.6182,126.5,602.6182" style="stroke:#A80036;stroke-width:1.5;"/><rect fill="#FEFECE" filter="url(#fh0nhzwba0mnu)" height="35.0938" rx="12.5" ry="12.5" style="stroke:#A80036;stroke-width:1.5;" width="200" x="285.5" y="428.5127"/><text fill="#000000" font-family="sans-serif" font-size="12" lengthAdjust="spacing" textLength="180" x="295.5" y="450.9697">作成したメタデータを削除する。</text><rect fill="#FEFECE" filter="url(#fh0nhzwba0mnu)" height="35.0938" rx="12.5" ry="12.5" style="stroke:#A80036;stroke-width:1.5;" width="116" x="327.5" y="498.6064"/><text fill="#000000" font-family="sans-serif" font-size="12" lengthAdjust="spacing" textLength="96" x="337.5" y="521.0635">エラーメッセージ</text><polygon fill="#FEFECE" filter="url(#fh0nhzwba0mnu)" points="256,632.6182,268,644.6182,256,656.6182,244,644.6182,256,632.6182" style="stroke:#A80036;stroke-width:1.5;"/><rect fill="#FEFECE" filter="url(#fh0nhzwba0mnu)" height="35.0938" rx="12.5" ry="12.5" style="stroke:#A80036;stroke-width:1.5;" width="80" x="216" y="676.6182"/><text fill="#000000" font-family="sans-serif" font-size="12" lengthAdjust="spacing" textLength="60" x="226" y="699.0752">結果を返す</text><polygon fill="#FEFECE" filter="url(#fh0nhzwba0mnu)" points="204,309.9844,308,309.9844,320,321.9844,308,333.9844,204,333.9844,192,321.9844,204,309.9844" style="stroke:#A80036;stroke-width:1.5;"/><text fill="#000000" font-family="sans-serif" font-size="11" lengthAdjust="spacing" textLength="22" x="260" y="345.4033">成功</text><text fill="#000000" font-family="sans-serif" font-size="11" lengthAdjust="spacing" textLength="104" x="204" y="326.4854">define_relationの結果</text><text fill="#000000" font-family="sans-serif" font-size="11" lengthAdjust="spacing" textLength="22" x="320" y="319.5674">失敗</text><polygon fill="#FEFECE" filter="url(#fh0nhzwba0mnu)" points="256,743.7119,268,755.7119,256,767.7119,244,755.7119,256,743.7119" style="stroke:#A80036;stroke-width:1.5;"/><rect fill="#FEFECE" filter="url(#fh0nhzwba0mnu)" height="35.0938" rx="12.5" ry="12.5" style="stroke:#A80036;stroke-width:1.5;" width="80" x="216" y="787.7119"/><text fill="#000000" font-family="sans-serif" font-size="12" lengthAdjust="spacing" textLength="60" x="226" y="810.1689">結果を返す</text><ellipse cx="256" cy="853.8057" fill="#FFFFFF" filter="url(#fh0nhzwba0mnu)" rx="11" ry="11" style="stroke:#000000;stroke-width:1.0;"/><ellipse cx="256" cy="853.8057" fill="#000000" rx="6" ry="6" style="stroke:#7F7F7F;stroke-width:1.0;"/><line style="stroke:#A80036;stroke-width:1.5;" x1="256" x2="256" y1="112.7031" y2="132.7031"/><polygon fill="#A80036" points="252,122.7031,256,132.7031,260,122.7031,256,126.7031" style="stroke:#A80036;stroke-width:1.0;"/><line style="stroke:#A80036;stroke-width:1.5;" x1="256" x2="256" y1="167.7969" y2="187.7969"/><polygon fill="#A80036" points="252,177.7969,256,187.7969,260,177.7969,256,181.7969" style="stroke:#A80036;stroke-width:1.0;"/><line style="stroke:#A80036;stroke-width:1.5;" x1="256" x2="256" y1="222.8906" y2="242.8906"/><polygon fill="#A80036" points="252,232.8906,256,242.8906,260,232.8906,256,236.8906" style="stroke:#A80036;stroke-width:1.0;"/><line style="stroke:#A80036;stroke-width:1.5;" x1="256" x2="256" y1="30" y2="77.6094"/><polygon fill="#A80036" points="252,67.6094,256,77.6094,260,67.6094,256,71.6094" style="stroke:#A80036;stroke-width:1.0;"/><line style="stroke:#A80036;stroke-width:1.5;" x1="126.5" x2="126.5" y1="512.5244" y2="547.5244"/><polygon fill="#A80036" points="122.5,537.5244,126.5,547.5244,130.5,537.5244,126.5,541.5244" style="stroke:#A80036;stroke-width:1.0;"/><line style="stroke:#A80036;stroke-width:1.5;" x1="126.5" x2="126.5" y1="452.5127" y2="477.4307"/><polygon fill="#A80036" points="122.5,467.4307,126.5,477.4307,130.5,467.4307,126.5,471.4307" style="stroke:#A80036;stroke-width:1.0;"/><line style="stroke:#A80036;stroke-width:1.5;" x1="230" x2="242" y1="440.5127" y2="440.5127"/><polygon fill="#A80036" points="238,520.0244,242,530.0244,246,520.0244,242,524.0244" style="stroke:#A80036;stroke-width:1.5;"/><line style="stroke:#A80036;stroke-width:1.5;" x1="242" x2="242" y1="440.5127" y2="614.6182"/><line style="stroke:#A80036;stroke-width:1.5;" x1="242" x2="138.5" y1="614.6182" y2="614.6182"/><polygon fill="#A80036" points="148.5,610.6182,138.5,614.6182,148.5,618.6182,144.5,614.6182" style="stroke:#A80036;stroke-width:1.0;"/><line style="stroke:#A80036;stroke-width:1.5;" x1="126.5" x2="126.5" y1="582.6182" y2="602.6182"/><polygon fill="#A80036" points="122.5,592.6182,126.5,602.6182,130.5,592.6182,126.5,596.6182" style="stroke:#A80036;stroke-width:1.0;"/><line style="stroke:#A80036;stroke-width:1.5;" x1="385.5" x2="385.5" y1="463.6064" y2="498.6064"/><polygon fill="#A80036" points="381.5,488.6064,385.5,498.6064,389.5,488.6064,385.5,492.6064" style="stroke:#A80036;stroke-width:1.0;"/><line style="stroke:#A80036;stroke-width:1.5;" x1="136.5" x2="126.5" y1="406.5127" y2="406.5127"/><line style="stroke:#A80036;stroke-width:1.5;" x1="126.5" x2="126.5" y1="406.5127" y2="428.5127"/><polygon fill="#A80036" points="122.5,418.5127,126.5,428.5127,130.5,418.5127,126.5,422.5127" style="stroke:#A80036;stroke-width:1.0;"/><line style="stroke:#A80036;stroke-width:1.5;" x1="375.5" x2="385.5" y1="406.5127" y2="406.5127"/><line style="stroke:#A80036;stroke-width:1.5;" x1="385.5" x2="385.5" y1="406.5127" y2="428.5127"/><polygon fill="#A80036" points="381.5,418.5127,385.5,428.5127,389.5,418.5127,385.5,422.5127" style="stroke:#A80036;stroke-width:1.0;"/><line style="stroke:#A80036;stroke-width:1.5;" x1="126.5" x2="126.5" y1="626.6182" y2="644.6182"/><line style="stroke:#A80036;stroke-width:1.5;" x1="126.5" x2="244" y1="644.6182" y2="644.6182"/><polygon fill="#A80036" points="234,640.6182,244,644.6182,234,648.6182,238,644.6182" style="stroke:#A80036;stroke-width:1.0;"/><line style="stroke:#A80036;stroke-width:1.5;" x1="385.5" x2="385.5" y1="533.7002" y2="644.6182"/><line style="stroke:#A80036;stroke-width:1.5;" x1="385.5" x2="268" y1="644.6182" y2="644.6182"/><polygon fill="#A80036" points="278,640.6182,268,644.6182,278,648.6182,274,644.6182" style="stroke:#A80036;stroke-width:1.0;"/><line style="stroke:#A80036;stroke-width:1.5;" x1="256" x2="256" y1="656.6182" y2="676.6182"/><polygon fill="#A80036" points="252,666.6182,256,676.6182,260,666.6182,256,670.6182" style="stroke:#A80036;stroke-width:1.0;"/><line style="stroke:#A80036;stroke-width:1.5;" x1="256" x2="256" y1="333.9844" y2="394.5127"/><polygon fill="#A80036" points="252,384.5127,256,394.5127,260,384.5127,256,388.5127" style="stroke:#A80036;stroke-width:1.0;"/><line style="stroke:#A80036;stroke-width:1.5;" x1="320" x2="507.5" y1="321.9844" y2="321.9844"/><polygon fill="#A80036" points="503.5,544.2666,507.5,554.2666,511.5,544.2666,507.5,548.2666" style="stroke:#A80036;stroke-width:1.5;"/><line style="stroke:#A80036;stroke-width:1.5;" x1="507.5" x2="507.5" y1="321.9844" y2="755.7119"/><line style="stroke:#A80036;stroke-width:1.5;" x1="507.5" x2="268" y1="755.7119" y2="755.7119"/><polygon fill="#A80036" points="278,751.7119,268,755.7119,278,759.7119,274,755.7119" style="stroke:#A80036;stroke-width:1.0;"/><line style="stroke:#A80036;stroke-width:1.5;" x1="256" x2="256" y1="711.7119" y2="743.7119"/><polygon fill="#A80036" points="252,733.7119,256,743.7119,260,733.7119,256,737.7119" style="stroke:#A80036;stroke-width:1.0;"/><line style="stroke:#A80036;stroke-width:1.5;" x1="256" x2="256" y1="277.9844" y2="309.9844"/><polygon fill="#A80036" points="252,299.9844,256,309.9844,260,299.9844,256,303.9844" style="stroke:#A80036;stroke-width:1.0;"/><line style="stroke:#A80036;stroke-width:1.5;" x1="256" x2="256" y1="767.7119" y2="787.7119"/><polygon fill="#A80036" points="252,777.7119,256,787.7119,260,777.7119,256,781.7119" style="stroke:#A80036;stroke-width:1.0;"/><line style="stroke:#A80036;stroke-width:1.5;" x1="256" x2="256" y1="822.8057" y2="842.8057"/><polygon fill="#A80036" points="252,832.8057,256,842.8057,260,832.8057,256,836.8057" style="stroke:#A80036;stroke-width:1.0;"/><!--MD5=[35a5259be018476cf946d46e0429fdec]
@startuml createTable
start
  partition define_relation() {
    :table,datatypeをロードする。;
    :構文をチェックする。;
    :datatypeをチェックする。;
    :メタデータを登録する。;
  }
  if(define_relationの結果) then (成功)
  partition send_message() {
    if(Ogawayamaへメッセージの初期化(Init)する) then (成功)
      if (Ogawayamaへメッセージを送信する) then (成功)
      else (失敗)
        :作成したメタデータを削除する。;
        :エラーメッセージ;
      endif
    else (失敗)
      :作成したメタデータを削除する。;
      :エラーメッセージ;
    endif
    :結果を返す;
  }
  else (失敗)
  endif
  :結果を返す;
stop
@enduml

PlantUML version 1.2021.7(Sun May 23 21:40:07 JST 2021)
(GPL source distribution)
Java Runtime: Java(TM) SE Runtime Environment
JVM: Java HotSpot(TM) Client VM
Default Encoding: MS932
Language: ja
Country: JP
--></g></svg>