<?xml version="1.0" encoding="UTF-8" standalone="no"?><svg xmlns="http://www.w3.org/2000/svg" xmlns:xlink="http://www.w3.org/1999/xlink" contentScriptType="application/ecmascript" contentStyleType="text/css" height="505px" preserveAspectRatio="none" style="width:472px;height:505px;background:#FFFFFF;" version="1.1" viewBox="0 0 472 505" width="472px" zoomAndPan="magnify"><defs><filter height="300%" id="f12zs82mh13qvx" width="300%" x="-1" y="-1"><feGaussianBlur result="blurOut" stdDeviation="2.0"/><feColorMatrix in="blurOut" result="blurOut2" type="matrix" values="0 0 0 0 0 0 0 0 0 0 0 0 0 0 0 0 0 0 .4 0"/><feOffset dx="4.0" dy="4.0" in="blurOut2" result="blurOut3"/><feBlend in="SourceGraphic" in2="blurOut3" mode="normal"/></filter></defs><g><ellipse cx="256" cy="20" fill="#000000" filter="url(#f12zs82mh13qvx)" rx="10" ry="10" style="stroke:none;stroke-width:1.0;"/><rect fill="#FEFECE" filter="url(#f12zs82mh13qvx)" height="35.0938" rx="12.5" ry="12.5" style="stroke:#A80036;stroke-width:1.5;" width="202" x="155" y="50"/><text fill="#000000" font-family="sans-serif" font-size="12" lengthAdjust="spacing" textLength="182" x="165" y="72.457">削除するRoleデータを取得する。</text><rect fill="#FEFECE" filter="url(#f12zs82mh13qvx)" height="35.0938" rx="12.5" ry="12.5" style="stroke:#A80036;stroke-width:1.5;" width="194" x="159" y="105.0938"/><text fill="#000000" font-family="sans-serif" font-size="12" lengthAdjust="spacing" textLength="174" x="169" y="127.5508">DROP Role(Standard Features)</text><rect fill="#FFFFFF" filter="url(#f12zs82mh13qvx)" height="241.6211" style="stroke:#000000;stroke-width:2.0;" width="444.5" x="11" y="150.1875"/><path d="M127,150.1875 L127,160.7969 L117,170.7969 L11,170.7969 " fill="none" style="stroke:#000000;stroke-width:2.0;"/><text fill="#000000" font-family="sans-serif" font-size="14" lengthAdjust="spacing" textLength="106" x="14" y="165.7207">send_message()</text><polygon fill="#FEFECE" filter="url(#f12zs82mh13qvx)" points="148.5,187.7969,363.5,187.7969,375.5,199.7969,363.5,211.7969,148.5,211.7969,136.5,199.7969,148.5,187.7969" style="stroke:#A80036;stroke-width:1.5;"/><text fill="#000000" font-family="sans-serif" font-size="11" lengthAdjust="spacing" textLength="215" x="148.5" y="204.2979">Ogawayamaへメッセージの初期化(Init)する</text><text fill="#000000" font-family="sans-serif" font-size="11" lengthAdjust="spacing" textLength="22" x="114.5" y="197.3799">成功</text><text fill="#000000" font-family="sans-serif" font-size="11" lengthAdjust="spacing" textLength="22" x="375.5" y="197.3799">失敗</text><rect fill="#FEFECE" filter="url(#f12zs82mh13qvx)" height="35.0938" rx="12.5" ry="12.5" style="stroke:#A80036;stroke-width:1.5;" width="116" x="68.5" y="270.7148"/><text fill="#000000" font-family="sans-serif" font-size="12" lengthAdjust="spacing" textLength="96" x="78.5" y="293.1719">エラーメッセージ</text><polygon fill="#FEFECE" filter="url(#f12zs82mh13qvx)" points="35,221.7969,218,221.7969,230,233.7969,218,245.7969,35,245.7969,23,233.7969,35,221.7969" style="stroke:#A80036;stroke-width:1.5;"/><text fill="#000000" font-family="sans-serif" font-size="11" lengthAdjust="spacing" textLength="22" x="130.5" y="257.2158">失敗</text><text fill="#000000" font-family="sans-serif" font-size="11" lengthAdjust="spacing" textLength="183" x="35" y="238.2979">Ogawayamaへメッセージを送信する</text><text fill="#000000" font-family="sans-serif" font-size="11" lengthAdjust="spacing" textLength="22" x="230" y="231.3799">成功</text><polygon fill="#FEFECE" filter="url(#f12zs82mh13qvx)" points="126.5,325.8086,138.5,337.8086,126.5,349.8086,114.5,337.8086,126.5,325.8086" style="stroke:#A80036;stroke-width:1.5;"/><rect fill="#FEFECE" filter="url(#f12zs82mh13qvx)" height="35.0938" rx="12.5" ry="12.5" style="stroke:#A80036;stroke-width:1.5;" width="116" x="327.5" y="221.7969"/><text fill="#000000" font-family="sans-serif" font-size="12" lengthAdjust="spacing" textLength="96" x="337.5" y="244.2539">エラーメッセージ</text><polygon fill="#FEFECE" filter="url(#f12zs82mh13qvx)" points="256,355.8086,268,367.8086,256,379.8086,244,367.8086,256,355.8086" style="stroke:#A80036;stroke-width:1.5;"/><rect fill="#FEFECE" filter="url(#f12zs82mh13qvx)" height="35.0938" rx="12.5" ry="12.5" style="stroke:#A80036;stroke-width:1.5;" width="80" x="216" y="411.8086"/><text fill="#000000" font-family="sans-serif" font-size="12" lengthAdjust="spacing" textLength="60" x="226" y="434.2656">結果を返す</text><ellipse cx="256" cy="477.9023" fill="#FFFFFF" filter="url(#f12zs82mh13qvx)" rx="11" ry="11" style="stroke:#000000;stroke-width:1.0;"/><ellipse cx="256" cy="477.9023" fill="#000000" rx="6" ry="6" style="stroke:#7F7F7F;stroke-width:1.0;"/><line style="stroke:#A80036;stroke-width:1.5;" x1="256" x2="256" y1="30" y2="50"/><polygon fill="#A80036" points="252,40,256,50,260,40,256,44" style="stroke:#A80036;stroke-width:1.0;"/><line style="stroke:#A80036;stroke-width:1.5;" x1="256" x2="256" y1="85.0938" y2="105.0938"/><polygon fill="#A80036" points="252,95.0938,256,105.0938,260,95.0938,256,99.0938" style="stroke:#A80036;stroke-width:1.0;"/><line style="stroke:#A80036;stroke-width:1.5;" x1="126.5" x2="126.5" y1="245.7969" y2="270.7148"/><polygon fill="#A80036" points="122.5,260.7148,126.5,270.7148,130.5,260.7148,126.5,264.7148" style="stroke:#A80036;stroke-width:1.0;"/><line style="stroke:#A80036;stroke-width:1.5;" x1="230" x2="242" y1="233.7969" y2="233.7969"/><polygon fill="#A80036" points="238,278.2617,242,288.2617,246,278.2617,242,282.2617" style="stroke:#A80036;stroke-width:1.5;"/><line style="stroke:#A80036;stroke-width:1.5;" x1="242" x2="242" y1="233.7969" y2="337.8086"/><line style="stroke:#A80036;stroke-width:1.5;" x1="242" x2="138.5" y1="337.8086" y2="337.8086"/><polygon fill="#A80036" points="148.5,333.8086,138.5,337.8086,148.5,341.8086,144.5,337.8086" style="stroke:#A80036;stroke-width:1.0;"/><line style="stroke:#A80036;stroke-width:1.5;" x1="126.5" x2="126.5" y1="305.8086" y2="325.8086"/><polygon fill="#A80036" points="122.5,315.8086,126.5,325.8086,130.5,315.8086,126.5,319.8086" style="stroke:#A80036;stroke-width:1.0;"/><line style="stroke:#A80036;stroke-width:1.5;" x1="136.5" x2="126.5" y1="199.7969" y2="199.7969"/><line style="stroke:#A80036;stroke-width:1.5;" x1="126.5" x2="126.5" y1="199.7969" y2="221.7969"/><polygon fill="#A80036" points="122.5,211.7969,126.5,221.7969,130.5,211.7969,126.5,215.7969" style="stroke:#A80036;stroke-width:1.0;"/><line style="stroke:#A80036;stroke-width:1.5;" x1="375.5" x2="385.5" y1="199.7969" y2="199.7969"/><line style="stroke:#A80036;stroke-width:1.5;" x1="385.5" x2="385.5" y1="199.7969" y2="221.7969"/><polygon fill="#A80036" points="381.5,211.7969,385.5,221.7969,389.5,211.7969,385.5,215.7969" style="stroke:#A80036;stroke-width:1.0;"/><line style="stroke:#A80036;stroke-width:1.5;" x1="126.5" x2="126.5" y1="349.8086" y2="367.8086"/><line style="stroke:#A80036;stroke-width:1.5;" x1="126.5" x2="244" y1="367.8086" y2="367.8086"/><polygon fill="#A80036" points="234,363.8086,244,367.8086,234,371.8086,238,367.8086" style="stroke:#A80036;stroke-width:1.0;"/><line style="stroke:#A80036;stroke-width:1.5;" x1="385.5" x2="385.5" y1="256.8906" y2="367.8086"/><line style="stroke:#A80036;stroke-width:1.5;" x1="385.5" x2="268" y1="367.8086" y2="367.8086"/><polygon fill="#A80036" points="278,363.8086,268,367.8086,278,371.8086,274,367.8086" style="stroke:#A80036;stroke-width:1.0;"/><line style="stroke:#A80036;stroke-width:1.5;" x1="256" x2="256" y1="140.1875" y2="187.7969"/><polygon fill="#A80036" points="252,177.7969,256,187.7969,260,177.7969,256,181.7969" style="stroke:#A80036;stroke-width:1.0;"/><line style="stroke:#A80036;stroke-width:1.5;" x1="256" x2="256" y1="379.8086" y2="411.8086"/><polygon fill="#A80036" points="252,401.8086,256,411.8086,260,401.8086,256,405.8086" style="stroke:#A80036;stroke-width:1.0;"/><line style="stroke:#A80036;stroke-width:1.5;" x1="256" x2="256" y1="446.9023" y2="466.9023"/><polygon fill="#A80036" points="252,456.9023,256,466.9023,260,456.9023,256,460.9023" style="stroke:#A80036;stroke-width:1.0;"/><!--MD5=[f9ffb30e56fdeff266a761387f0cfbfa]
@startuml dropRolePt4
start
  :削除するRoleデータを取得する。;
  :DROP Role(Standard Features);
  partition send_message() {
    if(Ogawayamaへメッセージの初期化(Init)する) then (成功)
      if (Ogawayamaへメッセージを送信する) then (成功)
      else (失敗)
        :エラーメッセージ;
      endif
    else (失敗)
      :エラーメッセージ;
    endif
  }
  :結果を返す;
stop
@enduml

PlantUML version 1.2021.7(Sun May 23 21:40:07 JST 2021)
(GPL source distribution)
Java Runtime: Java(TM) SE Runtime Environment
JVM: Java HotSpot(TM) Client VM
Default Encoding: MS932
Language: ja
Country: JP
--></g></svg>