<?xml version="1.0" encoding="UTF-8" standalone="no"?><svg xmlns="http://www.w3.org/2000/svg" xmlns:xlink="http://www.w3.org/1999/xlink" contentScriptType="application/ecmascript" contentStyleType="text/css" height="575px" preserveAspectRatio="none" style="width:546px;height:575px;background:#FFFFFF;" version="1.1" viewBox="0 0 546 575" width="546px" zoomAndPan="magnify"><defs><filter height="300%" id="f170xsyoy8i99y" width="300%" x="-1" y="-1"><feGaussianBlur result="blurOut" stdDeviation="2.0"/><feColorMatrix in="blurOut" result="blurOut2" type="matrix" values="0 0 0 0 0 0 0 0 0 0 0 0 0 0 0 0 0 0 .4 0"/><feOffset dx="4.0" dy="4.0" in="blurOut2" result="blurOut3"/><feBlend in="SourceGraphic" in2="blurOut3" mode="normal"/></filter></defs><g><ellipse cx="270" cy="20" fill="#000000" filter="url(#f170xsyoy8i99y)" rx="10" ry="10" style="stroke:none;stroke-width:1.0;"/><rect fill="#FEFECE" filter="url(#f170xsyoy8i99y)" height="35.0938" rx="12.5" ry="12.5" style="stroke:#A80036;stroke-width:1.5;" width="202" x="169" y="50"/><text fill="#000000" font-family="sans-serif" font-size="12" lengthAdjust="spacing" textLength="182" x="179" y="72.457">削除するRoleデータを取得する。</text><rect fill="#FEFECE" filter="url(#f170xsyoy8i99y)" height="35.0938" rx="12.5" ry="12.5" style="stroke:#A80036;stroke-width:1.5;" width="194" x="173" y="105.0938"/><text fill="#000000" font-family="sans-serif" font-size="12" lengthAdjust="spacing" textLength="174" x="183" y="127.5508">DROP Role(Standard Features)</text><rect fill="#FFFFFF" filter="url(#f170xsyoy8i99y)" height="311.7148" style="stroke:#000000;stroke-width:2.0;" width="518" x="11" y="150.1875"/><path d="M127,150.1875 L127,160.7969 L117,170.7969 L11,170.7969 " fill="none" style="stroke:#000000;stroke-width:2.0;"/><text fill="#000000" font-family="sans-serif" font-size="14" lengthAdjust="spacing" textLength="106" x="14" y="165.7207">send_message()</text><polygon fill="#FEFECE" filter="url(#f170xsyoy8i99y)" points="162.5,187.7969,377.5,187.7969,389.5,199.7969,377.5,211.7969,162.5,211.7969,150.5,199.7969,162.5,187.7969" style="stroke:#A80036;stroke-width:1.5;"/><text fill="#000000" font-family="sans-serif" font-size="11" lengthAdjust="spacing" textLength="215" x="162.5" y="204.2979">Ogawayamaへメッセージの初期化(Init)する</text><text fill="#000000" font-family="sans-serif" font-size="11" lengthAdjust="spacing" textLength="22" x="128.5" y="197.3799">成功</text><text fill="#000000" font-family="sans-serif" font-size="11" lengthAdjust="spacing" textLength="22" x="389.5" y="197.3799">失敗</text><rect fill="#FEFECE" filter="url(#f170xsyoy8i99y)" height="35.0938" rx="12.5" ry="12.5" style="stroke:#A80036;stroke-width:1.5;" width="226" x="23" y="270.7148"/><text fill="#000000" font-family="sans-serif" font-size="12" lengthAdjust="spacing" textLength="206" x="33" y="293.1719">削除したデータを元にRoleを追加する</text><rect fill="#FEFECE" filter="url(#f170xsyoy8i99y)" height="35.0938" rx="12.5" ry="12.5" style="stroke:#A80036;stroke-width:1.5;" width="116" x="78" y="340.8086"/><text fill="#000000" font-family="sans-serif" font-size="12" lengthAdjust="spacing" textLength="96" x="88" y="363.2656">エラーメッセージ</text><polygon fill="#FEFECE" filter="url(#f170xsyoy8i99y)" points="44.5,221.7969,227.5,221.7969,239.5,233.7969,227.5,245.7969,44.5,245.7969,32.5,233.7969,44.5,221.7969" style="stroke:#A80036;stroke-width:1.5;"/><text fill="#000000" font-family="sans-serif" font-size="11" lengthAdjust="spacing" textLength="22" x="140" y="257.2158">失敗</text><text fill="#000000" font-family="sans-serif" font-size="11" lengthAdjust="spacing" textLength="183" x="44.5" y="238.2979">Ogawayamaへメッセージを送信する</text><text fill="#000000" font-family="sans-serif" font-size="11" lengthAdjust="spacing" textLength="22" x="239.5" y="231.3799">成功</text><polygon fill="#FEFECE" filter="url(#f170xsyoy8i99y)" points="136,395.9023,148,407.9023,136,419.9023,124,407.9023,136,395.9023" style="stroke:#A80036;stroke-width:1.5;"/><rect fill="#FEFECE" filter="url(#f170xsyoy8i99y)" height="35.0938" rx="12.5" ry="12.5" style="stroke:#A80036;stroke-width:1.5;" width="226" x="291" y="221.7969"/><text fill="#000000" font-family="sans-serif" font-size="12" lengthAdjust="spacing" textLength="206" x="301" y="244.2539">削除したデータを元にRoleを追加する</text><rect fill="#FEFECE" filter="url(#f170xsyoy8i99y)" height="35.0938" rx="12.5" ry="12.5" style="stroke:#A80036;stroke-width:1.5;" width="116" x="346" y="291.8906"/><text fill="#000000" font-family="sans-serif" font-size="12" lengthAdjust="spacing" textLength="96" x="356" y="314.3477">エラーメッセージ</text><polygon fill="#FEFECE" filter="url(#f170xsyoy8i99y)" points="270,425.9023,282,437.9023,270,449.9023,258,437.9023,270,425.9023" style="stroke:#A80036;stroke-width:1.5;"/><rect fill="#FEFECE" filter="url(#f170xsyoy8i99y)" height="35.0938" rx="12.5" ry="12.5" style="stroke:#A80036;stroke-width:1.5;" width="80" x="230" y="481.9023"/><text fill="#000000" font-family="sans-serif" font-size="12" lengthAdjust="spacing" textLength="60" x="240" y="504.3594">結果を返す</text><ellipse cx="270" cy="547.9961" fill="#FFFFFF" filter="url(#f170xsyoy8i99y)" rx="11" ry="11" style="stroke:#000000;stroke-width:1.0;"/><ellipse cx="270" cy="547.9961" fill="#000000" rx="6" ry="6" style="stroke:#7F7F7F;stroke-width:1.0;"/><line style="stroke:#A80036;stroke-width:1.5;" x1="270" x2="270" y1="30" y2="50"/><polygon fill="#A80036" points="266,40,270,50,274,40,270,44" style="stroke:#A80036;stroke-width:1.0;"/><line style="stroke:#A80036;stroke-width:1.5;" x1="270" x2="270" y1="85.0938" y2="105.0938"/><polygon fill="#A80036" points="266,95.0938,270,105.0938,274,95.0938,270,99.0938" style="stroke:#A80036;stroke-width:1.0;"/><line style="stroke:#A80036;stroke-width:1.5;" x1="136" x2="136" y1="305.8086" y2="340.8086"/><polygon fill="#A80036" points="132,330.8086,136,340.8086,140,330.8086,136,334.8086" style="stroke:#A80036;stroke-width:1.0;"/><line style="stroke:#A80036;stroke-width:1.5;" x1="136" x2="136" y1="245.7969" y2="270.7148"/><polygon fill="#A80036" points="132,260.7148,136,270.7148,140,260.7148,136,264.7148" style="stroke:#A80036;stroke-width:1.0;"/><line style="stroke:#A80036;stroke-width:1.5;" x1="239.5" x2="259" y1="233.7969" y2="233.7969"/><polygon fill="#A80036" points="255,313.3086,259,323.3086,263,313.3086,259,317.3086" style="stroke:#A80036;stroke-width:1.5;"/><line style="stroke:#A80036;stroke-width:1.5;" x1="259" x2="259" y1="233.7969" y2="407.9023"/><line style="stroke:#A80036;stroke-width:1.5;" x1="259" x2="148" y1="407.9023" y2="407.9023"/><polygon fill="#A80036" points="158,403.9023,148,407.9023,158,411.9023,154,407.9023" style="stroke:#A80036;stroke-width:1.0;"/><line style="stroke:#A80036;stroke-width:1.5;" x1="136" x2="136" y1="375.9023" y2="395.9023"/><polygon fill="#A80036" points="132,385.9023,136,395.9023,140,385.9023,136,389.9023" style="stroke:#A80036;stroke-width:1.0;"/><line style="stroke:#A80036;stroke-width:1.5;" x1="404" x2="404" y1="256.8906" y2="291.8906"/><polygon fill="#A80036" points="400,281.8906,404,291.8906,408,281.8906,404,285.8906" style="stroke:#A80036;stroke-width:1.0;"/><line style="stroke:#A80036;stroke-width:1.5;" x1="150.5" x2="136" y1="199.7969" y2="199.7969"/><line style="stroke:#A80036;stroke-width:1.5;" x1="136" x2="136" y1="199.7969" y2="221.7969"/><polygon fill="#A80036" points="132,211.7969,136,221.7969,140,211.7969,136,215.7969" style="stroke:#A80036;stroke-width:1.0;"/><line style="stroke:#A80036;stroke-width:1.5;" x1="389.5" x2="404" y1="199.7969" y2="199.7969"/><line style="stroke:#A80036;stroke-width:1.5;" x1="404" x2="404" y1="199.7969" y2="221.7969"/><polygon fill="#A80036" points="400,211.7969,404,221.7969,408,211.7969,404,215.7969" style="stroke:#A80036;stroke-width:1.0;"/><line style="stroke:#A80036;stroke-width:1.5;" x1="136" x2="136" y1="419.9023" y2="437.9023"/><line style="stroke:#A80036;stroke-width:1.5;" x1="136" x2="258" y1="437.9023" y2="437.9023"/><polygon fill="#A80036" points="248,433.9023,258,437.9023,248,441.9023,252,437.9023" style="stroke:#A80036;stroke-width:1.0;"/><line style="stroke:#A80036;stroke-width:1.5;" x1="404" x2="404" y1="326.9844" y2="437.9023"/><line style="stroke:#A80036;stroke-width:1.5;" x1="404" x2="282" y1="437.9023" y2="437.9023"/><polygon fill="#A80036" points="292,433.9023,282,437.9023,292,441.9023,288,437.9023" style="stroke:#A80036;stroke-width:1.0;"/><line style="stroke:#A80036;stroke-width:1.5;" x1="270" x2="270" y1="140.1875" y2="187.7969"/><polygon fill="#A80036" points="266,177.7969,270,187.7969,274,177.7969,270,181.7969" style="stroke:#A80036;stroke-width:1.0;"/><line style="stroke:#A80036;stroke-width:1.5;" x1="270" x2="270" y1="449.9023" y2="481.9023"/><polygon fill="#A80036" points="266,471.9023,270,481.9023,274,471.9023,270,475.9023" style="stroke:#A80036;stroke-width:1.0;"/><line style="stroke:#A80036;stroke-width:1.5;" x1="270" x2="270" y1="516.9961" y2="536.9961"/><polygon fill="#A80036" points="266,526.9961,270,536.9961,274,526.9961,270,530.9961" style="stroke:#A80036;stroke-width:1.0;"/><!--MD5=[2a96ed7fbb3a94a95b4a8b9d491f293f]
@startuml dropRolePt1
start
  :削除するRoleデータを取得する。;
  :DROP Role(Standard Features);
  partition send_message() {
    if(Ogawayamaへメッセージの初期化(Init)する) then (成功)
      if (Ogawayamaへメッセージを送信する) then (成功)
      else (失敗)
        :削除したデータを元にRoleを追加する;
        :エラーメッセージ;
      endif
    else (失敗)
      :削除したデータを元にRoleを追加する;
      :エラーメッセージ;
    endif
  }
  :結果を返す;
stop
@enduml

PlantUML version 1.2021.7(Sun May 23 21:40:07 JST 2021)
(GPL source distribution)
Java Runtime: Java(TM) SE Runtime Environment
JVM: Java HotSpot(TM) Client VM
Default Encoding: MS932
Language: ja
Country: JP
--></g></svg>