<?xml version="1.0" encoding="UTF-8" standalone="no"?><svg xmlns="http://www.w3.org/2000/svg" xmlns:xlink="http://www.w3.org/1999/xlink" contentScriptType="application/ecmascript" contentStyleType="text/css" height="896px" preserveAspectRatio="none" style="width:341px;height:896px;background:#FFFFFF;" version="1.1" viewBox="0 0 341 896" width="341px" zoomAndPan="magnify"><defs><filter height="300%" id="f8wi5sge2veua" width="300%" x="-1" y="-1"><feGaussianBlur result="blurOut" stdDeviation="2.0"/><feColorMatrix in="blurOut" result="blurOut2" type="matrix" values="0 0 0 0 0 0 0 0 0 0 0 0 0 0 0 0 0 0 .4 0"/><feOffset dx="4.0" dy="4.0" in="blurOut2" result="blurOut3"/><feBlend in="SourceGraphic" in2="blurOut3" mode="normal"/></filter></defs><g><ellipse cx="167.5" cy="20" fill="#000000" filter="url(#f8wi5sge2veua)" rx="10" ry="10" style="stroke:none;stroke-width:1.0;"/><rect fill="#FEFECE" filter="url(#f8wi5sge2veua)" height="35.0938" rx="12.5" ry="12.5" style="stroke:#A80036;stroke-width:1.5;" width="202" x="66.5" y="50"/><text fill="#000000" font-family="sans-serif" font-size="12" lengthAdjust="spacing" textLength="182" x="76.5" y="72.457">削除するRoleデータを取得する。</text><rect fill="#FEFECE" filter="url(#f8wi5sge2veua)" height="35.0938" rx="12.5" ry="12.5" style="stroke:#A80036;stroke-width:1.5;" width="194" x="70.5" y="105.0938"/><text fill="#000000" font-family="sans-serif" font-size="12" lengthAdjust="spacing" textLength="174" x="80.5" y="127.5508">DROP Role(Standard Features)</text><rect fill="#FFFFFF" filter="url(#f8wi5sge2veua)" height="631.7266" style="stroke:#000000;stroke-width:2.0;" width="313" x="11" y="150.1875"/><path d="M127,150.1875 L127,160.7969 L117,170.7969 L11,170.7969 " fill="none" style="stroke:#000000;stroke-width:2.0;"/><text fill="#000000" font-family="sans-serif" font-size="14" lengthAdjust="spacing" textLength="106" x="14" y="165.7207">send_message()</text><rect fill="#FEFECE" filter="url(#f8wi5sge2veua)" height="35.0938" rx="12.5" ry="12.5" style="stroke:#A80036;stroke-width:1.5;" width="116" x="109.5" y="280.7148"/><text fill="#000000" font-family="sans-serif" font-size="12" lengthAdjust="spacing" textLength="96" x="119.5" y="303.1719">エラーメッセージ</text><ellipse cx="167.5" cy="358.7617" fill="#FFFFFF" filter="url(#f8wi5sge2veua)" rx="11" ry="11" style="stroke:#000000;stroke-width:1.0;"/><ellipse cx="167.5" cy="358.7617" fill="#000000" rx="6" ry="6" style="stroke:#7F7F7F;stroke-width:1.0;"/><polygon fill="#FEFECE" filter="url(#f8wi5sge2veua)" points="112.5,231.7969,222.5,231.7969,234.5,243.7969,222.5,255.7969,112.5,255.7969,100.5,243.7969,112.5,231.7969" style="stroke:#A80036;stroke-width:1.5;"/><text fill="#000000" font-family="sans-serif" font-size="11" lengthAdjust="spacing" textLength="21" x="171.5" y="267.2158">YES</text><text fill="#000000" font-family="sans-serif" font-size="11" lengthAdjust="spacing" textLength="110" x="112.5" y="248.2979">リトライ回数を超えた</text><rect fill="#FEFECE" filter="url(#f8wi5sge2veua)" height="35.0938" rx="12.5" ry="12.5" style="stroke:#A80036;stroke-width:1.5;" width="257" x="39" y="411.7617"/><text fill="#000000" font-family="sans-serif" font-size="12" lengthAdjust="spacing" textLength="237" x="49" y="434.2188">Ogawayamaへメッセージの初期化(Init)する</text><polygon fill="#FEFECE" filter="url(#f8wi5sge2veua)" points="153.5,187.7969,181.5,187.7969,193.5,199.7969,181.5,211.7969,153.5,211.7969,141.5,199.7969,153.5,187.7969" style="stroke:#A80036;stroke-width:1.5;"/><text fill="#000000" font-family="sans-serif" font-size="11" lengthAdjust="spacing" textLength="28" x="153.5" y="204.2979">成功?</text><rect fill="#FEFECE" filter="url(#f8wi5sge2veua)" height="35.0938" rx="12.5" ry="12.5" style="stroke:#A80036;stroke-width:1.5;" width="116" x="109.5" y="581.7734"/><text fill="#000000" font-family="sans-serif" font-size="12" lengthAdjust="spacing" textLength="96" x="119.5" y="604.2305">エラーメッセージ</text><ellipse cx="167.5" cy="659.8203" fill="#FFFFFF" filter="url(#f8wi5sge2veua)" rx="11" ry="11" style="stroke:#000000;stroke-width:1.0;"/><ellipse cx="167.5" cy="659.8203" fill="#000000" rx="6" ry="6" style="stroke:#7F7F7F;stroke-width:1.0;"/><polygon fill="#FEFECE" filter="url(#f8wi5sge2veua)" points="112.5,532.8555,222.5,532.8555,234.5,544.8555,222.5,556.8555,112.5,556.8555,100.5,544.8555,112.5,532.8555" style="stroke:#A80036;stroke-width:1.5;"/><text fill="#000000" font-family="sans-serif" font-size="11" lengthAdjust="spacing" textLength="21" x="171.5" y="568.2744">YES</text><text fill="#000000" font-family="sans-serif" font-size="11" lengthAdjust="spacing" textLength="110" x="112.5" y="549.3564">リトライ回数を超えた</text><rect fill="#FEFECE" filter="url(#f8wi5sge2veua)" height="35.0938" rx="12.5" ry="12.5" style="stroke:#A80036;stroke-width:1.5;" width="221" x="57" y="712.8203"/><text fill="#000000" font-family="sans-serif" font-size="12" lengthAdjust="spacing" textLength="201" x="67" y="735.2773">Ogawayamaへメッセージを送信する</text><polygon fill="#FEFECE" filter="url(#f8wi5sge2veua)" points="153.5,488.8555,181.5,488.8555,193.5,500.8555,181.5,512.8555,153.5,512.8555,141.5,500.8555,153.5,488.8555" style="stroke:#A80036;stroke-width:1.5;"/><text fill="#000000" font-family="sans-serif" font-size="11" lengthAdjust="spacing" textLength="28" x="153.5" y="505.3564">成功?</text><rect fill="#FEFECE" filter="url(#f8wi5sge2veua)" height="35.0938" rx="12.5" ry="12.5" style="stroke:#A80036;stroke-width:1.5;" width="80" x="127.5" y="801.9141"/><text fill="#000000" font-family="sans-serif" font-size="12" lengthAdjust="spacing" textLength="60" x="137.5" y="824.3711">結果を返す</text><ellipse cx="167.5" cy="868.0078" fill="#FFFFFF" filter="url(#f8wi5sge2veua)" rx="11" ry="11" style="stroke:#000000;stroke-width:1.0;"/><ellipse cx="167.5" cy="868.0078" fill="#000000" rx="6" ry="6" style="stroke:#7F7F7F;stroke-width:1.0;"/><line style="stroke:#A80036;stroke-width:1.5;" x1="167.5" x2="167.5" y1="30" y2="50"/><polygon fill="#A80036" points="163.5,40,167.5,50,171.5,40,167.5,44" style="stroke:#A80036;stroke-width:1.0;"/><line style="stroke:#A80036;stroke-width:1.5;" x1="167.5" x2="167.5" y1="85.0938" y2="105.0938"/><polygon fill="#A80036" points="163.5,95.0938,167.5,105.0938,171.5,95.0938,167.5,99.0938" style="stroke:#A80036;stroke-width:1.0;"/><line style="stroke:#A80036;stroke-width:1.5;" x1="167.5" x2="167.5" y1="315.8086" y2="347.7617"/><polygon fill="#A80036" points="163.5,337.7617,167.5,347.7617,171.5,337.7617,167.5,341.7617" style="stroke:#A80036;stroke-width:1.0;"/><line style="stroke:#A80036;stroke-width:1.5;" x1="167.5" x2="167.5" y1="255.7969" y2="280.7148"/><polygon fill="#A80036" points="163.5,270.7148,167.5,280.7148,171.5,270.7148,167.5,274.7148" style="stroke:#A80036;stroke-width:1.0;"/><line style="stroke:#A80036;stroke-width:1.5;" x1="234.5" x2="246.5" y1="243.7969" y2="243.7969"/><polygon fill="#A80036" points="242.5,313.7617,246.5,323.7617,250.5,313.7617,246.5,317.7617" style="stroke:#A80036;stroke-width:1.5;"/><line style="stroke:#A80036;stroke-width:1.5;" x1="246.5" x2="246.5" y1="243.7969" y2="391.7617"/><line style="stroke:#A80036;stroke-width:1.5;" x1="246.5" x2="167.5" y1="391.7617" y2="391.7617"/><line style="stroke:#A80036;stroke-width:1.5;" x1="167.5" x2="167.5" y1="391.7617" y2="411.7617"/><polygon fill="#A80036" points="163.5,401.7617,167.5,411.7617,171.5,401.7617,167.5,405.7617" style="stroke:#A80036;stroke-width:1.0;"/><line style="stroke:#A80036;stroke-width:1.5;" x1="167.5" x2="167.5" y1="211.7969" y2="231.7969"/><polygon fill="#A80036" points="163.5,221.7969,167.5,231.7969,171.5,221.7969,167.5,225.7969" style="stroke:#A80036;stroke-width:1.0;"/><line style="stroke:#A80036;stroke-width:1.5;" x1="167.5" x2="167.5" y1="446.8555" y2="456.8555"/><line style="stroke:#A80036;stroke-width:1.5;" x1="167.5" x2="308" y1="456.8555" y2="456.8555"/><polygon fill="#A80036" points="304,347.7617,308,337.7617,312,347.7617,308,343.7617" style="stroke:#A80036;stroke-width:1.5;"/><line style="stroke:#A80036;stroke-width:1.5;" x1="308" x2="308" y1="199.7969" y2="456.8555"/><line style="stroke:#A80036;stroke-width:1.5;" x1="308" x2="193.5" y1="199.7969" y2="199.7969"/><polygon fill="#A80036" points="203.5,195.7969,193.5,199.7969,203.5,203.7969,199.5,199.7969" style="stroke:#A80036;stroke-width:1.0;"/><line style="stroke:#A80036;stroke-width:1.5;" x1="141.5" x2="27" y1="199.7969" y2="199.7969"/><polygon fill="#A80036" points="23,333.7617,27,343.7617,31,333.7617,27,337.7617" style="stroke:#A80036;stroke-width:1.5;"/><line style="stroke:#A80036;stroke-width:1.5;" x1="27" x2="27" y1="199.7969" y2="468.8555"/><line style="stroke:#A80036;stroke-width:1.5;" x1="27" x2="167.5" y1="468.8555" y2="468.8555"/><line style="stroke:#A80036;stroke-width:1.5;" x1="167.5" x2="167.5" y1="468.8555" y2="488.8555"/><polygon fill="#A80036" points="163.5,478.8555,167.5,488.8555,171.5,478.8555,167.5,482.8555" style="stroke:#A80036;stroke-width:1.0;"/><line style="stroke:#A80036;stroke-width:1.5;" x1="167.5" x2="167.5" y1="616.8672" y2="648.8203"/><polygon fill="#A80036" points="163.5,638.8203,167.5,648.8203,171.5,638.8203,167.5,642.8203" style="stroke:#A80036;stroke-width:1.0;"/><line style="stroke:#A80036;stroke-width:1.5;" x1="167.5" x2="167.5" y1="556.8555" y2="581.7734"/><polygon fill="#A80036" points="163.5,571.7734,167.5,581.7734,171.5,571.7734,167.5,575.7734" style="stroke:#A80036;stroke-width:1.0;"/><line style="stroke:#A80036;stroke-width:1.5;" x1="234.5" x2="246.5" y1="544.8555" y2="544.8555"/><polygon fill="#A80036" points="242.5,614.8203,246.5,624.8203,250.5,614.8203,246.5,618.8203" style="stroke:#A80036;stroke-width:1.5;"/><line style="stroke:#A80036;stroke-width:1.5;" x1="246.5" x2="246.5" y1="544.8555" y2="692.8203"/><line style="stroke:#A80036;stroke-width:1.5;" x1="246.5" x2="167.5" y1="692.8203" y2="692.8203"/><line style="stroke:#A80036;stroke-width:1.5;" x1="167.5" x2="167.5" y1="692.8203" y2="712.8203"/><polygon fill="#A80036" points="163.5,702.8203,167.5,712.8203,171.5,702.8203,167.5,706.8203" style="stroke:#A80036;stroke-width:1.0;"/><line style="stroke:#A80036;stroke-width:1.5;" x1="167.5" x2="167.5" y1="512.8555" y2="532.8555"/><polygon fill="#A80036" points="163.5,522.8555,167.5,532.8555,171.5,522.8555,167.5,526.8555" style="stroke:#A80036;stroke-width:1.0;"/><line style="stroke:#A80036;stroke-width:1.5;" x1="167.5" x2="167.5" y1="747.9141" y2="757.9141"/><line style="stroke:#A80036;stroke-width:1.5;" x1="167.5" x2="290" y1="757.9141" y2="757.9141"/><polygon fill="#A80036" points="286,648.8203,290,638.8203,294,648.8203,290,644.8203" style="stroke:#A80036;stroke-width:1.5;"/><line style="stroke:#A80036;stroke-width:1.5;" x1="290" x2="290" y1="500.8555" y2="757.9141"/><line style="stroke:#A80036;stroke-width:1.5;" x1="290" x2="193.5" y1="500.8555" y2="500.8555"/><polygon fill="#A80036" points="203.5,496.8555,193.5,500.8555,203.5,504.8555,199.5,500.8555" style="stroke:#A80036;stroke-width:1.0;"/><line style="stroke:#A80036;stroke-width:1.5;" x1="141.5" x2="45" y1="500.8555" y2="500.8555"/><polygon fill="#A80036" points="41,634.8203,45,644.8203,49,634.8203,45,638.8203" style="stroke:#A80036;stroke-width:1.5;"/><line style="stroke:#A80036;stroke-width:1.5;" x1="45" x2="45" y1="500.8555" y2="769.9141"/><line style="stroke:#A80036;stroke-width:1.5;" x1="45" x2="167.5" y1="769.9141" y2="769.9141"/><line style="stroke:#A80036;stroke-width:1.5;" x1="167.5" x2="167.5" y1="769.9141" y2="801.9141"/><polygon fill="#A80036" points="163.5,791.9141,167.5,801.9141,171.5,791.9141,167.5,795.9141" style="stroke:#A80036;stroke-width:1.0;"/><line style="stroke:#A80036;stroke-width:1.5;" x1="167.5" x2="167.5" y1="140.1875" y2="187.7969"/><polygon fill="#A80036" points="163.5,177.7969,167.5,187.7969,171.5,177.7969,167.5,181.7969" style="stroke:#A80036;stroke-width:1.0;"/><line style="stroke:#A80036;stroke-width:1.5;" x1="167.5" x2="167.5" y1="837.0078" y2="857.0078"/><polygon fill="#A80036" points="163.5,847.0078,167.5,857.0078,171.5,847.0078,167.5,851.0078" style="stroke:#A80036;stroke-width:1.0;"/><!--MD5=[d3e455b518d1d9dae46623735d9114e4]
@startuml dropRolePt3
start
  :削除するRoleデータを取得する。;
  :DROP Role(Standard Features);
  partition send_message() {
    while (成功?)
      if (リトライ回数を超えた) then (YES) 
        :エラーメッセージ;
        stop
      endif
      :Ogawayamaへメッセージの初期化(Init)する;
    endwhile
    while (成功?)
      if (リトライ回数を超えた) then (YES) 
        :エラーメッセージ;
        stop
      endif
      :Ogawayamaへメッセージを送信する;
    endwhile
  }
  :結果を返す;
stop
@enduml

PlantUML version 1.2021.7(Sun May 23 21:40:07 JST 2021)
(GPL source distribution)
Java Runtime: Java(TM) SE Runtime Environment
JVM: Java HotSpot(TM) Client VM
Default Encoding: MS932
Language: ja
Country: JP
--></g></svg>