<?xml version="1.0" encoding="UTF-8" standalone="no"?><svg xmlns="http://www.w3.org/2000/svg" xmlns:xlink="http://www.w3.org/1999/xlink" contentScriptType="application/ecmascript" contentStyleType="text/css" height="850px" preserveAspectRatio="none" style="width:491px;height:850px;background:#FFFFFF;" version="1.1" viewBox="0 0 491 850" width="491px" zoomAndPan="magnify"><defs><filter height="300%" id="fnqpd5dq7enlh" width="300%" x="-1" y="-1"><feGaussianBlur result="blurOut" stdDeviation="2.0"/><feColorMatrix in="blurOut" result="blurOut2" type="matrix" values="0 0 0 0 0 0 0 0 0 0 0 0 0 0 0 0 0 0 .4 0"/><feOffset dx="4.0" dy="4.0" in="blurOut2" result="blurOut3"/><feBlend in="SourceGraphic" in2="blurOut3" mode="normal"/></filter></defs><g><ellipse cx="256" cy="20" fill="#000000" filter="url(#fnqpd5dq7enlh)" rx="10" ry="10" style="stroke:none;stroke-width:1.0;"/><rect fill="#FEFECE" filter="url(#fnqpd5dq7enlh)" height="35.0938" rx="12.5" ry="12.5" style="stroke:#A80036;stroke-width:1.5;" width="202" x="155" y="50"/><text fill="#000000" font-family="sans-serif" font-size="12" lengthAdjust="spacing" textLength="182" x="165" y="72.457">削除するRoleデータを取得する。</text><rect fill="#FFFFFF" filter="url(#fnqpd5dq7enlh)" height="241.6211" style="stroke:#000000;stroke-width:2.0;" width="444.5" x="11" y="95.0938"/><path d="M127,95.0938 L127,105.7031 L117,115.7031 L11,115.7031 " fill="none" style="stroke:#000000;stroke-width:2.0;"/><text fill="#000000" font-family="sans-serif" font-size="14" lengthAdjust="spacing" textLength="106" x="14" y="110.627">send_message()</text><polygon fill="#FEFECE" filter="url(#fnqpd5dq7enlh)" points="148.5,132.7031,363.5,132.7031,375.5,144.7031,363.5,156.7031,148.5,156.7031,136.5,144.7031,148.5,132.7031" style="stroke:#A80036;stroke-width:1.5;"/><text fill="#000000" font-family="sans-serif" font-size="11" lengthAdjust="spacing" textLength="215" x="148.5" y="149.2041">Ogawayamaへメッセージの初期化(Init)する</text><text fill="#000000" font-family="sans-serif" font-size="11" lengthAdjust="spacing" textLength="22" x="114.5" y="142.2861">成功</text><text fill="#000000" font-family="sans-serif" font-size="11" lengthAdjust="spacing" textLength="22" x="375.5" y="142.2861">失敗</text><rect fill="#FEFECE" filter="url(#fnqpd5dq7enlh)" height="35.0938" rx="12.5" ry="12.5" style="stroke:#A80036;stroke-width:1.5;" width="116" x="68.5" y="215.6211"/><text fill="#000000" font-family="sans-serif" font-size="12" lengthAdjust="spacing" textLength="96" x="78.5" y="238.0781">エラーメッセージ</text><polygon fill="#FEFECE" filter="url(#fnqpd5dq7enlh)" points="35,166.7031,218,166.7031,230,178.7031,218,190.7031,35,190.7031,23,178.7031,35,166.7031" style="stroke:#A80036;stroke-width:1.5;"/><text fill="#000000" font-family="sans-serif" font-size="11" lengthAdjust="spacing" textLength="22" x="130.5" y="202.1221">失敗</text><text fill="#000000" font-family="sans-serif" font-size="11" lengthAdjust="spacing" textLength="183" x="35" y="183.2041">Ogawayamaへメッセージを送信する</text><text fill="#000000" font-family="sans-serif" font-size="11" lengthAdjust="spacing" textLength="22" x="230" y="176.2861">成功</text><polygon fill="#FEFECE" filter="url(#fnqpd5dq7enlh)" points="126.5,270.7148,138.5,282.7148,126.5,294.7148,114.5,282.7148,126.5,270.7148" style="stroke:#A80036;stroke-width:1.5;"/><rect fill="#FEFECE" filter="url(#fnqpd5dq7enlh)" height="35.0938" rx="12.5" ry="12.5" style="stroke:#A80036;stroke-width:1.5;" width="116" x="327.5" y="166.7031"/><text fill="#000000" font-family="sans-serif" font-size="12" lengthAdjust="spacing" textLength="96" x="337.5" y="189.1602">エラーメッセージ</text><polygon fill="#FEFECE" filter="url(#fnqpd5dq7enlh)" points="256,300.7148,268,312.7148,256,324.7148,244,312.7148,256,300.7148" style="stroke:#A80036;stroke-width:1.5;"/><rect fill="#FEFECE" filter="url(#fnqpd5dq7enlh)" height="35.0938" rx="12.5" ry="12.5" style="stroke:#A80036;stroke-width:1.5;" width="194" x="159" y="405.6328"/><text fill="#000000" font-family="sans-serif" font-size="12" lengthAdjust="spacing" textLength="174" x="169" y="428.0898">DROP Role(Standard Features)</text><rect fill="#FFFFFF" filter="url(#fnqpd5dq7enlh)" height="241.6211" style="stroke:#000000;stroke-width:2.0;" width="444.5" x="11" y="450.7266"/><path d="M127,450.7266 L127,461.3359 L117,471.3359 L11,471.3359 " fill="none" style="stroke:#000000;stroke-width:2.0;"/><text fill="#000000" font-family="sans-serif" font-size="14" lengthAdjust="spacing" textLength="106" x="14" y="466.2598">send_message()</text><polygon fill="#FEFECE" filter="url(#fnqpd5dq7enlh)" points="148.5,488.3359,363.5,488.3359,375.5,500.3359,363.5,512.3359,148.5,512.3359,136.5,500.3359,148.5,488.3359" style="stroke:#A80036;stroke-width:1.5;"/><text fill="#000000" font-family="sans-serif" font-size="11" lengthAdjust="spacing" textLength="215" x="148.5" y="504.8369">Ogawayamaへメッセージの初期化(Init)する</text><text fill="#000000" font-family="sans-serif" font-size="11" lengthAdjust="spacing" textLength="22" x="114.5" y="497.9189">成功</text><text fill="#000000" font-family="sans-serif" font-size="11" lengthAdjust="spacing" textLength="22" x="375.5" y="497.9189">失敗</text><rect fill="#FEFECE" filter="url(#fnqpd5dq7enlh)" height="35.0938" rx="12.5" ry="12.5" style="stroke:#A80036;stroke-width:1.5;" width="116" x="68.5" y="571.2539"/><text fill="#000000" font-family="sans-serif" font-size="12" lengthAdjust="spacing" textLength="96" x="78.5" y="593.7109">エラーメッセージ</text><polygon fill="#FEFECE" filter="url(#fnqpd5dq7enlh)" points="35,522.3359,218,522.3359,230,534.3359,218,546.3359,35,546.3359,23,534.3359,35,522.3359" style="stroke:#A80036;stroke-width:1.5;"/><text fill="#000000" font-family="sans-serif" font-size="11" lengthAdjust="spacing" textLength="22" x="130.5" y="557.7549">失敗</text><text fill="#000000" font-family="sans-serif" font-size="11" lengthAdjust="spacing" textLength="183" x="35" y="538.8369">Ogawayamaへメッセージを送信する</text><text fill="#000000" font-family="sans-serif" font-size="11" lengthAdjust="spacing" textLength="22" x="230" y="531.9189">成功</text><polygon fill="#FEFECE" filter="url(#fnqpd5dq7enlh)" points="126.5,626.3477,138.5,638.3477,126.5,650.3477,114.5,638.3477,126.5,626.3477" style="stroke:#A80036;stroke-width:1.5;"/><rect fill="#FEFECE" filter="url(#fnqpd5dq7enlh)" height="35.0938" rx="12.5" ry="12.5" style="stroke:#A80036;stroke-width:1.5;" width="116" x="327.5" y="522.3359"/><text fill="#000000" font-family="sans-serif" font-size="12" lengthAdjust="spacing" textLength="96" x="337.5" y="544.793">エラーメッセージ</text><polygon fill="#FEFECE" filter="url(#fnqpd5dq7enlh)" points="256,656.3477,268,668.3477,256,680.3477,244,668.3477,256,656.3477" style="stroke:#A80036;stroke-width:1.5;"/><polygon fill="#FEFECE" filter="url(#fnqpd5dq7enlh)" points="202.5,356.7148,309.5,356.7148,321.5,368.7148,309.5,380.7148,202.5,380.7148,190.5,368.7148,202.5,356.7148" style="stroke:#A80036;stroke-width:1.5;"/><text fill="#000000" font-family="sans-serif" font-size="11" lengthAdjust="spacing" textLength="22" x="260" y="392.1338">成功</text><text fill="#000000" font-family="sans-serif" font-size="11" lengthAdjust="spacing" textLength="107" x="202.5" y="373.2158">send_messageの結果</text><polygon fill="#FEFECE" filter="url(#fnqpd5dq7enlh)" points="256,712.3477,268,724.3477,256,736.3477,244,724.3477,256,712.3477" style="stroke:#A80036;stroke-width:1.5;"/><rect fill="#FEFECE" filter="url(#fnqpd5dq7enlh)" height="35.0938" rx="12.5" ry="12.5" style="stroke:#A80036;stroke-width:1.5;" width="80" x="216" y="756.3477"/><text fill="#000000" font-family="sans-serif" font-size="12" lengthAdjust="spacing" textLength="60" x="226" y="778.8047">結果を返す</text><ellipse cx="256" cy="822.4414" fill="#FFFFFF" filter="url(#fnqpd5dq7enlh)" rx="11" ry="11" style="stroke:#000000;stroke-width:1.0;"/><ellipse cx="256" cy="822.4414" fill="#000000" rx="6" ry="6" style="stroke:#7F7F7F;stroke-width:1.0;"/><line style="stroke:#A80036;stroke-width:1.5;" x1="256" x2="256" y1="30" y2="50"/><polygon fill="#A80036" points="252,40,256,50,260,40,256,44" style="stroke:#A80036;stroke-width:1.0;"/><line style="stroke:#A80036;stroke-width:1.5;" x1="126.5" x2="126.5" y1="190.7031" y2="215.6211"/><polygon fill="#A80036" points="122.5,205.6211,126.5,215.6211,130.5,205.6211,126.5,209.6211" style="stroke:#A80036;stroke-width:1.0;"/><line style="stroke:#A80036;stroke-width:1.5;" x1="230" x2="242" y1="178.7031" y2="178.7031"/><polygon fill="#A80036" points="238,223.168,242,233.168,246,223.168,242,227.168" style="stroke:#A80036;stroke-width:1.5;"/><line style="stroke:#A80036;stroke-width:1.5;" x1="242" x2="242" y1="178.7031" y2="282.7148"/><line style="stroke:#A80036;stroke-width:1.5;" x1="242" x2="138.5" y1="282.7148" y2="282.7148"/><polygon fill="#A80036" points="148.5,278.7148,138.5,282.7148,148.5,286.7148,144.5,282.7148" style="stroke:#A80036;stroke-width:1.0;"/><line style="stroke:#A80036;stroke-width:1.5;" x1="126.5" x2="126.5" y1="250.7148" y2="270.7148"/><polygon fill="#A80036" points="122.5,260.7148,126.5,270.7148,130.5,260.7148,126.5,264.7148" style="stroke:#A80036;stroke-width:1.0;"/><line style="stroke:#A80036;stroke-width:1.5;" x1="136.5" x2="126.5" y1="144.7031" y2="144.7031"/><line style="stroke:#A80036;stroke-width:1.5;" x1="126.5" x2="126.5" y1="144.7031" y2="166.7031"/><polygon fill="#A80036" points="122.5,156.7031,126.5,166.7031,130.5,156.7031,126.5,160.7031" style="stroke:#A80036;stroke-width:1.0;"/><line style="stroke:#A80036;stroke-width:1.5;" x1="375.5" x2="385.5" y1="144.7031" y2="144.7031"/><line style="stroke:#A80036;stroke-width:1.5;" x1="385.5" x2="385.5" y1="144.7031" y2="166.7031"/><polygon fill="#A80036" points="381.5,156.7031,385.5,166.7031,389.5,156.7031,385.5,160.7031" style="stroke:#A80036;stroke-width:1.0;"/><line style="stroke:#A80036;stroke-width:1.5;" x1="126.5" x2="126.5" y1="294.7148" y2="312.7148"/><line style="stroke:#A80036;stroke-width:1.5;" x1="126.5" x2="244" y1="312.7148" y2="312.7148"/><polygon fill="#A80036" points="234,308.7148,244,312.7148,234,316.7148,238,312.7148" style="stroke:#A80036;stroke-width:1.0;"/><line style="stroke:#A80036;stroke-width:1.5;" x1="385.5" x2="385.5" y1="201.7969" y2="312.7148"/><line style="stroke:#A80036;stroke-width:1.5;" x1="385.5" x2="268" y1="312.7148" y2="312.7148"/><polygon fill="#A80036" points="278,308.7148,268,312.7148,278,316.7148,274,312.7148" style="stroke:#A80036;stroke-width:1.0;"/><line style="stroke:#A80036;stroke-width:1.5;" x1="256" x2="256" y1="85.0938" y2="132.7031"/><polygon fill="#A80036" points="252,122.7031,256,132.7031,260,122.7031,256,126.7031" style="stroke:#A80036;stroke-width:1.0;"/><line style="stroke:#A80036;stroke-width:1.5;" x1="126.5" x2="126.5" y1="546.3359" y2="571.2539"/><polygon fill="#A80036" points="122.5,561.2539,126.5,571.2539,130.5,561.2539,126.5,565.2539" style="stroke:#A80036;stroke-width:1.0;"/><line style="stroke:#A80036;stroke-width:1.5;" x1="230" x2="242" y1="534.3359" y2="534.3359"/><polygon fill="#A80036" points="238,578.8008,242,588.8008,246,578.8008,242,582.8008" style="stroke:#A80036;stroke-width:1.5;"/><line style="stroke:#A80036;stroke-width:1.5;" x1="242" x2="242" y1="534.3359" y2="638.3477"/><line style="stroke:#A80036;stroke-width:1.5;" x1="242" x2="138.5" y1="638.3477" y2="638.3477"/><polygon fill="#A80036" points="148.5,634.3477,138.5,638.3477,148.5,642.3477,144.5,638.3477" style="stroke:#A80036;stroke-width:1.0;"/><line style="stroke:#A80036;stroke-width:1.5;" x1="126.5" x2="126.5" y1="606.3477" y2="626.3477"/><polygon fill="#A80036" points="122.5,616.3477,126.5,626.3477,130.5,616.3477,126.5,620.3477" style="stroke:#A80036;stroke-width:1.0;"/><line style="stroke:#A80036;stroke-width:1.5;" x1="136.5" x2="126.5" y1="500.3359" y2="500.3359"/><line style="stroke:#A80036;stroke-width:1.5;" x1="126.5" x2="126.5" y1="500.3359" y2="522.3359"/><polygon fill="#A80036" points="122.5,512.3359,126.5,522.3359,130.5,512.3359,126.5,516.3359" style="stroke:#A80036;stroke-width:1.0;"/><line style="stroke:#A80036;stroke-width:1.5;" x1="375.5" x2="385.5" y1="500.3359" y2="500.3359"/><line style="stroke:#A80036;stroke-width:1.5;" x1="385.5" x2="385.5" y1="500.3359" y2="522.3359"/><polygon fill="#A80036" points="381.5,512.3359,385.5,522.3359,389.5,512.3359,385.5,516.3359" style="stroke:#A80036;stroke-width:1.0;"/><line style="stroke:#A80036;stroke-width:1.5;" x1="126.5" x2="126.5" y1="650.3477" y2="668.3477"/><line style="stroke:#A80036;stroke-width:1.5;" x1="126.5" x2="244" y1="668.3477" y2="668.3477"/><polygon fill="#A80036" points="234,664.3477,244,668.3477,234,672.3477,238,668.3477" style="stroke:#A80036;stroke-width:1.0;"/><line style="stroke:#A80036;stroke-width:1.5;" x1="385.5" x2="385.5" y1="557.4297" y2="668.3477"/><line style="stroke:#A80036;stroke-width:1.5;" x1="385.5" x2="268" y1="668.3477" y2="668.3477"/><polygon fill="#A80036" points="278,664.3477,268,668.3477,278,672.3477,274,668.3477" style="stroke:#A80036;stroke-width:1.0;"/><line style="stroke:#A80036;stroke-width:1.5;" x1="256" x2="256" y1="440.7266" y2="488.3359"/><polygon fill="#A80036" points="252,478.3359,256,488.3359,260,478.3359,256,482.3359" style="stroke:#A80036;stroke-width:1.0;"/><line style="stroke:#A80036;stroke-width:1.5;" x1="256" x2="256" y1="380.7148" y2="405.6328"/><polygon fill="#A80036" points="252,395.6328,256,405.6328,260,395.6328,256,399.6328" style="stroke:#A80036;stroke-width:1.0;"/><line style="stroke:#A80036;stroke-width:1.5;" x1="321.5" x2="465.5" y1="368.7148" y2="368.7148"/><polygon fill="#A80036" points="461.5,532.9492,465.5,542.9492,469.5,532.9492,465.5,536.9492" style="stroke:#A80036;stroke-width:1.5;"/><line style="stroke:#A80036;stroke-width:1.5;" x1="465.5" x2="465.5" y1="368.7148" y2="724.3477"/><line style="stroke:#A80036;stroke-width:1.5;" x1="465.5" x2="268" y1="724.3477" y2="724.3477"/><polygon fill="#A80036" points="278,720.3477,268,724.3477,278,728.3477,274,724.3477" style="stroke:#A80036;stroke-width:1.0;"/><line style="stroke:#A80036;stroke-width:1.5;" x1="256" x2="256" y1="680.3477" y2="712.3477"/><polygon fill="#A80036" points="252,702.3477,256,712.3477,260,702.3477,256,706.3477" style="stroke:#A80036;stroke-width:1.0;"/><line style="stroke:#A80036;stroke-width:1.5;" x1="256" x2="256" y1="324.7148" y2="356.7148"/><polygon fill="#A80036" points="252,346.7148,256,356.7148,260,346.7148,256,350.7148" style="stroke:#A80036;stroke-width:1.0;"/><line style="stroke:#A80036;stroke-width:1.5;" x1="256" x2="256" y1="736.3477" y2="756.3477"/><polygon fill="#A80036" points="252,746.3477,256,756.3477,260,746.3477,256,750.3477" style="stroke:#A80036;stroke-width:1.0;"/><line style="stroke:#A80036;stroke-width:1.5;" x1="256" x2="256" y1="791.4414" y2="811.4414"/><polygon fill="#A80036" points="252,801.4414,256,811.4414,260,801.4414,256,805.4414" style="stroke:#A80036;stroke-width:1.0;"/><!--MD5=[c5865ddf2285c4d753562385bffa3c4f]
@startuml dropRolePt5
start
  :削除するRoleデータを取得する。;
  partition send_message() {
    if(Ogawayamaへメッセージの初期化(Init)する) then (成功)
      if (Ogawayamaへメッセージを送信する) then (成功)
      else (失敗)
        :エラーメッセージ;
      endif
    else (失敗)
      :エラーメッセージ;
    endif
  }
  if(send_messageの結果) then (成功)
    :DROP Role(Standard Features);
    partition send_message() {
      if(Ogawayamaへメッセージの初期化(Init)する) then (成功)
        if (Ogawayamaへメッセージを送信する) then (成功)
        else (失敗)
          :エラーメッセージ;
        endif
      else (失敗)
        :エラーメッセージ;
      endif
    }
  endif 
  :結果を返す;
stop
@enduml

PlantUML version 1.2021.7(Sun May 23 21:40:07 JST 2021)
(GPL source distribution)
Java Runtime: Java(TM) SE Runtime Environment
JVM: Java HotSpot(TM) Client VM
Default Encoding: MS932
Language: ja
Country: JP
--></g></svg>