<?xml version="1.0" encoding="UTF-8" standalone="no"?><svg xmlns="http://www.w3.org/2000/svg" xmlns:xlink="http://www.w3.org/1999/xlink" contentScriptType="application/ecmascript" contentStyleType="text/css" height="664px" preserveAspectRatio="none" style="width:611px;height:664px;" version="1.1" viewBox="0 0 611 664" width="611px" zoomAndPan="magnify"><defs><filter height="300%" id="f14stn3h92fcee" width="300%" x="-1" y="-1"><feGaussianBlur result="blurOut" stdDeviation="2.0"/><feColorMatrix in="blurOut" result="blurOut2" type="matrix" values="0 0 0 0 0 0 0 0 0 0 0 0 0 0 0 0 0 0 .4 0"/><feOffset dx="4.0" dy="4.0" in="blurOut2" result="blurOut3"/><feBlend in="SourceGraphic" in2="blurOut3" mode="normal"/></filter></defs><g><!--MD5=[e9cbb9dd88ded91326c7c57ecf0f8dfc]
cluster PostgreSQL--><polygon fill="#FFFFFF" filter="url(#f14stn3h92fcee)" points="16,151.5,105,151.5,112,175.1094,269,175.1094,269,505.5,16,505.5,16,151.5" style="stroke:#000000;stroke-width:1.5;"/><line style="stroke:#000000;stroke-width:1.5;" x1="16" x2="112" y1="175.1094" y2="175.1094"/><text fill="#000000" font-family="sans-serif" font-size="14" font-weight="bold" lengthAdjust="spacing" textLength="83" x="20" y="168.0332">PostgreSQL</text><!--MD5=[46a063155973224c3fa27ddf1e3a8ae1]
cluster OLTP--><polygon fill="#FFFFFF" filter="url(#f14stn3h92fcee)" points="187,555.5,229,555.5,236,579.1094,594,579.1094,594,657.5,187,657.5,187,555.5" style="stroke:#000000;stroke-width:1.5;"/><line style="stroke:#000000;stroke-width:1.5;" x1="187" x2="236" y1="579.1094" y2="579.1094"/><text fill="#000000" font-family="sans-serif" font-size="14" font-weight="bold" lengthAdjust="spacing" textLength="36" x="191" y="572.0332">OLTP</text><!--MD5=[b1e3d2dcb3697de9e6328d1cb436cbc4]
entity frontend--><rect fill="#FEFECE" filter="url(#f14stn3h92fcee)" height="47.6094" style="stroke:#A80036;stroke-width:1.5;" width="93" x="96.5" y="187.5"/><rect fill="#FEFECE" height="10" style="stroke:#A80036;stroke-width:1.5;" width="15" x="169.5" y="192.5"/><rect fill="#FEFECE" height="2" style="stroke:#A80036;stroke-width:1.5;" width="4" x="167.5" y="194.5"/><rect fill="#FEFECE" height="2" style="stroke:#A80036;stroke-width:1.5;" width="4" x="167.5" y="198.5"/><text fill="#000000" font-family="sans-serif" font-size="14" lengthAdjust="spacing" textLength="53" x="111.5" y="222.0332">frontend</text><!--MD5=[f7991d5f1ff7b3cd7b1e7cf630944cdf]
entity t_view--><ellipse cx="79" cy="329.5" fill="#FEFECE" filter="url(#f14stn3h92fcee)" rx="12" ry="12" style="stroke:#A80036;stroke-width:1.5;"/><line style="stroke:#A80036;stroke-width:1.5;" x1="67" x2="91" y1="343.5" y2="343.5"/><text fill="#000000" font-family="sans-serif" font-size="14" lengthAdjust="spacing" textLength="39" x="59.5" y="360.0332">t_view</text><!--MD5=[0ef533f09b2843476631a5fe543a12d7]
entity ext_table--><ellipse cx="216" cy="329.5" fill="#FEFECE" filter="url(#f14stn3h92fcee)" rx="12" ry="12" style="stroke:#A80036;stroke-width:1.5;"/><line style="stroke:#A80036;stroke-width:1.5;" x1="204" x2="228" y1="343.5" y2="343.5"/><text fill="#000000" font-family="sans-serif" font-size="14" lengthAdjust="spacing" textLength="71" x="180.5" y="360.0332">t_table(ext)</text><!--MD5=[a0302e260767c3a151b9bc67457b16f8]
entity pg_catalog--><path d="M32,452 C32,442 77,442 77,442 C77,442 122,442 122,452 L122,478.6094 C122,488.6094 77,488.6094 77,488.6094 C77,488.6094 32,488.6094 32,478.6094 L32,452 " fill="#FEFECE" filter="url(#f14stn3h92fcee)" style="stroke:#000000;stroke-width:1.5;"/><path d="M32,452 C32,462 77,462 77,462 C77,462 122,462 122,452 " fill="none" style="stroke:#000000;stroke-width:1.5;"/><text fill="#000000" font-family="sans-serif" font-size="14" lengthAdjust="spacing" textLength="70" x="42" y="480.5332">pg_catalog</text><!--MD5=[2b2d5ad518bf6746de4ffeb5be0566d4]
entity manager--><rect fill="#FEFECE" filter="url(#f14stn3h92fcee)" height="47.6094" style="stroke:#A80036;stroke-width:1.5;" width="96" x="157" y="441.5"/><rect fill="#FEFECE" height="10" style="stroke:#A80036;stroke-width:1.5;" width="15" x="233" y="446.5"/><rect fill="#FEFECE" height="2" style="stroke:#A80036;stroke-width:1.5;" width="4" x="231" y="448.5"/><rect fill="#FEFECE" height="2" style="stroke:#A80036;stroke-width:1.5;" width="4" x="231" y="452.5"/><text fill="#000000" font-family="sans-serif" font-size="14" lengthAdjust="spacing" textLength="56" x="172" y="476.0332">manager</text><!--MD5=[3617a1dcecd131945f386a894a6d65d9]
entity ogawayama--><rect fill="#FEFECE" filter="url(#f14stn3h92fcee)" height="47.6094" style="stroke:#A80036;stroke-width:1.5;" width="115" x="203.5" y="592.5"/><rect fill="#FEFECE" height="10" style="stroke:#A80036;stroke-width:1.5;" width="15" x="298.5" y="597.5"/><rect fill="#FEFECE" height="2" style="stroke:#A80036;stroke-width:1.5;" width="4" x="296.5" y="599.5"/><rect fill="#FEFECE" height="2" style="stroke:#A80036;stroke-width:1.5;" width="4" x="296.5" y="603.5"/><text fill="#000000" font-family="sans-serif" font-size="14" lengthAdjust="spacing" textLength="75" x="218.5" y="627.0332">ogawayama</text><!--MD5=[f885883bf97652c4492f5888ce4a5716]
entity t_table--><path d="M514.5,603 C514.5,593 546,593 546,593 C546,593 577.5,593 577.5,603 L577.5,629.6094 C577.5,639.6094 546,639.6094 546,639.6094 C546,639.6094 514.5,639.6094 514.5,629.6094 L514.5,603 " fill="#FEFECE" filter="url(#f14stn3h92fcee)" style="stroke:#000000;stroke-width:1.5;"/><path d="M514.5,603 C514.5,613 546,613 546,613 C546,613 577.5,613 577.5,603 " fill="none" style="stroke:#000000;stroke-width:1.5;"/><text fill="#000000" font-family="sans-serif" font-size="14" lengthAdjust="spacing" textLength="43" x="524.5" y="631.5332">t_table</text><!--MD5=[12691976fc4225cdd1449db5c8dcc7e5]
entity t_view_--><ellipse cx="413" cy="607.5" fill="#FEFECE" filter="url(#f14stn3h92fcee)" rx="12" ry="12" style="stroke:#A80036;stroke-width:1.5;"/><line style="stroke:#A80036;stroke-width:1.5;" x1="401" x2="425" y1="621.5" y2="621.5"/><text fill="#000000" font-family="sans-serif" font-size="14" lengthAdjust="spacing" textLength="39" x="393.5" y="638.0332">t_view</text><!--MD5=[8fc3522a43f8c7199df5e09e5bb0188e]
entity user--><ellipse cx="143" cy="14" fill="#FEFECE" filter="url(#f14stn3h92fcee)" rx="8" ry="8" style="stroke:#A80036;stroke-width:1.5;"/><path d="M143,22 L143,49 M130,30 L156,30 M143,49 L130,64 M143,49 L156,64 " fill="none" filter="url(#f14stn3h92fcee)" style="stroke:#A80036;stroke-width:1.5;"/><text fill="#000000" font-family="sans-serif" font-size="14" lengthAdjust="spacing" textLength="28" x="129" y="84.0332">user</text><!--MD5=[bf23f50bbf4beba057f19fb84fdb274a]
link frontend to t_view--><path d="M131.11,235.72 C119.83,257.75 102.95,290.72 91.48,313.13 " fill="none" id="frontend-t_view" style="stroke:#A80036;stroke-width:1.0;"/><text fill="#000000" font-family="sans-serif" font-size="13" lengthAdjust="spacing" textLength="38" x="116" y="279.9951">Create</text><!--MD5=[102edd712dfffddc375fe5ebb4f394c6]
link t_view to ext_table--><path d="M98.63,338.5 C118.52,338.5 149.89,338.5 175.19,338.5 " fill="none" id="t_view-to-ext_table" style="stroke:#A80036;stroke-width:1.0;"/><polygon fill="#A80036" points="180.5,338.5,171.5,334.5,175.5,338.5,171.5,342.5,180.5,338.5" style="stroke:#A80036;stroke-width:1.0;"/><text fill="#000000" font-family="sans-serif" font-size="13" lengthAdjust="spacing" textLength="45" x="117" y="331.9951">Refer to</text><!--MD5=[104d30eb53c6e461744c2920cfb36496]
link t_view to pg_catalog--><path d="M78.61,363.6 C78.28,384.49 77.8,414.71 77.45,436.63 " fill="none" id="t_view-to-pg_catalog" style="stroke:#A80036;stroke-width:1.0;"/><polygon fill="#A80036" points="77.36,441.74,81.5137,432.8099,77.4457,436.7407,73.5149,432.6728,77.36,441.74" style="stroke:#A80036;stroke-width:1.0;"/><text fill="#000000" font-family="sans-serif" font-size="13" lengthAdjust="spacing" textLength="54" x="80" y="407.9951">metadata</text><!--MD5=[af99cae13808bda9d00715640c767a61]
link pg_catalog to manager--><path d="M122.25,465.5 C132.07,465.5 141.89,465.5 151.7,465.5 " fill="none" id="pg_catalog-to-manager" style="stroke:#A80036;stroke-width:1.0;"/><polygon fill="#A80036" points="156.84,465.5,147.84,461.5,151.84,465.5,147.84,469.5,156.84,465.5" style="stroke:#A80036;stroke-width:1.0;"/><!--MD5=[6b56d76f140c66c2d469ce854abf653b]
link ogawayama to t_view_--><path d="M318.9,616.5 C342.98,616.5 369.63,616.5 388.41,616.5 " fill="none" id="ogawayama-to-t_view_" style="stroke:#A80036;stroke-width:1.0;"/><polygon fill="#A80036" points="393.48,616.5,384.48,612.5,388.48,616.5,384.48,620.5,393.48,616.5" style="stroke:#A80036;stroke-width:1.0;"/><text fill="#000000" font-family="sans-serif" font-size="13" lengthAdjust="spacing" textLength="38" x="337" y="609.9951">Create</text><!--MD5=[c5fabe7bd539025ddc0b69b95515883e]
link t_view_ to t_table--><path d="M432.62,616.5 C452.73,616.5 484.46,616.5 509.25,616.5 " fill="none" id="t_view_-to-t_table" style="stroke:#A80036;stroke-width:1.0;"/><polygon fill="#A80036" points="514.42,616.5,505.42,612.5,509.42,616.5,505.42,620.5,514.42,616.5" style="stroke:#A80036;stroke-width:1.0;"/><text fill="#000000" font-family="sans-serif" font-size="13" lengthAdjust="spacing" textLength="45" x="451" y="609.9951">Refer to</text><!--MD5=[122aa4dd056032f23668896f93924b57]
link user to frontend--><path d="M143,87.84 C143,117.28 143,156.25 143,182.29 " fill="none" id="user-to-frontend" style="stroke:#A80036;stroke-width:1.0;"/><polygon fill="#A80036" points="143,187.32,147,178.32,143,182.32,139,178.32,143,187.32" style="stroke:#A80036;stroke-width:1.0;"/><text fill="#000000" font-family="sans-serif" font-size="13" lengthAdjust="spacing" textLength="290" x="144" y="131.9951">CREATE VIEW t_view AS SELECT FROM t_table</text><!--MD5=[cac2dd5fce51c8c44451d2cde01b0fb9]
link frontend to ogawayama--><path d="M187.79,235.64 C216.31,252.96 251.14,279.49 269,313.5 C315.8,402.62 298.74,439.92 284,539.5 C281.61,555.65 276.51,573.13 271.71,587.25 " fill="none" id="frontend-to-ogawayama" style="stroke:#A80036;stroke-width:1.0;"/><polygon fill="#A80036" points="269.97,592.29,276.6827,585.0831,271.5982,587.5625,269.1188,582.478,269.97,592.29" style="stroke:#A80036;stroke-width:1.0;"/><text fill="#000000" font-family="sans-serif" font-size="13" lengthAdjust="spacing" textLength="144" x="300" y="407.9951">messge(CREATE VIEW)</text><!--MD5=[725134c58ac48e76f7dc9724fb62703c]
link manager to ogawayama--><path d="M209.76,489.55 C213.07,504.1 217.96,523.16 224,539.5 C230.08,555.95 238.54,573.6 245.84,587.75 " fill="none" id="manager-to-ogawayama" style="stroke:#A80036;stroke-width:1.0;"/><polygon fill="#A80036" points="248.27,592.41,247.6467,582.5809,245.9542,587.9786,240.5565,586.2861,248.27,592.41" style="stroke:#A80036;stroke-width:1.0;"/><text fill="#000000" font-family="sans-serif" font-size="13" lengthAdjust="spacing" textLength="54" x="225" y="535.9951">metadata</text><!--MD5=[4940ac825c7607498888cc21842c48c2]
@startuml create_view
actor user

package PostgreSQL {
  component frontend
  entity t_view
  entity "t_table(ext)" as ext_table
  database pg_catalog
  component manager
 
  frontend - - t_view : Create
  t_view -> ext_table  : Refer to
  t_view - -> pg_catalog : metadata
  pg_catalog -> manager
}

package OLTP {
  component ogawayama
  database t_table
  entity "t_view" as t_view_

  ogawayama -> t_view_ : Create
  t_view_ -> t_table : Refer to
}

user - -> frontend : CREATE VIEW t_view AS SELECT FROM t_table
frontend - - -> ogawayama : messge(CREATE VIEW)
manager - -> ogawayama : metadata
'ext_table ...> t_table : Point to
@enduml

@startuml create_view
actor user

package PostgreSQL {
  component frontend
  entity t_view
  entity "t_table(ext)" as ext_table
  database pg_catalog
  component manager
 
  frontend - - t_view : Create
  t_view -> ext_table  : Refer to
  t_view - -> pg_catalog : metadata
  pg_catalog -> manager
}

package OLTP {
  component ogawayama
  database t_table
  entity "t_view" as t_view_

  ogawayama -> t_view_ : Create
  t_view_ -> t_table : Refer to
}

user - -> frontend : CREATE VIEW t_view AS SELECT FROM t_table
frontend - - -> ogawayama : messge(CREATE VIEW)
manager - -> ogawayama : metadata
@enduml

PlantUML version 1.2021.01(Tue Feb 02 16:55:08 JST 2021)
(GPL source distribution)
Java Runtime: OpenJDK Runtime Environment
JVM: OpenJDK 64-Bit Server VM
Default Encoding: MS932
Language: ja
Country: JP
--></g></svg>