<?xml version="1.0" encoding="UTF-8" standalone="no"?><svg xmlns="http://www.w3.org/2000/svg" xmlns:xlink="http://www.w3.org/1999/xlink" contentScriptType="application/ecmascript" contentStyleType="text/css" height="754px" preserveAspectRatio="none" style="width:503px;height:754px;" version="1.1" viewBox="0 0 503 754" width="503px" zoomAndPan="magnify"><defs><filter height="300%" id="f1jdc7cq4gh87k" width="300%" x="-1" y="-1"><feGaussianBlur result="blurOut" stdDeviation="2.0"/><feColorMatrix in="blurOut" result="blurOut2" type="matrix" values="0 0 0 0 0 0 0 0 0 0 0 0 0 0 0 0 0 0 .4 0"/><feOffset dx="4.0" dy="4.0" in="blurOut2" result="blurOut3"/><feBlend in="SourceGraphic" in2="blurOut3" mode="normal"/></filter></defs><g><!--MD5=[e9cbb9dd88ded91326c7c57ecf0f8dfc]
cluster PostgreSQL--><polygon fill="#FFFFFF" filter="url(#f1jdc7cq4gh87k)" points="16,167.5,105,167.5,112,191.1094,253,191.1094,253,634.5,16,634.5,16,167.5" style="stroke:#000000;stroke-width:1.5;"/><line style="stroke:#000000;stroke-width:1.5;" x1="16" x2="112" y1="191.1094" y2="191.1094"/><text fill="#000000" font-family="sans-serif" font-size="14" font-weight="bold" lengthAdjust="spacing" textLength="83" x="20" y="184.0332">PostgreSQL</text><!--MD5=[46a063155973224c3fa27ddf1e3a8ae1]
cluster OLTP--><polygon fill="#FFFFFF" filter="url(#f1jdc7cq4gh87k)" points="277,534.5,319,534.5,326,558.1094,486,558.1094,486,747.5,277,747.5,277,534.5" style="stroke:#000000;stroke-width:1.5;"/><line style="stroke:#000000;stroke-width:1.5;" x1="277" x2="326" y1="558.1094" y2="558.1094"/><text fill="#000000" font-family="sans-serif" font-size="14" font-weight="bold" lengthAdjust="spacing" textLength="36" x="281" y="551.0332">OLTP</text><!--MD5=[b1e3d2dcb3697de9e6328d1cb436cbc4]
entity frontend--><rect fill="#FEFECE" filter="url(#f1jdc7cq4gh87k)" height="47.6094" style="stroke:#A80036;stroke-width:1.5;" width="93" x="129.5" y="203.5"/><rect fill="#FEFECE" height="10" style="stroke:#A80036;stroke-width:1.5;" width="15" x="202.5" y="208.5"/><rect fill="#FEFECE" height="2" style="stroke:#A80036;stroke-width:1.5;" width="4" x="200.5" y="210.5"/><rect fill="#FEFECE" height="2" style="stroke:#A80036;stroke-width:1.5;" width="4" x="200.5" y="214.5"/><text fill="#000000" font-family="sans-serif" font-size="14" lengthAdjust="spacing" textLength="53" x="144.5" y="238.0332">frontend</text><!--MD5=[2b2d5ad518bf6746de4ffeb5be0566d4]
entity manager--><rect fill="#FEFECE" filter="url(#f1jdc7cq4gh87k)" height="47.6094" style="stroke:#A80036;stroke-width:1.5;" width="96" x="124" y="570.5"/><rect fill="#FEFECE" height="10" style="stroke:#A80036;stroke-width:1.5;" width="15" x="200" y="575.5"/><rect fill="#FEFECE" height="2" style="stroke:#A80036;stroke-width:1.5;" width="4" x="198" y="577.5"/><rect fill="#FEFECE" height="2" style="stroke:#A80036;stroke-width:1.5;" width="4" x="198" y="581.5"/><text fill="#000000" font-family="sans-serif" font-size="14" lengthAdjust="spacing" textLength="56" x="139" y="605.0332">manager</text><!--MD5=[87734a20c2eaadadc712f7efe19c3795]
entity metadata--><path d="M32.5,450.5 C32.5,440.5 72,440.5 72,440.5 C72,440.5 111.5,440.5 111.5,450.5 L111.5,477.1094 C111.5,487.1094 72,487.1094 72,487.1094 C72,487.1094 32.5,487.1094 32.5,477.1094 L32.5,450.5 " fill="#FEFECE" filter="url(#f1jdc7cq4gh87k)" style="stroke:#000000;stroke-width:1.5;"/><path d="M32.5,450.5 C32.5,460.5 72,460.5 72,460.5 C72,460.5 111.5,460.5 111.5,450.5 " fill="none" style="stroke:#000000;stroke-width:1.5;"/><text fill="#000000" font-family="sans-serif" font-size="14" lengthAdjust="spacing" textLength="59" x="42.5" y="479.0332">metadata</text><!--MD5=[a0302e260767c3a151b9bc67457b16f8]
entity pg_catalog--><path d="M147,450.5 C147,440.5 192,440.5 192,440.5 C192,440.5 237,440.5 237,450.5 L237,477.1094 C237,487.1094 192,487.1094 192,487.1094 C192,487.1094 147,487.1094 147,477.1094 L147,450.5 " fill="#FEFECE" filter="url(#f1jdc7cq4gh87k)" style="stroke:#000000;stroke-width:1.5;"/><path d="M147,450.5 C147,460.5 192,460.5 192,460.5 C192,460.5 237,460.5 237,450.5 " fill="none" style="stroke:#000000;stroke-width:1.5;"/><text fill="#000000" font-family="sans-serif" font-size="14" lengthAdjust="spacing" textLength="70" x="157" y="479.0332">pg_catalog</text><!--MD5=[1a9b3ce6b05045b91178d8f4231a8390]
entity table--><ellipse cx="79" cy="328.5" fill="#FEFECE" filter="url(#f1jdc7cq4gh87k)" rx="12" ry="12" style="stroke:#A80036;stroke-width:1.5;"/><line style="stroke:#A80036;stroke-width:1.5;" x1="67" x2="91" y1="342.5" y2="342.5"/><text fill="#000000" font-family="sans-serif" font-size="14" lengthAdjust="spacing" textLength="31" x="63.5" y="359.0332">table</text><!--MD5=[bf2f9096aec1c19dd7dbe35a7c751e39]
entity view--><ellipse cx="150" cy="328.5" fill="#FEFECE" filter="url(#f1jdc7cq4gh87k)" rx="12" ry="12" style="stroke:#A80036;stroke-width:1.5;"/><line style="stroke:#A80036;stroke-width:1.5;" x1="138" x2="162" y1="342.5" y2="342.5"/><text fill="#000000" font-family="sans-serif" font-size="14" lengthAdjust="spacing" textLength="27" x="136.5" y="359.0332">view</text><!--MD5=[e753409e3a4de609e6aed690c35e546b]
entity role--><ellipse cx="217" cy="328.5" fill="#FEFECE" filter="url(#f1jdc7cq4gh87k)" rx="12" ry="12" style="stroke:#A80036;stroke-width:1.5;"/><line style="stroke:#A80036;stroke-width:1.5;" x1="205" x2="229" y1="342.5" y2="342.5"/><text fill="#000000" font-family="sans-serif" font-size="14" lengthAdjust="spacing" textLength="24" x="205" y="359.0332">role</text><!--MD5=[a54772c9105fac6293421e524356f698]
entity table_--><ellipse cx="313" cy="697.5" fill="#FEFECE" filter="url(#f1jdc7cq4gh87k)" rx="12" ry="12" style="stroke:#A80036;stroke-width:1.5;"/><line style="stroke:#A80036;stroke-width:1.5;" x1="301" x2="325" y1="711.5" y2="711.5"/><text fill="#000000" font-family="sans-serif" font-size="14" lengthAdjust="spacing" textLength="39" x="293.5" y="728.0332">table_</text><!--MD5=[2312c5149fd4346974713aed1bdef222]
entity view_--><ellipse cx="385" cy="697.5" fill="#FEFECE" filter="url(#f1jdc7cq4gh87k)" rx="12" ry="12" style="stroke:#A80036;stroke-width:1.5;"/><line style="stroke:#A80036;stroke-width:1.5;" x1="373" x2="397" y1="711.5" y2="711.5"/><text fill="#000000" font-family="sans-serif" font-size="14" lengthAdjust="spacing" textLength="35" x="367.5" y="728.0332">view_</text><!--MD5=[f3ac5da3c0ce251540f867fb4b7eb49a]
entity role_--><ellipse cx="454" cy="697.5" fill="#FEFECE" filter="url(#f1jdc7cq4gh87k)" rx="12" ry="12" style="stroke:#A80036;stroke-width:1.5;"/><line style="stroke:#A80036;stroke-width:1.5;" x1="442" x2="466" y1="711.5" y2="711.5"/><text fill="#000000" font-family="sans-serif" font-size="14" lengthAdjust="spacing" textLength="32" x="438" y="728.0332">role_</text><!--MD5=[3617a1dcecd131945f386a894a6d65d9]
entity ogawayama--><rect fill="#FEFECE" filter="url(#f1jdc7cq4gh87k)" height="47.6094" style="stroke:#A80036;stroke-width:1.5;" width="115" x="310.5" y="570.5"/><rect fill="#FEFECE" height="10" style="stroke:#A80036;stroke-width:1.5;" width="15" x="405.5" y="575.5"/><rect fill="#FEFECE" height="2" style="stroke:#A80036;stroke-width:1.5;" width="4" x="403.5" y="577.5"/><rect fill="#FEFECE" height="2" style="stroke:#A80036;stroke-width:1.5;" width="4" x="403.5" y="581.5"/><text fill="#000000" font-family="sans-serif" font-size="14" lengthAdjust="spacing" textLength="75" x="325.5" y="605.0332">ogawayama</text><!--MD5=[79a439086b036a57b90a01d7b2f8bbd1]
entity admin--><ellipse cx="176" cy="14" fill="#FEFECE" filter="url(#f1jdc7cq4gh87k)" rx="8" ry="8" style="stroke:#A80036;stroke-width:1.5;"/><path d="M176,22 L176,49 M163,30 L189,30 M176,49 L163,64 M176,49 L189,64 " fill="none" filter="url(#f1jdc7cq4gh87k)" style="stroke:#A80036;stroke-width:1.5;"/><text fill="#000000" font-family="sans-serif" font-size="14" lengthAdjust="spacing" textLength="38" x="157" y="84.0332">admin</text><!--MD5=[30f0027b52430d995ef8e58e6233eebd]
link frontend to table--><path d="M155.19,251.67 C138.53,270.22 115.3,296.08 98.89,314.36 " fill="none" id="frontend-to-table" style="stroke:#A80036;stroke-width:1.0;"/><polygon fill="#A80036" points="95.28,318.37,104.2662,314.3391,98.6177,314.6472,98.3096,308.9987,95.28,318.37" style="stroke:#A80036;stroke-width:1.0;"/><!--MD5=[e18830a93c60eccd24b52fbc58a392dd]
link frontend to view--><path d="M170.42,251.67 C166.53,267.85 161.3,289.57 157.1,306.99 " fill="none" id="frontend-to-view" style="stroke:#A80036;stroke-width:1.0;"/><polygon fill="#A80036" points="155.84,312.25,161.8168,304.422,156.9987,307.3861,154.0346,302.568,155.84,312.25" style="stroke:#A80036;stroke-width:1.0;"/><!--MD5=[242fd6c38af4d79897e802fc81ea2a1b]
link frontend to role--><path d="M184.8,251.67 C190.99,267.99 199.33,289.95 205.97,307.44 " fill="none" id="frontend-to-role" style="stroke:#A80036;stroke-width:1.0;"/><polygon fill="#A80036" points="207.79,312.25,208.339,302.4165,206.0172,307.5748,200.8588,305.253,207.79,312.25" style="stroke:#A80036;stroke-width:1.0;"/><!--MD5=[92a35b5a7c6d898231d2bffda00e4a41]
link table to metadata--><path d="M77.65,362.5 C76.48,383.31 74.79,413.41 73.56,435.25 " fill="none" id="table-to-metadata" style="stroke:#A80036;stroke-width:1.0;"/><polygon fill="#A80036" points="73.27,440.33,77.7533,431.5608,73.5418,435.3374,69.7652,431.1259,73.27,440.33" style="stroke:#A80036;stroke-width:1.0;"/><!--MD5=[70cb3d42bfdfe3e965b71d9e00a6990b]
link view to pg_catalog--><path d="M158.1,362.5 C165.15,383.4 175.36,413.67 182.73,435.52 " fill="none" id="view-to-pg_catalog" style="stroke:#A80036;stroke-width:1.0;"/><polygon fill="#A80036" points="184.35,440.33,185.2633,430.5236,182.7517,435.5923,177.683,433.0808,184.35,440.33" style="stroke:#A80036;stroke-width:1.0;"/><!--MD5=[ba5ff56009d2120cc9911a643cd03bb8]
link role to pg_catalog--><path d="M212.18,362.5 C208,383.31 201.96,413.41 197.57,435.25 " fill="none" id="role-to-pg_catalog" style="stroke:#A80036;stroke-width:1.0;"/><polygon fill="#A80036" points="196.55,440.33,202.2464,432.2956,197.5361,435.4282,194.4035,430.7179,196.55,440.33" style="stroke:#A80036;stroke-width:1.0;"/><!--MD5=[7cf1da3d91892ef8487211adcc52537b]
link metadata to manager--><path d="M89.65,487.68 C106.72,509.61 132.6,542.87 150.78,566.23 " fill="none" id="metadata-to-manager" style="stroke:#A80036;stroke-width:1.0;"/><polygon fill="#A80036" points="153.85,570.18,151.4748,560.6219,150.7773,566.2355,145.1636,565.5381,153.85,570.18" style="stroke:#A80036;stroke-width:1.0;"/><!--MD5=[af99cae13808bda9d00715640c767a61]
link pg_catalog to manager--><path d="M188.47,487.68 C185.11,509.25 180.05,541.77 176.43,565.06 " fill="none" id="pg_catalog-to-manager" style="stroke:#A80036;stroke-width:1.0;"/><polygon fill="#A80036" points="175.63,570.18,180.97,561.9045,176.401,565.2398,173.0657,560.6708,175.63,570.18" style="stroke:#A80036;stroke-width:1.0;"/><!--MD5=[58f4cbfc483cc4679caa644f6a99fc87]
link ogawayama to role_--><path d="M386.03,618.56 C400.22,636.72 419.97,661.98 434.53,680.6 " fill="none" id="ogawayama-to-role_" style="stroke:#A80036;stroke-width:1.0;"/><polygon fill="#A80036" points="437.74,684.7,435.3432,675.1472,434.6585,680.7625,429.0432,680.0777,437.74,684.7" style="stroke:#A80036;stroke-width:1.0;"/><!--MD5=[35f9a55a72814e06d6fd6f837628d9ba]
link ogawayama to table_--><path d="M356.47,618.56 C347.99,635.52 336.41,658.68 327.34,676.83 " fill="none" id="ogawayama-to-table_" style="stroke:#A80036;stroke-width:1.0;"/><polygon fill="#A80036" points="325.09,681.33,332.7006,675.0787,327.3318,676.8607,325.5498,671.4919,325.09,681.33" style="stroke:#A80036;stroke-width:1.0;"/><!--MD5=[45b2d553e31e996acece8d1b1416312d]
link ogawayama to view_--><path d="M371.56,618.56 C374.16,635.37 377.7,658.28 380.5,676.37 " fill="none" id="ogawayama-to-view_" style="stroke:#A80036;stroke-width:1.0;"/><polygon fill="#A80036" points="381.26,681.33,383.8512,671.8281,380.5029,676.3876,375.9434,673.0394,381.26,681.33" style="stroke:#A80036;stroke-width:1.0;"/><!--MD5=[7b7568e7b3d3d33b5be17ec55672259a]
link admin to frontend--><path d="M176,87.73 C176,121.42 176,168.41 176,198.14 " fill="none" id="admin-to-frontend" style="stroke:#A80036;stroke-width:1.0;"/><polygon fill="#A80036" points="176,203.48,180,194.48,176,198.48,172,194.48,176,203.48" style="stroke:#A80036;stroke-width:1.0;"/><text fill="#000000" font-family="sans-serif" font-size="13" lengthAdjust="spacing" textLength="268" x="177" y="131.9951">CREATE/ALTER/DROP TABLE, VIEW, ROLE</text><text fill="#000000" font-family="sans-serif" font-size="13" lengthAdjust="spacing" textLength="184" x="219" y="148.3467">GRANT/REVOKE PRIVILEGES</text><!--MD5=[cac2dd5fce51c8c44451d2cde01b0fb9]
link frontend to ogawayama--><path d="M200.65,251.73 C216.56,267.7 236.84,290 251,312.5 C304.99,398.29 343.76,513.27 359.8,565.54 " fill="none" id="frontend-to-ogawayama" style="stroke:#A80036;stroke-width:1.0;"/><polygon fill="#A80036" points="361.29,570.4,362.4951,560.6251,359.8336,565.6168,354.842,562.9553,361.29,570.4" style="stroke:#A80036;stroke-width:1.0;"/><text fill="#000000" font-family="sans-serif" font-size="13" lengthAdjust="spacing" textLength="158" x="302" y="406.9951">message(update metadata)</text><!--MD5=[725134c58ac48e76f7dc9724fb62703c]
link manager to ogawayama--><path d="M220.2,594.5 C245.81,594.5 277.6,594.5 305.12,594.5 " fill="none" id="manager-to-ogawayama" style="stroke:#A80036;stroke-width:1.0;"/><polygon fill="#A80036" points="310.21,594.5,301.21,590.5,305.21,594.5,301.21,598.5,310.21,594.5" style="stroke:#A80036;stroke-width:1.0;"/><text fill="#000000" font-family="sans-serif" font-size="13" lengthAdjust="spacing" textLength="54" x="238.25" y="587.9951">metadata</text><!--MD5=[3ad67614dcfc8db9224268a5a3771b2d]
@startuml metadata
actor admin
package PostgreSQL {
  component frontend
  component manager
  database metadata
  database pg_catalog
  entity table
  entity view
  entity role

  frontend - -> table
  frontend - -> view
  frontend - -> role
  table - -> metadata
  view - -> pg_catalog
  role - -> pg_catalog
  metadata - -> manager
  pg_catalog - -> manager
}

package OLTP {
  entity table_
  entity view_
  entity role_
  component ogawayama

  ogawayama - -> role_ 
  ogawayama - -> table_ 
  ogawayama - -> view_ 
}

admin - -> frontend : "CREATE/ALTER/DROP TABLE, VIEW, ROLE\nGRANT/REVOKE PRIVILEGES"
frontend -> ogawayama : message(update metadata)
manager -> ogawayama : metadata
@enduml

PlantUML version 1.2021.01(Tue Feb 02 16:55:08 JST 2021)
(GPL source distribution)
Java Runtime: OpenJDK Runtime Environment
JVM: OpenJDK 64-Bit Server VM
Default Encoding: MS932
Language: ja
Country: JP
--></g></svg>