<?xml version="1.0" encoding="UTF-8" standalone="no"?><svg xmlns="http://www.w3.org/2000/svg" xmlns:xlink="http://www.w3.org/1999/xlink" contentScriptType="application/ecmascript" contentStyleType="text/css" height="664px" preserveAspectRatio="none" style="width:437px;height:664px;" version="1.1" viewBox="0 0 437 664" width="437px" zoomAndPan="magnify"><defs><filter height="300%" id="f77u9ziz91iui" width="300%" x="-1" y="-1"><feGaussianBlur result="blurOut" stdDeviation="2.0"/><feColorMatrix in="blurOut" result="blurOut2" type="matrix" values="0 0 0 0 0 0 0 0 0 0 0 0 0 0 0 0 0 0 .4 0"/><feOffset dx="4.0" dy="4.0" in="blurOut2" result="blurOut3"/><feBlend in="SourceGraphic" in2="blurOut3" mode="normal"/></filter></defs><g><!--MD5=[e9cbb9dd88ded91326c7c57ecf0f8dfc]
cluster PostgreSQL--><polygon fill="#FFFFFF" filter="url(#f77u9ziz91iui)" points="27,151.5,116,151.5,123,175.1094,420,175.1094,420,507.5,27,507.5,27,151.5" style="stroke:#000000;stroke-width:1.5;"/><line style="stroke:#000000;stroke-width:1.5;" x1="27" x2="123" y1="175.1094" y2="175.1094"/><text fill="#000000" font-family="sans-serif" font-size="14" font-weight="bold" lengthAdjust="spacing" textLength="83" x="31" y="168.0332">PostgreSQL</text><!--MD5=[07f0e25f731765bfa93aaa20542a266d]
cluster oltp--><polygon fill="#FFFFFF" filter="url(#f77u9ziz91iui)" points="16,557.5,58,557.5,65,581.1094,294,581.1094,294,657.5,16,657.5,16,557.5" style="stroke:#000000;stroke-width:1.5;"/><line style="stroke:#000000;stroke-width:1.5;" x1="16" x2="65" y1="581.1094" y2="581.1094"/><text fill="#000000" font-family="sans-serif" font-size="14" font-weight="bold" lengthAdjust="spacing" textLength="36" x="20" y="574.0332">OLTP</text><!--MD5=[f7991d5f1ff7b3cd7b1e7cf630944cdf]
entity t_view--><ellipse cx="70" cy="203.5" fill="#FEFECE" filter="url(#f77u9ziz91iui)" rx="12" ry="12" style="stroke:#A80036;stroke-width:1.5;"/><line style="stroke:#A80036;stroke-width:1.5;" x1="58" x2="82" y1="217.5" y2="217.5"/><text fill="#000000" font-family="sans-serif" font-size="14" lengthAdjust="spacing" textLength="39" x="50.5" y="234.0332">t_view</text><!--MD5=[0ef533f09b2843476631a5fe543a12d7]
entity ext_table--><ellipse cx="90" cy="331.5" fill="#FEFECE" filter="url(#f77u9ziz91iui)" rx="12" ry="12" style="stroke:#A80036;stroke-width:1.5;"/><line style="stroke:#A80036;stroke-width:1.5;" x1="78" x2="102" y1="345.5" y2="345.5"/><text fill="#000000" font-family="sans-serif" font-size="14" lengthAdjust="spacing" textLength="71" x="54.5" y="362.0332">t_table(ext)</text><!--MD5=[f25decad58752b05205e78abebe8791f]
entity fdw--><rect fill="#FEFECE" filter="url(#f77u9ziz91iui)" height="47.6094" style="stroke:#A80036;stroke-width:1.5;" width="72" x="54" y="443.5"/><rect fill="#FEFECE" height="10" style="stroke:#A80036;stroke-width:1.5;" width="15" x="106" y="448.5"/><rect fill="#FEFECE" height="2" style="stroke:#A80036;stroke-width:1.5;" width="4" x="104" y="450.5"/><rect fill="#FEFECE" height="2" style="stroke:#A80036;stroke-width:1.5;" width="4" x="104" y="454.5"/><text fill="#000000" font-family="sans-serif" font-size="14" lengthAdjust="spacing" textLength="32" x="69" y="478.0332">FDW</text><!--MD5=[a0302e260767c3a151b9bc67457b16f8]
entity pg_catalog--><path d="M273,199 C273,189 318,189 318,189 C318,189 363,189 363,199 L363,225.6094 C363,235.6094 318,235.6094 318,235.6094 C318,235.6094 273,235.6094 273,225.6094 L273,199 " fill="#FEFECE" filter="url(#f77u9ziz91iui)" style="stroke:#000000;stroke-width:1.5;"/><path d="M273,199 C273,209 318,209 318,209 C318,209 363,209 363,199 " fill="none" style="stroke:#000000;stroke-width:1.5;"/><text fill="#000000" font-family="sans-serif" font-size="14" lengthAdjust="spacing" textLength="70" x="283" y="227.5332">pg_catalog</text><!--MD5=[3617a1dcecd131945f386a894a6d65d9]
entity ogawayama--><rect fill="#FEFECE" filter="url(#f77u9ziz91iui)" height="47.6094" style="stroke:#A80036;stroke-width:1.5;" width="115" x="32.5" y="593.5"/><rect fill="#FEFECE" height="10" style="stroke:#A80036;stroke-width:1.5;" width="15" x="127.5" y="598.5"/><rect fill="#FEFECE" height="2" style="stroke:#A80036;stroke-width:1.5;" width="4" x="125.5" y="600.5"/><rect fill="#FEFECE" height="2" style="stroke:#A80036;stroke-width:1.5;" width="4" x="125.5" y="604.5"/><text fill="#000000" font-family="sans-serif" font-size="14" lengthAdjust="spacing" textLength="75" x="47.5" y="628.0332">ogawayama</text><!--MD5=[f885883bf97652c4492f5888ce4a5716]
entity t_table--><path d="M214.5,604 C214.5,594 246,594 246,594 C246,594 277.5,594 277.5,604 L277.5,630.6094 C277.5,640.6094 246,640.6094 246,640.6094 C246,640.6094 214.5,640.6094 214.5,630.6094 L214.5,604 " fill="#FEFECE" filter="url(#f77u9ziz91iui)" style="stroke:#000000;stroke-width:1.5;"/><path d="M214.5,604 C214.5,614 246,614 246,614 C246,614 277.5,614 277.5,604 " fill="none" style="stroke:#000000;stroke-width:1.5;"/><text fill="#000000" font-family="sans-serif" font-size="14" lengthAdjust="spacing" textLength="43" x="224.5" y="632.5332">t_table</text><!--MD5=[8fc3522a43f8c7199df5e09e5bb0188e]
entity user--><ellipse cx="70" cy="14" fill="#FEFECE" filter="url(#f77u9ziz91iui)" rx="8" ry="8" style="stroke:#A80036;stroke-width:1.5;"/><path d="M70,22 L70,49 M57,30 L83,30 M70,49 L57,64 M70,49 L83,64 " fill="none" filter="url(#f77u9ziz91iui)" style="stroke:#A80036;stroke-width:1.5;"/><text fill="#000000" font-family="sans-serif" font-size="14" lengthAdjust="spacing" textLength="28" x="56" y="84.0332">user</text><!--MD5=[102edd712dfffddc375fe5ebb4f394c6]
link t_view to ext_table--><path d="M70.46,237.64 C71.03,251.69 72.28,269.69 75,285.5 C76.41,293.68 78.54,302.4 80.76,310.4 " fill="none" id="t_view-to-ext_table" style="stroke:#A80036;stroke-width:1.0;"/><polygon fill="#A80036" points="82.15,315.27,83.5236,305.5174,80.7764,310.4624,75.8314,307.7152,82.15,315.27" style="stroke:#A80036;stroke-width:1.0;"/><text fill="#000000" font-family="sans-serif" font-size="13" lengthAdjust="spacing" textLength="135" x="76" y="281.9951">SELECT FROM t_table</text><!--MD5=[e60bf614408567617223929f1faa631f]
link ext_table to fdw--><path d="M90,365.6 C90,386.36 90,416.33 90,438.22 " fill="none" id="ext_table-to-fdw" style="stroke:#A80036;stroke-width:1.0;"/><polygon fill="#A80036" points="90,443.32,94,434.32,90,438.32,86,434.32,90,443.32" style="stroke:#A80036;stroke-width:1.0;"/><text fill="#000000" font-family="sans-serif" font-size="13" lengthAdjust="spacing" textLength="139" x="91" y="409.9951">Scan the table on OLTP</text><!--MD5=[104d30eb53c6e461744c2920cfb36496]
link t_view to pg_catalog--><path d="M89.88,212.5 C128.07,212.5 212.77,212.5 267.53,212.5 " fill="none" id="t_view-to-pg_catalog" style="stroke:#A80036;stroke-width:1.0;"/><polygon fill="#A80036" points="272.73,212.5,263.73,208.5,267.73,212.5,263.73,216.5,272.73,212.5" style="stroke:#A80036;stroke-width:1.0;"/><text fill="#000000" font-family="sans-serif" font-size="13" lengthAdjust="spacing" textLength="147" x="107.75" y="205.9951">Confirm access privileges</text><!--MD5=[0bf708b540673187c9c88aa38a469cba]
reverse link pg_catalog to ext_table--><path d="M284.87,239.56 C265.47,254.14 240.1,272.03 216,285.5 C186.71,301.88 151.46,316.59 125.7,326.51 " fill="none" id="pg_catalog-backto-ext_table" style="stroke:#A80036;stroke-width:1.0;"/><polygon fill="#A80036" points="289.17,236.32,279.575,238.5419,285.1769,239.3291,284.3896,244.9309,289.17,236.32" style="stroke:#A80036;stroke-width:1.0;"/><text fill="#000000" font-family="sans-serif" font-size="13" lengthAdjust="spacing" textLength="147" x="246" y="281.9951">Confirm access privileges</text><!--MD5=[0b1ccbb062529ded3928f775cc3541cd]
link ogawayama to t_table--><path d="M147.65,617.5 C168.27,617.5 190.94,617.5 209.31,617.5 " fill="none" id="ogawayama-to-t_table" style="stroke:#A80036;stroke-width:1.0;"/><polygon fill="#A80036" points="214.38,617.5,205.38,613.5,209.38,617.5,205.38,621.5,214.38,617.5" style="stroke:#A80036;stroke-width:1.0;"/><text fill="#000000" font-family="sans-serif" font-size="13" lengthAdjust="spacing" textLength="30" x="166" y="610.9951">Scan</text><!--MD5=[30f23ba568becac92ffefcc7fcc0b9e1]
link user to t_view--><path d="M70,87.66 C70,116.92 70,155.7 70,182.02 " fill="none" id="user-to-t_view" style="stroke:#A80036;stroke-width:1.0;"/><polygon fill="#A80036" points="70,187.11,74,178.11,70,182.11,66,178.11,70,187.11" style="stroke:#A80036;stroke-width:1.0;"/><text fill="#000000" font-family="sans-serif" font-size="13" lengthAdjust="spacing" textLength="131" x="71" y="131.9951">SELECT FROM t_view</text><!--MD5=[1074ee772f66a71e76416c045469f633]
link fdw to ogawayama--><path d="M90,491.62 C90,517.65 90,559.94 90,587.98 " fill="none" id="fdw-to-ogawayama" style="stroke:#A80036;stroke-width:1.0;"/><polygon fill="#A80036" points="90,593.05,94,584.05,90,588.05,86,584.05,90,593.05" style="stroke:#A80036;stroke-width:1.0;"/><text fill="#000000" font-family="sans-serif" font-size="13" lengthAdjust="spacing" textLength="135" x="91" y="537.9951">SELECT FROM t_table</text><!--MD5=[6cb46a66036257c88083a8fd565de709]
@startuml select_view
actor user

package PostgreSQL {
  entity t_view
  entity "t_table(ext)" as ext_table
  component "FDW" as fdw
  database pg_catalog

  t_view - -> ext_table : SELECT FROM t_table
  ext_table - -> fdw : Scan the table on OLTP
  t_view -> pg_catalog : Confirm access privileges
  ext_table -up-> pg_catalog :  Confirm access privileges
}

package OLTP as oltp {
  component ogawayama
  database t_table as t_table

  ogawayama -> t_table : Scan
}

user - -> t_view : SELECT FROM t_view
fdw - -> ogawayama : SELECT FROM t_table
@enduml

PlantUML version 1.2021.01(Tue Feb 02 16:55:08 JST 2021)
(GPL source distribution)
Java Runtime: OpenJDK Runtime Environment
JVM: OpenJDK 64-Bit Server VM
Default Encoding: MS932
Language: ja
Country: JP
--></g></svg>