<?xml version="1.0" encoding="UTF-8" standalone="no"?><svg xmlns="http://www.w3.org/2000/svg" xmlns:xlink="http://www.w3.org/1999/xlink" contentScriptType="application/ecmascript" contentStyleType="text/css" height="897px" preserveAspectRatio="none" style="width:685px;height:897px;" version="1.1" viewBox="0 0 685 897" width="685px" zoomAndPan="magnify"><defs><filter height="300%" id="f13craxfd4uisd" width="300%" x="-1" y="-1"><feGaussianBlur result="blurOut" stdDeviation="2.0"/><feColorMatrix in="blurOut" result="blurOut2" type="matrix" values="0 0 0 0 0 0 0 0 0 0 0 0 0 0 0 0 0 0 .4 0"/><feOffset dx="4.0" dy="4.0" in="blurOut2" result="blurOut3"/><feBlend in="SourceGraphic" in2="blurOut3" mode="normal"/></filter></defs><g><text fill="#000000" font-family="sans-serif" font-size="18" lengthAdjust="spacing" textLength="126" x="276.25" y="30.6855">ユーザ認証機能</text><rect fill="#FFFFFF" filter="url(#f13craxfd4uisd)" height="378.5156" style="stroke:#A80036;stroke-width:1.0;" width="10" x="255.5" y="362.0078"/><rect fill="#FFFFFF" filter="url(#f13craxfd4uisd)" height="100.7031" style="stroke:#A80036;stroke-width:1.0;" width="10" x="375.5" y="609.4688"/><rect fill="#FFFFFF" filter="url(#f13craxfd4uisd)" height="25" style="stroke:#A80036;stroke-width:1.0;" width="10" x="380.5" y="647.8203"/><rect fill="#FFFFFF" filter="url(#f13craxfd4uisd)" height="161.4063" style="stroke:#A80036;stroke-width:1.0;" width="10" x="464.5" y="392.3594"/><rect fill="#FFFFFF" filter="url(#f13craxfd4uisd)" height="84.3516" style="stroke:#A80036;stroke-width:1.0;" width="10" x="571.5" y="202.9531"/><rect fill="#FFFFFF" filter="url(#f13craxfd4uisd)" height="25" style="stroke:#A80036;stroke-width:1.0;" width="10" x="576.5" y="241.3047"/><rect fill="#FFFFFF" filter="url(#f13craxfd4uisd)" height="100.7031" style="stroke:#A80036;stroke-width:1.0;" width="10" x="571.5" y="422.7109"/><rect fill="#FFFFFF" filter="url(#f13craxfd4uisd)" height="25" style="stroke:#A80036;stroke-width:1.0;" width="10" x="576.5" y="461.0625"/><rect fill="#FFFFFF" filter="url(#f13craxfd4uisd)" height="225.9453" style="stroke:#000000;stroke-width:2.0;" width="464.5" x="10" y="568.7656"/><rect fill="#FFFFFF" height="46.1875" style="stroke:none;stroke-width:1.0;" width="464.5" x="10" y="748.5234"/><line style="stroke:#A80036;stroke-width:1.0;stroke-dasharray:5.0,5.0;" x1="37" x2="37" y1="126.25" y2="811.7109"/><line style="stroke:#A80036;stroke-width:1.0;stroke-dasharray:5.0,5.0;" x1="260" x2="260" y1="126.25" y2="811.7109"/><line style="stroke:#A80036;stroke-width:1.0;stroke-dasharray:5.0,5.0;" x1="380" x2="380" y1="126.25" y2="811.7109"/><line style="stroke:#A80036;stroke-width:1.0;stroke-dasharray:5.0,5.0;" x1="469" x2="469" y1="126.25" y2="811.7109"/><line style="stroke:#A80036;stroke-width:1.0;stroke-dasharray:5.0,5.0;" x1="576" x2="576" y1="126.25" y2="811.7109"/><text fill="#000000" font-family="sans-serif" font-size="14" lengthAdjust="spacing" textLength="29" x="20" y="123.1738">User</text><ellipse cx="37.5" cy="51.6406" fill="#FEFECE" filter="url(#f13craxfd4uisd)" rx="8" ry="8" style="stroke:#A80036;stroke-width:2.0;"/><path d="M37.5,59.6406 L37.5,86.6406 M24.5,67.6406 L50.5,67.6406 M37.5,86.6406 L24.5,101.6406 M37.5,86.6406 L50.5,101.6406 " fill="none" filter="url(#f13craxfd4uisd)" style="stroke:#A80036;stroke-width:2.0;"/><text fill="#000000" font-family="sans-serif" font-size="14" lengthAdjust="spacing" textLength="29" x="20" y="825.2441">User</text><ellipse cx="37.5" cy="838.3203" fill="#FEFECE" filter="url(#f13craxfd4uisd)" rx="8" ry="8" style="stroke:#A80036;stroke-width:2.0;"/><path d="M37.5,846.3203 L37.5,873.3203 M24.5,854.3203 L50.5,854.3203 M37.5,873.3203 L24.5,888.3203 M37.5,873.3203 L50.5,888.3203 " fill="none" filter="url(#f13craxfd4uisd)" style="stroke:#A80036;stroke-width:2.0;"/><text fill="#000000" font-family="sans-serif" font-size="14" lengthAdjust="spacing" textLength="57" x="229" y="123.1738">OLTP I/F</text><path d="M240,80.6406 L240,104.6406 M240,92.6406 L257,92.6406 " fill="none" filter="url(#f13craxfd4uisd)" style="stroke:#A80036;stroke-width:2.0;"/><ellipse cx="269" cy="92.6406" fill="#FEFECE" filter="url(#f13craxfd4uisd)" rx="12" ry="12" style="stroke:#A80036;stroke-width:2.0;"/><text fill="#000000" font-family="sans-serif" font-size="14" lengthAdjust="spacing" textLength="57" x="229" y="825.2441">OLTP I/F</text><path d="M240,832.3203 L240,856.3203 M240,844.3203 L257,844.3203 " fill="none" filter="url(#f13craxfd4uisd)" style="stroke:#A80036;stroke-width:2.0;"/><ellipse cx="269" cy="844.3203" fill="#FEFECE" filter="url(#f13craxfd4uisd)" rx="12" ry="12" style="stroke:#A80036;stroke-width:2.0;"/><text fill="#000000" font-family="sans-serif" font-size="14" lengthAdjust="spacing" textLength="37" x="359" y="123.1738">OLTP</text><ellipse cx="380.5" cy="92.6406" fill="#FEFECE" filter="url(#f13craxfd4uisd)" rx="12" ry="12" style="stroke:#A80036;stroke-width:2.0;"/><polygon fill="#A80036" points="376.5,80.6406,382.5,75.6406,380.5,80.6406,382.5,85.6406,376.5,80.6406" style="stroke:#A80036;stroke-width:1.0;"/><text fill="#000000" font-family="sans-serif" font-size="14" lengthAdjust="spacing" textLength="37" x="359" y="825.2441">OLTP</text><ellipse cx="380.5" cy="844.3203" fill="#FEFECE" filter="url(#f13craxfd4uisd)" rx="12" ry="12" style="stroke:#A80036;stroke-width:2.0;"/><polygon fill="#A80036" points="376.5,832.3203,382.5,827.3203,380.5,832.3203,382.5,837.3203,376.5,832.3203" style="stroke:#A80036;stroke-width:1.0;"/><text fill="#000000" font-family="sans-serif" font-size="14" lengthAdjust="spacing" textLength="85" x="424" y="123.1738">AuthManager</text><ellipse cx="469.5" cy="92.6406" fill="#FEFECE" filter="url(#f13craxfd4uisd)" rx="12" ry="12" style="stroke:#A80036;stroke-width:2.0;"/><polygon fill="#A80036" points="465.5,80.6406,471.5,75.6406,469.5,80.6406,471.5,85.6406,465.5,80.6406" style="stroke:#A80036;stroke-width:1.0;"/><text fill="#000000" font-family="sans-serif" font-size="14" lengthAdjust="spacing" textLength="85" x="424" y="825.2441">AuthManager</text><ellipse cx="469.5" cy="844.3203" fill="#FEFECE" filter="url(#f13craxfd4uisd)" rx="12" ry="12" style="stroke:#A80036;stroke-width:2.0;"/><polygon fill="#A80036" points="465.5,832.3203,471.5,827.3203,469.5,832.3203,471.5,837.3203,465.5,832.3203" style="stroke:#A80036;stroke-width:1.0;"/><text fill="#000000" font-family="sans-serif" font-size="14" lengthAdjust="spacing" textLength="77" x="535" y="123.1738">PostgreSQL</text><path d="M558.5,72.6406 C558.5,62.6406 576.5,62.6406 576.5,62.6406 C576.5,62.6406 594.5,62.6406 594.5,72.6406 L594.5,98.6406 C594.5,108.6406 576.5,108.6406 576.5,108.6406 C576.5,108.6406 558.5,108.6406 558.5,98.6406 L558.5,72.6406 " fill="#FEFECE" filter="url(#f13craxfd4uisd)" style="stroke:#000000;stroke-width:1.5;"/><path d="M558.5,72.6406 C558.5,82.6406 576.5,82.6406 576.5,82.6406 C576.5,82.6406 594.5,82.6406 594.5,72.6406 " fill="none" style="stroke:#000000;stroke-width:1.5;"/><text fill="#000000" font-family="sans-serif" font-size="14" lengthAdjust="spacing" textLength="77" x="535" y="825.2441">PostgreSQL</text><path d="M558.5,838.3203 C558.5,828.3203 576.5,828.3203 576.5,828.3203 C576.5,828.3203 594.5,828.3203 594.5,838.3203 L594.5,864.3203 C594.5,874.3203 576.5,874.3203 576.5,874.3203 C576.5,874.3203 558.5,874.3203 558.5,864.3203 L558.5,838.3203 " fill="#FEFECE" filter="url(#f13craxfd4uisd)" style="stroke:#000000;stroke-width:1.5;"/><path d="M558.5,838.3203 C558.5,848.3203 576.5,848.3203 576.5,848.3203 C576.5,848.3203 594.5,848.3203 594.5,838.3203 " fill="none" style="stroke:#000000;stroke-width:1.5;"/><rect fill="#FFFFFF" filter="url(#f13craxfd4uisd)" height="378.5156" style="stroke:#A80036;stroke-width:1.0;" width="10" x="255.5" y="362.0078"/><rect fill="#FFFFFF" filter="url(#f13craxfd4uisd)" height="100.7031" style="stroke:#A80036;stroke-width:1.0;" width="10" x="375.5" y="609.4688"/><rect fill="#FFFFFF" filter="url(#f13craxfd4uisd)" height="25" style="stroke:#A80036;stroke-width:1.0;" width="10" x="380.5" y="647.8203"/><rect fill="#FFFFFF" filter="url(#f13craxfd4uisd)" height="161.4063" style="stroke:#A80036;stroke-width:1.0;" width="10" x="464.5" y="392.3594"/><rect fill="#FFFFFF" filter="url(#f13craxfd4uisd)" height="84.3516" style="stroke:#A80036;stroke-width:1.0;" width="10" x="571.5" y="202.9531"/><rect fill="#FFFFFF" filter="url(#f13craxfd4uisd)" height="25" style="stroke:#A80036;stroke-width:1.0;" width="10" x="576.5" y="241.3047"/><rect fill="#FFFFFF" filter="url(#f13craxfd4uisd)" height="100.7031" style="stroke:#A80036;stroke-width:1.0;" width="10" x="571.5" y="422.7109"/><rect fill="#FFFFFF" filter="url(#f13craxfd4uisd)" height="25" style="stroke:#A80036;stroke-width:1.0;" width="10" x="576.5" y="461.0625"/><rect fill="#EEEEEE" filter="url(#f13craxfd4uisd)" height="3" style="stroke:#EEEEEE;stroke-width:1.0;" width="678.5" x="0" y="157.4258"/><line style="stroke:#000000;stroke-width:1.0;" x1="0" x2="678.5" y1="157.4258" y2="157.4258"/><line style="stroke:#000000;stroke-width:1.0;" x1="0" x2="678.5" y1="160.4258" y2="160.4258"/><rect fill="#EEEEEE" filter="url(#f13craxfd4uisd)" height="24.3516" style="stroke:#000000;stroke-width:2.0;" width="83" x="297.75" y="146.25"/><text fill="#000000" font-family="sans-serif" font-size="13" font-weight="bold" lengthAdjust="spacing" textLength="65" x="303.75" y="163.7451">ユーザ登録</text><polygon fill="#A80036" points="559.5,198.9531,569.5,202.9531,559.5,206.9531,563.5,202.9531" style="stroke:#A80036;stroke-width:1.0;"/><line style="stroke:#A80036;stroke-width:1.0;" x1="37.5" x2="565.5" y1="202.9531" y2="202.9531"/><text fill="#000000" font-family="sans-serif" font-size="13" lengthAdjust="spacing" textLength="156" x="44.5" y="198.0967">ユーザ（ロール）作成要求</text><line style="stroke:#A80036;stroke-width:1.0;" x1="581.5" x2="628.5" y1="228.3047" y2="228.3047"/><line style="stroke:#A80036;stroke-width:1.0;" x1="628.5" x2="628.5" y1="228.3047" y2="241.3047"/><line style="stroke:#A80036;stroke-width:1.0;" x1="587.5" x2="628.5" y1="241.3047" y2="241.3047"/><polygon fill="#A80036" points="597.5,237.3047,587.5,241.3047,597.5,245.3047,593.5,241.3047" style="stroke:#A80036;stroke-width:1.0;"/><text fill="#000000" font-family="sans-serif" font-size="13" lengthAdjust="spacing" textLength="65" x="593.5" y="223.4482">ロール作成</text><line style="stroke:#A80036;stroke-width:1.0;stroke-dasharray:2.0,2.0;" x1="586.5" x2="628.5" y1="265.3047" y2="265.3047"/><line style="stroke:#A80036;stroke-width:1.0;stroke-dasharray:2.0,2.0;" x1="628.5" x2="628.5" y1="265.3047" y2="278.3047"/><line style="stroke:#A80036;stroke-width:1.0;stroke-dasharray:2.0,2.0;" x1="581.5" x2="628.5" y1="278.3047" y2="278.3047"/><polygon fill="#A80036" points="591.5,274.3047,581.5,278.3047,591.5,282.3047,587.5,278.3047" style="stroke:#A80036;stroke-width:1.0;"/><polygon fill="#A80036" points="48.5,283.3047,38.5,287.3047,48.5,291.3047,44.5,287.3047" style="stroke:#A80036;stroke-width:1.0;"/><line style="stroke:#A80036;stroke-width:1.0;stroke-dasharray:2.0,2.0;" x1="42.5" x2="575.5" y1="287.3047" y2="287.3047"/><rect fill="#EEEEEE" filter="url(#f13craxfd4uisd)" height="3" style="stroke:#EEEEEE;stroke-width:1.0;" width="678.5" x="0" y="316.4805"/><line style="stroke:#000000;stroke-width:1.0;" x1="0" x2="678.5" y1="316.4805" y2="316.4805"/><line style="stroke:#000000;stroke-width:1.0;" x1="0" x2="678.5" y1="319.4805" y2="319.4805"/><rect fill="#EEEEEE" filter="url(#f13craxfd4uisd)" height="24.3516" style="stroke:#000000;stroke-width:2.0;" width="122" x="278.25" y="305.3047"/><text fill="#000000" font-family="sans-serif" font-size="13" font-weight="bold" lengthAdjust="spacing" textLength="104" x="284.25" y="322.7998">バッチジョブ実行</text><polygon fill="#A80036" points="243.5,358.0078,253.5,362.0078,243.5,366.0078,247.5,362.0078" style="stroke:#A80036;stroke-width:1.0;"/><line style="stroke:#A80036;stroke-width:1.0;" x1="37.5" x2="249.5" y1="362.0078" y2="362.0078"/><text fill="#000000" font-family="sans-serif" font-size="13" lengthAdjust="spacing" textLength="199" x="44.5" y="357.1514">ユーザ認証要求 &amp; ジョブ実行要求</text><polygon fill="#A80036" points="452.5,388.3594,462.5,392.3594,452.5,396.3594,456.5,392.3594" style="stroke:#A80036;stroke-width:1.0;"/><line style="stroke:#A80036;stroke-width:1.0;" x1="265.5" x2="458.5" y1="392.3594" y2="392.3594"/><text fill="#000000" font-family="sans-serif" font-size="13" lengthAdjust="spacing" textLength="91" x="272.5" y="387.5029">ユーザ認証要求</text><polygon fill="#A80036" points="559.5,418.7109,569.5,422.7109,559.5,426.7109,563.5,422.7109" style="stroke:#A80036;stroke-width:1.0;"/><line style="stroke:#A80036;stroke-width:1.0;" x1="474.5" x2="565.5" y1="422.7109" y2="422.7109"/><text fill="#000000" font-family="sans-serif" font-size="13" lengthAdjust="spacing" textLength="78" x="481.5" y="417.8545">ログイン要求</text><line style="stroke:#A80036;stroke-width:1.0;" x1="581.5" x2="628.5" y1="448.0625" y2="448.0625"/><line style="stroke:#A80036;stroke-width:1.0;" x1="628.5" x2="628.5" y1="448.0625" y2="461.0625"/><line style="stroke:#A80036;stroke-width:1.0;" x1="587.5" x2="628.5" y1="461.0625" y2="461.0625"/><polygon fill="#A80036" points="597.5,457.0625,587.5,461.0625,597.5,465.0625,593.5,461.0625" style="stroke:#A80036;stroke-width:1.0;"/><text fill="#000000" font-family="sans-serif" font-size="13" lengthAdjust="spacing" textLength="78" x="593.5" y="443.2061">ログイン処理</text><line style="stroke:#A80036;stroke-width:1.0;stroke-dasharray:2.0,2.0;" x1="586.5" x2="628.5" y1="485.0625" y2="485.0625"/><line style="stroke:#A80036;stroke-width:1.0;stroke-dasharray:2.0,2.0;" x1="628.5" x2="628.5" y1="485.0625" y2="498.0625"/><line style="stroke:#A80036;stroke-width:1.0;stroke-dasharray:2.0,2.0;" x1="581.5" x2="628.5" y1="498.0625" y2="498.0625"/><polygon fill="#A80036" points="591.5,494.0625,581.5,498.0625,591.5,502.0625,587.5,498.0625" style="stroke:#A80036;stroke-width:1.0;"/><polygon fill="#A80036" points="485.5,519.4141,475.5,523.4141,485.5,527.4141,481.5,523.4141" style="stroke:#A80036;stroke-width:1.0;"/><line style="stroke:#A80036;stroke-width:1.0;stroke-dasharray:2.0,2.0;" x1="479.5" x2="575.5" y1="523.4141" y2="523.4141"/><text fill="#000000" font-family="sans-serif" font-size="13" lengthAdjust="spacing" textLength="52" x="491.5" y="518.5576">処理結果</text><polygon fill="#A80036" points="276.5,549.7656,266.5,553.7656,276.5,557.7656,272.5,553.7656" style="stroke:#A80036;stroke-width:1.0;"/><line style="stroke:#A80036;stroke-width:1.0;stroke-dasharray:2.0,2.0;" x1="270.5" x2="468.5" y1="553.7656" y2="553.7656"/><text fill="#000000" font-family="sans-serif" font-size="13" lengthAdjust="spacing" textLength="91" x="282.5" y="548.9092">ユーザ認証結果</text><path d="M10,568.7656 L71,568.7656 L71,576.7656 L61,586.7656 L10,586.7656 L10,568.7656 " fill="#EEEEEE" style="stroke:#000000;stroke-width:1.0;"/><rect fill="none" height="225.9453" style="stroke:#000000;stroke-width:2.0;" width="464.5" x="10" y="568.7656"/><text fill="#000000" font-family="sans-serif" font-size="13" font-weight="bold" lengthAdjust="spacing" textLength="16" x="25" y="583.2607">alt</text><text fill="#000000" font-family="sans-serif" font-size="11" font-weight="bold" lengthAdjust="spacing" textLength="52" x="86" y="582.1846">[認証成功]</text><polygon fill="#A80036" points="363.5,605.4688,373.5,609.4688,363.5,613.4688,367.5,609.4688" style="stroke:#A80036;stroke-width:1.0;"/><line style="stroke:#A80036;stroke-width:1.0;" x1="265.5" x2="369.5" y1="609.4688" y2="609.4688"/><text fill="#000000" font-family="sans-serif" font-size="13" lengthAdjust="spacing" textLength="91" x="272.5" y="604.6123">ジョブ実行依頼</text><line style="stroke:#A80036;stroke-width:1.0;" x1="385.5" x2="432.5" y1="634.8203" y2="634.8203"/><line style="stroke:#A80036;stroke-width:1.0;" x1="432.5" x2="432.5" y1="634.8203" y2="647.8203"/><line style="stroke:#A80036;stroke-width:1.0;" x1="391.5" x2="432.5" y1="647.8203" y2="647.8203"/><polygon fill="#A80036" points="401.5,643.8203,391.5,647.8203,401.5,651.8203,397.5,647.8203" style="stroke:#A80036;stroke-width:1.0;"/><text fill="#000000" font-family="sans-serif" font-size="13" lengthAdjust="spacing" textLength="65" x="397.5" y="629.9639">ジョブ実行</text><line style="stroke:#A80036;stroke-width:1.0;stroke-dasharray:2.0,2.0;" x1="390.5" x2="432.5" y1="671.8203" y2="671.8203"/><line style="stroke:#A80036;stroke-width:1.0;stroke-dasharray:2.0,2.0;" x1="432.5" x2="432.5" y1="671.8203" y2="684.8203"/><line style="stroke:#A80036;stroke-width:1.0;stroke-dasharray:2.0,2.0;" x1="385.5" x2="432.5" y1="684.8203" y2="684.8203"/><polygon fill="#A80036" points="395.5,680.8203,385.5,684.8203,395.5,688.8203,391.5,684.8203" style="stroke:#A80036;stroke-width:1.0;"/><polygon fill="#A80036" points="276.5,706.1719,266.5,710.1719,276.5,714.1719,272.5,710.1719" style="stroke:#A80036;stroke-width:1.0;"/><line style="stroke:#A80036;stroke-width:1.0;stroke-dasharray:2.0,2.0;" x1="270.5" x2="379.5" y1="710.1719" y2="710.1719"/><text fill="#000000" font-family="sans-serif" font-size="13" lengthAdjust="spacing" textLength="52" x="282.5" y="705.3154">実行結果</text><polygon fill="#A80036" points="48.5,736.5234,38.5,740.5234,48.5,744.5234,44.5,740.5234" style="stroke:#A80036;stroke-width:1.0;"/><line style="stroke:#A80036;stroke-width:1.0;stroke-dasharray:2.0,2.0;" x1="42.5" x2="259.5" y1="740.5234" y2="740.5234"/><text fill="#000000" font-family="sans-serif" font-size="13" lengthAdjust="spacing" textLength="91" x="54.5" y="735.667">ジョブ実行結果</text><line style="stroke:#000000;stroke-width:1.0;stroke-dasharray:2.0,2.0;" x1="10" x2="474.5" y1="749.5234" y2="749.5234"/><text fill="#000000" font-family="sans-serif" font-size="11" font-weight="bold" lengthAdjust="spacing" textLength="52" x="15" y="760.9424">[認証失敗]</text><polygon fill="#A80036" points="48.5,782.7109,38.5,786.7109,48.5,790.7109,44.5,786.7109" style="stroke:#A80036;stroke-width:1.0;"/><line style="stroke:#A80036;stroke-width:1.0;stroke-dasharray:2.0,2.0;" x1="42.5" x2="259.5" y1="786.7109" y2="786.7109"/><text fill="#000000" font-family="sans-serif" font-size="13" lengthAdjust="spacing" textLength="91" x="54.5" y="781.8545">ユーザ認証失敗</text><!--MD5=[9c1a8243aa898d82ca7f149e4efc99e6]
@startuml auth_user2
autoactivate on
title ユーザ認証機能

actor User as user
boundary "OLTP I/F" as ogawayama
control OLTP as oltp
control AuthManager as auth_man
database PostgreSQL as pg

== ユーザ登録 ==
user -> pg : ユーザ（ロール）作成要求
  pg -> pg : ロール作成
  return
return

== バッチジョブ実行 ==
user -> ogawayama : ユーザ認証要求 & ジョブ実行要求
  ogawayama -> auth_man : ユーザ認証要求
    auth_man -> pg : ログイン要求
      pg -> pg : ログイン処理
      return
    return 処理結果
  return ユーザ認証結果

alt 認証成功
  ogawayama -> oltp : ジョブ実行依頼
    oltp -> oltp : ジョブ実行
    return
  return 実行結果
return ジョブ実行結果
else 認証失敗
ogawayama - -> user : ユーザ認証失敗
end
@enduml

PlantUML version 1.2021.01(Tue Feb 02 16:55:08 JST 2021)
(GPL source distribution)
Java Runtime: OpenJDK Runtime Environment
JVM: OpenJDK 64-Bit Server VM
Default Encoding: MS932
Language: ja
Country: JP
--></g></svg>