<?xml version="1.0" encoding="UTF-8" standalone="no"?><svg xmlns="http://www.w3.org/2000/svg" xmlns:xlink="http://www.w3.org/1999/xlink" contentScriptType="application/ecmascript" contentStyleType="text/css" height="391px" preserveAspectRatio="none" style="width:936px;height:391px;background:#FFFFFF;" version="1.1" viewBox="0 0 936 391" width="936px" zoomAndPan="magnify"><defs><filter height="300%" id="f19ljxo6oo08b" width="300%" x="-1" y="-1"><feGaussianBlur result="blurOut" stdDeviation="2.0"/><feColorMatrix in="blurOut" result="blurOut2" type="matrix" values="0 0 0 0 0 0 0 0 0 0 0 0 0 0 0 0 0 0 .4 0"/><feOffset dx="4.0" dy="4.0" in="blurOut2" result="blurOut3"/><feBlend in="SourceGraphic" in2="blurOut3" mode="normal"/></filter></defs><g><ellipse cx="461.5" cy="20" fill="#000000" filter="url(#f19ljxo6oo08b)" rx="10" ry="10" style="stroke:none;stroke-width:1.0;"/><polygon fill="#FEFECE" filter="url(#f19ljxo6oo08b)" points="419,50,504,50,516,62,504,74,419,74,407,62,419,50" style="stroke:#A80036;stroke-width:1.5;"/><text fill="#000000" font-family="sans-serif" font-size="11" lengthAdjust="spacing" textLength="85" x="419" y="66.501">Grant or Revoke?</text><text fill="#000000" font-family="sans-serif" font-size="11" lengthAdjust="spacing" textLength="27" x="380" y="59.583">Grant</text><text fill="#000000" font-family="sans-serif" font-size="11" lengthAdjust="spacing" textLength="36" x="516" y="59.583">Revoke</text><rect fill="#FFFFFF" filter="url(#f19ljxo6oo08b)" height="218.8906" style="stroke:#000000;stroke-width:2.0;" width="444" x="11" y="84"/><path d="M103,84 L103,94.6094 L93,104.6094 L11,104.6094 " fill="none" style="stroke:#000000;stroke-width:2.0;"/><text fill="#000000" font-family="sans-serif" font-size="14" lengthAdjust="spacing" textLength="82" x="14" y="99.5332">grant_table()</text><polygon fill="#FEFECE" filter="url(#f19ljxo6oo08b)" points="181,121.6094,270,121.6094,282,133.6094,270,145.6094,181,145.6094,169,133.6094,181,121.6094" style="stroke:#A80036;stroke-width:1.5;"/><text fill="#000000" font-family="sans-serif" font-size="11" lengthAdjust="spacing" textLength="89" x="181" y="138.1104">Table or Columns?</text><text fill="#000000" font-family="sans-serif" font-size="11" lengthAdjust="spacing" textLength="23" x="146" y="131.1924">table</text><text fill="#000000" font-family="sans-serif" font-size="11" lengthAdjust="spacing" textLength="41" x="282" y="131.1924">Columns</text><rect fill="#FEFECE" filter="url(#f19ljxo6oo08b)" height="50.1875" rx="12.5" ry="12.5" style="stroke:#A80036;stroke-width:1.5;" width="189" x="23" y="155.6094"/><text fill="#000000" font-family="sans-serif" font-size="12" lengthAdjust="spacing" textLength="110" x="33" y="178.0664">Update pgAclitem of</text><text fill="#000000" font-family="sans-serif" font-size="12" lengthAdjust="spacing" textLength="163" x="39" y="193.1602">tsurugi_catalog.tsurugi_class</text><rect fill="#FEFECE" filter="url(#f19ljxo6oo08b)" height="50.1875" rx="12.5" ry="12.5" style="stroke:#A80036;stroke-width:1.5;" width="203" x="232" y="155.6094"/><text fill="#000000" font-family="sans-serif" font-size="12" lengthAdjust="spacing" textLength="110" x="242" y="178.0664">Update pgAclitem of</text><text fill="#000000" font-family="sans-serif" font-size="12" lengthAdjust="spacing" textLength="177" x="248" y="193.1602">tsurugi_catalog.tsurugi_attribute</text><polygon fill="#FEFECE" filter="url(#f19ljxo6oo08b)" points="225.5,211.7969,237.5,223.7969,225.5,235.7969,213.5,223.7969,225.5,211.7969" style="stroke:#A80036;stroke-width:1.5;"/><rect fill="#FEFECE" filter="url(#f19ljxo6oo08b)" height="35.0938" rx="12.5" ry="12.5" style="stroke:#A80036;stroke-width:1.5;" width="273" x="89" y="255.7969"/><text fill="#000000" font-family="sans-serif" font-size="12" lengthAdjust="spacing" textLength="253" x="99" y="278.2539">Send "GRANT TABLE" message to ogawayam</text><rect fill="#FFFFFF" filter="url(#f19ljxo6oo08b)" height="218.8906" style="stroke:#000000;stroke-width:2.0;" width="444" x="475" y="84"/><path d="M577,84 L577,94.6094 L567,104.6094 L475,104.6094 " fill="none" style="stroke:#000000;stroke-width:2.0;"/><text fill="#000000" font-family="sans-serif" font-size="14" lengthAdjust="spacing" textLength="92" x="478" y="99.5332">revoke_table()</text><polygon fill="#FEFECE" filter="url(#f19ljxo6oo08b)" points="653,121.6094,742,121.6094,754,133.6094,742,145.6094,653,145.6094,641,133.6094,653,121.6094" style="stroke:#A80036;stroke-width:1.5;"/><text fill="#000000" font-family="sans-serif" font-size="11" lengthAdjust="spacing" textLength="89" x="653" y="138.1104">Table or Columns?</text><text fill="#000000" font-family="sans-serif" font-size="11" lengthAdjust="spacing" textLength="23" x="618" y="131.1924">table</text><text fill="#000000" font-family="sans-serif" font-size="11" lengthAdjust="spacing" textLength="41" x="754" y="131.1924">Columns</text><rect fill="#FEFECE" filter="url(#f19ljxo6oo08b)" height="50.1875" rx="12.5" ry="12.5" style="stroke:#A80036;stroke-width:1.5;" width="189" x="495" y="155.6094"/><text fill="#000000" font-family="sans-serif" font-size="12" lengthAdjust="spacing" textLength="110" x="505" y="178.0664">Update pgAclitem of</text><text fill="#000000" font-family="sans-serif" font-size="12" lengthAdjust="spacing" textLength="163" x="511" y="193.1602">tsurugi_catalog.tsurugi_class</text><rect fill="#FEFECE" filter="url(#f19ljxo6oo08b)" height="50.1875" rx="12.5" ry="12.5" style="stroke:#A80036;stroke-width:1.5;" width="203" x="704" y="155.6094"/><text fill="#000000" font-family="sans-serif" font-size="12" lengthAdjust="spacing" textLength="110" x="714" y="178.0664">Update pgAclitem of</text><text fill="#000000" font-family="sans-serif" font-size="12" lengthAdjust="spacing" textLength="177" x="720" y="193.1602">tsurugi_catalog.tsurugi_attribute</text><polygon fill="#FEFECE" filter="url(#f19ljxo6oo08b)" points="697.5,211.7969,709.5,223.7969,697.5,235.7969,685.5,223.7969,697.5,211.7969" style="stroke:#A80036;stroke-width:1.5;"/><rect fill="#FEFECE" filter="url(#f19ljxo6oo08b)" height="35.0938" rx="12.5" ry="12.5" style="stroke:#A80036;stroke-width:1.5;" width="281" x="557" y="255.7969"/><text fill="#000000" font-family="sans-serif" font-size="12" lengthAdjust="spacing" textLength="261" x="567" y="278.2539">Send "REVOKE TABLE" message to ogawayam</text><polygon fill="#FEFECE" filter="url(#f19ljxo6oo08b)" points="461.5,308.8906,473.5,320.8906,461.5,332.8906,449.5,320.8906,461.5,308.8906" style="stroke:#A80036;stroke-width:1.5;"/><ellipse cx="461.5" cy="363.8906" fill="#FFFFFF" filter="url(#f19ljxo6oo08b)" rx="11" ry="11" style="stroke:#000000;stroke-width:1.0;"/><ellipse cx="461.5" cy="363.8906" fill="#000000" rx="6" ry="6" style="stroke:#7F7F7F;stroke-width:1.0;"/><line style="stroke:#A80036;stroke-width:1.5;" x1="169" x2="117.5" y1="133.6094" y2="133.6094"/><line style="stroke:#A80036;stroke-width:1.5;" x1="117.5" x2="117.5" y1="133.6094" y2="155.6094"/><polygon fill="#A80036" points="113.5,145.6094,117.5,155.6094,121.5,145.6094,117.5,149.6094" style="stroke:#A80036;stroke-width:1.0;"/><line style="stroke:#A80036;stroke-width:1.5;" x1="282" x2="333.5" y1="133.6094" y2="133.6094"/><line style="stroke:#A80036;stroke-width:1.5;" x1="333.5" x2="333.5" y1="133.6094" y2="155.6094"/><polygon fill="#A80036" points="329.5,145.6094,333.5,155.6094,337.5,145.6094,333.5,149.6094" style="stroke:#A80036;stroke-width:1.0;"/><line style="stroke:#A80036;stroke-width:1.5;" x1="117.5" x2="117.5" y1="205.7969" y2="223.7969"/><line style="stroke:#A80036;stroke-width:1.5;" x1="117.5" x2="213.5" y1="223.7969" y2="223.7969"/><polygon fill="#A80036" points="203.5,219.7969,213.5,223.7969,203.5,227.7969,207.5,223.7969" style="stroke:#A80036;stroke-width:1.0;"/><line style="stroke:#A80036;stroke-width:1.5;" x1="333.5" x2="333.5" y1="205.7969" y2="223.7969"/><line style="stroke:#A80036;stroke-width:1.5;" x1="333.5" x2="237.5" y1="223.7969" y2="223.7969"/><polygon fill="#A80036" points="247.5,219.7969,237.5,223.7969,247.5,227.7969,243.5,223.7969" style="stroke:#A80036;stroke-width:1.0;"/><line style="stroke:#A80036;stroke-width:1.5;" x1="225.5" x2="225.5" y1="235.7969" y2="255.7969"/><polygon fill="#A80036" points="221.5,245.7969,225.5,255.7969,229.5,245.7969,225.5,249.7969" style="stroke:#A80036;stroke-width:1.0;"/><line style="stroke:#A80036;stroke-width:1.5;" x1="641" x2="589.5" y1="133.6094" y2="133.6094"/><line style="stroke:#A80036;stroke-width:1.5;" x1="589.5" x2="589.5" y1="133.6094" y2="155.6094"/><polygon fill="#A80036" points="585.5,145.6094,589.5,155.6094,593.5,145.6094,589.5,149.6094" style="stroke:#A80036;stroke-width:1.0;"/><line style="stroke:#A80036;stroke-width:1.5;" x1="754" x2="805.5" y1="133.6094" y2="133.6094"/><line style="stroke:#A80036;stroke-width:1.5;" x1="805.5" x2="805.5" y1="133.6094" y2="155.6094"/><polygon fill="#A80036" points="801.5,145.6094,805.5,155.6094,809.5,145.6094,805.5,149.6094" style="stroke:#A80036;stroke-width:1.0;"/><line style="stroke:#A80036;stroke-width:1.5;" x1="589.5" x2="589.5" y1="205.7969" y2="223.7969"/><line style="stroke:#A80036;stroke-width:1.5;" x1="589.5" x2="685.5" y1="223.7969" y2="223.7969"/><polygon fill="#A80036" points="675.5,219.7969,685.5,223.7969,675.5,227.7969,679.5,223.7969" style="stroke:#A80036;stroke-width:1.0;"/><line style="stroke:#A80036;stroke-width:1.5;" x1="805.5" x2="805.5" y1="205.7969" y2="223.7969"/><line style="stroke:#A80036;stroke-width:1.5;" x1="805.5" x2="709.5" y1="223.7969" y2="223.7969"/><polygon fill="#A80036" points="719.5,219.7969,709.5,223.7969,719.5,227.7969,715.5,223.7969" style="stroke:#A80036;stroke-width:1.0;"/><line style="stroke:#A80036;stroke-width:1.5;" x1="697.5" x2="697.5" y1="235.7969" y2="255.7969"/><polygon fill="#A80036" points="693.5,245.7969,697.5,255.7969,701.5,245.7969,697.5,249.7969" style="stroke:#A80036;stroke-width:1.0;"/><line style="stroke:#A80036;stroke-width:1.5;" x1="407" x2="225.5" y1="62" y2="62"/><line style="stroke:#A80036;stroke-width:1.5;" x1="225.5" x2="225.5" y1="62" y2="121.6094"/><polygon fill="#A80036" points="221.5,111.6094,225.5,121.6094,229.5,111.6094,225.5,115.6094" style="stroke:#A80036;stroke-width:1.0;"/><line style="stroke:#A80036;stroke-width:1.5;" x1="516" x2="697.5" y1="62" y2="62"/><line style="stroke:#A80036;stroke-width:1.5;" x1="697.5" x2="697.5" y1="62" y2="121.6094"/><polygon fill="#A80036" points="693.5,111.6094,697.5,121.6094,701.5,111.6094,697.5,115.6094" style="stroke:#A80036;stroke-width:1.0;"/><line style="stroke:#A80036;stroke-width:1.5;" x1="225.5" x2="225.5" y1="290.8906" y2="320.8906"/><line style="stroke:#A80036;stroke-width:1.5;" x1="225.5" x2="449.5" y1="320.8906" y2="320.8906"/><polygon fill="#A80036" points="439.5,316.8906,449.5,320.8906,439.5,324.8906,443.5,320.8906" style="stroke:#A80036;stroke-width:1.0;"/><line style="stroke:#A80036;stroke-width:1.5;" x1="697.5" x2="697.5" y1="290.8906" y2="320.8906"/><line style="stroke:#A80036;stroke-width:1.5;" x1="697.5" x2="473.5" y1="320.8906" y2="320.8906"/><polygon fill="#A80036" points="483.5,316.8906,473.5,320.8906,483.5,324.8906,479.5,320.8906" style="stroke:#A80036;stroke-width:1.0;"/><line style="stroke:#A80036;stroke-width:1.5;" x1="461.5" x2="461.5" y1="30" y2="50"/><polygon fill="#A80036" points="457.5,40,461.5,50,465.5,40,461.5,44" style="stroke:#A80036;stroke-width:1.0;"/><line style="stroke:#A80036;stroke-width:1.5;" x1="461.5" x2="461.5" y1="332.8906" y2="352.8906"/><polygon fill="#A80036" points="457.5,342.8906,461.5,352.8906,465.5,342.8906,461.5,346.8906" style="stroke:#A80036;stroke-width:1.0;"/><!--MD5=[eea46790ef41444cb5528e07b9ecf887]
@startuml actGrantRevokeTableOrColumns
start
  if (Grant or Revoke?) then (Grant)
    partition grant_table() {
      if(Table or Columns?) then (table)
        :Update pgAclitem of 
          tsurugi_catalog.tsurugi_class;
      else (Columns)
        :Update pgAclitem of 
          tsurugi_catalog.tsurugi_attribute;
      endif
      :Send "GRANT TABLE" message to ogawayam;
    }
  else (Revoke)
    partition revoke_table() {
      if(Table or Columns?) then (table)
        :Update pgAclitem of 
          tsurugi_catalog.tsurugi_class;
      else (Columns)
        :Update pgAclitem of 
          tsurugi_catalog.tsurugi_attribute;
      endif
      :Send "REVOKE TABLE" message to ogawayam;
    }
  endif
stop
@enduml

PlantUML version 1.2021.7(Sun May 23 21:40:07 JST 2021)
(GPL source distribution)
Java Runtime: Java(TM) SE Runtime Environment
JVM: Java HotSpot(TM) Client VM
Default Encoding: MS932
Language: ja
Country: JP
--></g></svg>