<?xml version="1.0" encoding="UTF-8" standalone="no"?><svg xmlns="http://www.w3.org/2000/svg" xmlns:xlink="http://www.w3.org/1999/xlink" contentScriptType="application/ecmascript" contentStyleType="text/css" height="312px" preserveAspectRatio="none" style="width:634px;height:312px;background:#FFFFFF;" version="1.1" viewBox="0 0 634 312" width="634px" zoomAndPan="magnify"><defs><filter height="300%" id="fjenma48ippan" width="300%" x="-1" y="-1"><feGaussianBlur result="blurOut" stdDeviation="2.0"/><feColorMatrix in="blurOut" result="blurOut2" type="matrix" values="0 0 0 0 0 0 0 0 0 0 0 0 0 0 0 0 0 0 .4 0"/><feOffset dx="4.0" dy="4.0" in="blurOut2" result="blurOut3"/><feBlend in="SourceGraphic" in2="blurOut3" mode="normal"/></filter></defs><g><ellipse cx="312" cy="20" fill="#000000" filter="url(#fjenma48ippan)" rx="10" ry="10" style="stroke:none;stroke-width:1.0;"/><polygon fill="#FEFECE" filter="url(#fjenma48ippan)" points="269.5,50,354.5,50,366.5,62,354.5,74,269.5,74,257.5,62,269.5,50" style="stroke:#A80036;stroke-width:1.5;"/><text fill="#000000" font-family="sans-serif" font-size="11" lengthAdjust="spacing" textLength="85" x="269.5" y="66.501">Grant or Revoke?</text><text fill="#000000" font-family="sans-serif" font-size="11" lengthAdjust="spacing" textLength="27" x="230.5" y="59.583">Grant</text><text fill="#000000" font-family="sans-serif" font-size="11" lengthAdjust="spacing" textLength="36" x="366.5" y="59.583">Revoke</text><rect fill="#FFFFFF" filter="url(#fjenma48ippan)" height="139.7969" style="stroke:#000000;stroke-width:2.0;" width="289" x="11" y="84"/><path d="M96,84 L96,94.6094 L86,104.6094 L11,104.6094 " fill="none" style="stroke:#000000;stroke-width:2.0;"/><text fill="#000000" font-family="sans-serif" font-size="14" lengthAdjust="spacing" textLength="75" x="14" y="99.5332">grant_role()</text><rect fill="#FEFECE" filter="url(#fjenma48ippan)" height="35.0938" rx="12.5" ry="12.5" style="stroke:#A80036;stroke-width:1.5;" width="255" x="28" y="121.6094"/><text fill="#000000" font-family="sans-serif" font-size="12" lengthAdjust="spacing" textLength="235" x="38" y="144.0664">Send Grant DDL Command to PostgreSQL</text><rect fill="#FEFECE" filter="url(#fjenma48ippan)" height="35.0938" rx="12.5" ry="12.5" style="stroke:#A80036;stroke-width:1.5;" width="269" x="21" y="176.7031"/><text fill="#000000" font-family="sans-serif" font-size="12" lengthAdjust="spacing" textLength="249" x="31" y="199.1602">Send "GRANT ROLE" message to ogawayam</text><rect fill="#FFFFFF" filter="url(#fjenma48ippan)" height="139.7969" style="stroke:#000000;stroke-width:2.0;" width="297" x="320" y="84"/><path d="M415,84 L415,94.6094 L405,104.6094 L320,104.6094 " fill="none" style="stroke:#000000;stroke-width:2.0;"/><text fill="#000000" font-family="sans-serif" font-size="14" lengthAdjust="spacing" textLength="85" x="323" y="99.5332">revoke_role()</text><rect fill="#FEFECE" filter="url(#fjenma48ippan)" height="35.0938" rx="12.5" ry="12.5" style="stroke:#A80036;stroke-width:1.5;" width="266" x="335.5" y="121.6094"/><text fill="#000000" font-family="sans-serif" font-size="12" lengthAdjust="spacing" textLength="246" x="345.5" y="144.0664">Send Revoke DDL Command to PostgreSQL</text><rect fill="#FEFECE" filter="url(#fjenma48ippan)" height="35.0938" rx="12.5" ry="12.5" style="stroke:#A80036;stroke-width:1.5;" width="277" x="330" y="176.7031"/><text fill="#000000" font-family="sans-serif" font-size="12" lengthAdjust="spacing" textLength="257" x="340" y="199.1602">Send "REVOKE ROLE" message to ogawayam</text><polygon fill="#FEFECE" filter="url(#fjenma48ippan)" points="312,229.7969,324,241.7969,312,253.7969,300,241.7969,312,229.7969" style="stroke:#A80036;stroke-width:1.5;"/><ellipse cx="312" cy="284.7969" fill="#FFFFFF" filter="url(#fjenma48ippan)" rx="11" ry="11" style="stroke:#000000;stroke-width:1.0;"/><ellipse cx="312" cy="284.7969" fill="#000000" rx="6" ry="6" style="stroke:#7F7F7F;stroke-width:1.0;"/><line style="stroke:#A80036;stroke-width:1.5;" x1="155.5" x2="155.5" y1="156.7031" y2="176.7031"/><polygon fill="#A80036" points="151.5,166.7031,155.5,176.7031,159.5,166.7031,155.5,170.7031" style="stroke:#A80036;stroke-width:1.0;"/><line style="stroke:#A80036;stroke-width:1.5;" x1="468.5" x2="468.5" y1="156.7031" y2="176.7031"/><polygon fill="#A80036" points="464.5,166.7031,468.5,176.7031,472.5,166.7031,468.5,170.7031" style="stroke:#A80036;stroke-width:1.0;"/><line style="stroke:#A80036;stroke-width:1.5;" x1="257.5" x2="155.5" y1="62" y2="62"/><line style="stroke:#A80036;stroke-width:1.5;" x1="155.5" x2="155.5" y1="62" y2="121.6094"/><polygon fill="#A80036" points="151.5,111.6094,155.5,121.6094,159.5,111.6094,155.5,115.6094" style="stroke:#A80036;stroke-width:1.0;"/><line style="stroke:#A80036;stroke-width:1.5;" x1="366.5" x2="468.5" y1="62" y2="62"/><line style="stroke:#A80036;stroke-width:1.5;" x1="468.5" x2="468.5" y1="62" y2="121.6094"/><polygon fill="#A80036" points="464.5,111.6094,468.5,121.6094,472.5,111.6094,468.5,115.6094" style="stroke:#A80036;stroke-width:1.0;"/><line style="stroke:#A80036;stroke-width:1.5;" x1="155.5" x2="155.5" y1="211.7969" y2="241.7969"/><line style="stroke:#A80036;stroke-width:1.5;" x1="155.5" x2="300" y1="241.7969" y2="241.7969"/><polygon fill="#A80036" points="290,237.7969,300,241.7969,290,245.7969,294,241.7969" style="stroke:#A80036;stroke-width:1.0;"/><line style="stroke:#A80036;stroke-width:1.5;" x1="468.5" x2="468.5" y1="211.7969" y2="241.7969"/><line style="stroke:#A80036;stroke-width:1.5;" x1="468.5" x2="324" y1="241.7969" y2="241.7969"/><polygon fill="#A80036" points="334,237.7969,324,241.7969,334,245.7969,330,241.7969" style="stroke:#A80036;stroke-width:1.0;"/><line style="stroke:#A80036;stroke-width:1.5;" x1="312" x2="312" y1="30" y2="50"/><polygon fill="#A80036" points="308,40,312,50,316,40,312,44" style="stroke:#A80036;stroke-width:1.0;"/><line style="stroke:#A80036;stroke-width:1.5;" x1="312" x2="312" y1="253.7969" y2="273.7969"/><polygon fill="#A80036" points="308,263.7969,312,273.7969,316,263.7969,312,267.7969" style="stroke:#A80036;stroke-width:1.0;"/><!--MD5=[3caf9b165f23cf8535e3b84f85d7109c]
@startuml actGrantRevokeRole
start
  if (Grant or Revoke?) then (Grant)
    partition grant_role() {
      :Send Grant DDL Command to PostgreSQL;
      :Send "GRANT ROLE" message to ogawayam;
    }
  else (Revoke)
    partition revoke_role() {
      :Send Revoke DDL Command to PostgreSQL;
      :Send "REVOKE ROLE" message to ogawayam;
    }
  endif
stop
@enduml

PlantUML version 1.2021.7(Sun May 23 21:40:07 JST 2021)
(GPL source distribution)
Java Runtime: Java(TM) SE Runtime Environment
JVM: Java HotSpot(TM) Client VM
Default Encoding: MS932
Language: ja
Country: JP
--></g></svg>