<?xml version="1.0" encoding="UTF-8" standalone="no"?><svg xmlns="http://www.w3.org/2000/svg" xmlns:xlink="http://www.w3.org/1999/xlink" contentScriptType="application/ecmascript" contentStyleType="text/css" height="663px" preserveAspectRatio="none" style="width:339px;height:663px;" version="1.1" viewBox="0 0 339 663" width="339px" zoomAndPan="magnify"><defs><filter height="300%" id="f1e4kop6fx83qk" width="300%" x="-1" y="-1"><feGaussianBlur result="blurOut" stdDeviation="2.0"/><feColorMatrix in="blurOut" result="blurOut2" type="matrix" values="0 0 0 0 0 0 0 0 0 0 0 0 0 0 0 0 0 0 .4 0"/><feOffset dx="4.0" dy="4.0" in="blurOut2" result="blurOut3"/><feBlend in="SourceGraphic" in2="blurOut3" mode="normal"/></filter></defs><g><!--MD5=[e9cbb9dd88ded91326c7c57ecf0f8dfc]
cluster PostgreSQL--><polygon fill="#FFFFFF" filter="url(#f1e4kop6fx83qk)" points="16,151.5,105,151.5,112,175.1094,248,175.1094,248,504.5,16,504.5,16,151.5" style="stroke:#000000;stroke-width:1.5;"/><line style="stroke:#000000;stroke-width:1.5;" x1="16" x2="112" y1="175.1094" y2="175.1094"/><text fill="#000000" font-family="sans-serif" font-size="14" font-weight="bold" lengthAdjust="spacing" textLength="83" x="20" y="168.0332">PostgreSQL</text><!--MD5=[46a063155973224c3fa27ddf1e3a8ae1]
cluster OLTP--><polygon fill="#FFFFFF" filter="url(#f1e4kop6fx83qk)" points="62,554.5,104,554.5,111,578.1094,316,578.1094,316,656.5,62,656.5,62,554.5" style="stroke:#000000;stroke-width:1.5;"/><line style="stroke:#000000;stroke-width:1.5;" x1="62" x2="111" y1="578.1094" y2="578.1094"/><text fill="#000000" font-family="sans-serif" font-size="14" font-weight="bold" lengthAdjust="spacing" textLength="36" x="66" y="571.0332">OLTP</text><!--MD5=[a0302e260767c3a151b9bc67457b16f8]
entity pg_catalog--><path d="M35,325.5 C35,315.5 80,315.5 80,315.5 C80,315.5 125,315.5 125,325.5 L125,352.1094 C125,362.1094 80,362.1094 80,362.1094 C80,362.1094 35,362.1094 35,352.1094 L35,325.5 " fill="#FEFECE" filter="url(#f1e4kop6fx83qk)" style="stroke:#000000;stroke-width:1.5;"/><path d="M35,325.5 C35,335.5 80,335.5 80,335.5 C80,335.5 125,335.5 125,325.5 " fill="none" style="stroke:#000000;stroke-width:1.5;"/><text fill="#000000" font-family="sans-serif" font-size="14" lengthAdjust="spacing" textLength="70" x="45" y="354.0332">pg_catalog</text><!--MD5=[b1e3d2dcb3697de9e6328d1cb436cbc4]
entity frontend--><rect fill="#FEFECE" filter="url(#f1e4kop6fx83qk)" height="47.6094" style="stroke:#A80036;stroke-width:1.5;" width="93" x="32.5" y="188.5"/><rect fill="#FEFECE" height="10" style="stroke:#A80036;stroke-width:1.5;" width="15" x="105.5" y="193.5"/><rect fill="#FEFECE" height="2" style="stroke:#A80036;stroke-width:1.5;" width="4" x="103.5" y="195.5"/><rect fill="#FEFECE" height="2" style="stroke:#A80036;stroke-width:1.5;" width="4" x="103.5" y="199.5"/><text fill="#000000" font-family="sans-serif" font-size="14" lengthAdjust="spacing" textLength="53" x="47.5" y="223.0332">frontend</text><!--MD5=[2b2d5ad518bf6746de4ffeb5be0566d4]
entity manager--><rect fill="#FEFECE" filter="url(#f1e4kop6fx83qk)" height="47.6094" style="stroke:#A80036;stroke-width:1.5;" width="96" x="32" y="440.5"/><rect fill="#FEFECE" height="10" style="stroke:#A80036;stroke-width:1.5;" width="15" x="108" y="445.5"/><rect fill="#FEFECE" height="2" style="stroke:#A80036;stroke-width:1.5;" width="4" x="106" y="447.5"/><rect fill="#FEFECE" height="2" style="stroke:#A80036;stroke-width:1.5;" width="4" x="106" y="451.5"/><text fill="#000000" font-family="sans-serif" font-size="14" lengthAdjust="spacing" textLength="56" x="47" y="475.0332">manager</text><!--MD5=[e753409e3a4de609e6aed690c35e546b]
entity role--><ellipse cx="216" cy="203.5" fill="#FEFECE" filter="url(#f1e4kop6fx83qk)" rx="12" ry="12" style="stroke:#A80036;stroke-width:1.5;"/><line style="stroke:#A80036;stroke-width:1.5;" x1="204" x2="228" y1="217.5" y2="217.5"/><text fill="#000000" font-family="sans-serif" font-size="14" lengthAdjust="spacing" textLength="24" x="204" y="234.0332">role</text><!--MD5=[3617a1dcecd131945f386a894a6d65d9]
entity ogawayama--><rect fill="#FEFECE" filter="url(#f1e4kop6fx83qk)" height="47.6094" style="stroke:#A80036;stroke-width:1.5;" width="115" x="78.5" y="591.5"/><rect fill="#FEFECE" height="10" style="stroke:#A80036;stroke-width:1.5;" width="15" x="173.5" y="596.5"/><rect fill="#FEFECE" height="2" style="stroke:#A80036;stroke-width:1.5;" width="4" x="171.5" y="598.5"/><rect fill="#FEFECE" height="2" style="stroke:#A80036;stroke-width:1.5;" width="4" x="171.5" y="602.5"/><text fill="#000000" font-family="sans-serif" font-size="14" lengthAdjust="spacing" textLength="75" x="93.5" y="626.0332">ogawayama</text><!--MD5=[f3ac5da3c0ce251540f867fb4b7eb49a]
entity role_--><ellipse cx="284" cy="606.5" fill="#FEFECE" filter="url(#f1e4kop6fx83qk)" rx="12" ry="12" style="stroke:#A80036;stroke-width:1.5;"/><line style="stroke:#A80036;stroke-width:1.5;" x1="272" x2="296" y1="620.5" y2="620.5"/><text fill="#000000" font-family="sans-serif" font-size="14" lengthAdjust="spacing" textLength="24" x="272" y="637.0332">role</text><!--MD5=[79a439086b036a57b90a01d7b2f8bbd1]
entity admin--><ellipse cx="79" cy="14" fill="#FEFECE" filter="url(#f1e4kop6fx83qk)" rx="8" ry="8" style="stroke:#A80036;stroke-width:1.5;"/><path d="M79,22 L79,49 M66,30 L92,30 M79,49 L66,64 M79,49 L92,64 " fill="none" filter="url(#f1e4kop6fx83qk)" style="stroke:#A80036;stroke-width:1.5;"/><text fill="#000000" font-family="sans-serif" font-size="14" lengthAdjust="spacing" textLength="38" x="60" y="84.0332">admin</text><!--MD5=[7b7568e7b3d3d33b5be17ec55672259a]
link admin to frontend--><path d="M79,87.66 C79,117.28 79,156.65 79,182.97 " fill="none" id="admin-to-frontend" style="stroke:#A80036;stroke-width:1.0;"/><polygon fill="#A80036" points="79,188.06,83,179.06,79,183.06,75,179.06,79,188.06" style="stroke:#A80036;stroke-width:1.0;"/><text fill="#000000" font-family="sans-serif" font-size="13" lengthAdjust="spacing" textLength="91" x="80" y="131.9951">CREATE ROLE</text><!--MD5=[242fd6c38af4d79897e802fc81ea2a1b]
link frontend to role--><path d="M125.76,212.5 C149.09,212.5 176.16,212.5 194.52,212.5 " fill="none" id="frontend-to-role" style="stroke:#A80036;stroke-width:1.0;"/><polygon fill="#A80036" points="199.93,212.5,190.93,208.5,194.93,212.5,190.93,216.5,199.93,212.5" style="stroke:#A80036;stroke-width:1.0;"/><text fill="#000000" font-family="sans-serif" font-size="13" lengthAdjust="spacing" textLength="38" x="143.75" y="205.9951">Create</text><!--MD5=[da2c763e58946f6fd59bbf53369beba3]
link frontend to pg_catalog--><path d="M79.19,236.63 C79.35,257.46 79.6,288.12 79.78,310.27 " fill="none" id="frontend-to-pg_catalog" style="stroke:#A80036;stroke-width:1.0;"/><polygon fill="#A80036" points="79.82,315.42,83.7427,306.386,79.7771,310.4202,75.743,306.4546,79.82,315.42" style="stroke:#A80036;stroke-width:1.0;"/><text fill="#000000" font-family="sans-serif" font-size="13" lengthAdjust="spacing" textLength="54" x="81" y="281.9951">metadata</text><!--MD5=[af99cae13808bda9d00715640c767a61]
link pg_catalog to manager--><path d="M80,362.65 C80,383.02 80,413.04 80,435.03 " fill="none" id="pg_catalog-to-manager" style="stroke:#A80036;stroke-width:1.0;"/><polygon fill="#A80036" points="80,440.15,84,431.15,80,435.15,76,431.15,80,440.15" style="stroke:#A80036;stroke-width:1.0;"/><!--MD5=[725134c58ac48e76f7dc9724fb62703c]
link manager to ogawayama--><path d="M84.76,488.55 C88.07,503.1 92.96,522.16 99,538.5 C105.08,554.95 113.54,572.6 120.84,586.75 " fill="none" id="manager-to-ogawayama" style="stroke:#A80036;stroke-width:1.0;"/><polygon fill="#A80036" points="123.27,591.41,122.6467,581.5809,120.9542,586.9786,115.5565,585.2861,123.27,591.41" style="stroke:#A80036;stroke-width:1.0;"/><text fill="#000000" font-family="sans-serif" font-size="13" lengthAdjust="spacing" textLength="54" x="100" y="534.9951">metadata</text><!--MD5=[58f4cbfc483cc4679caa644f6a99fc87]
link ogawayama to role_--><path d="M193.64,615.5 C217.77,615.5 244.34,615.5 262.38,615.5 " fill="none" id="ogawayama-to-role_" style="stroke:#A80036;stroke-width:1.0;"/><polygon fill="#A80036" points="267.69,615.5,258.69,611.5,262.69,615.5,258.69,619.5,267.69,615.5" style="stroke:#A80036;stroke-width:1.0;"/><text fill="#000000" font-family="sans-serif" font-size="13" lengthAdjust="spacing" textLength="38" x="211.75" y="608.9951">Create</text><!--MD5=[cac2dd5fce51c8c44451d2cde01b0fb9]
link frontend to ogawayama--><path d="M117.35,236.76 C127.8,245.1 137.91,255.46 144,267.5 C198.46,375.14 176.66,419.17 159,538.5 C156.61,554.65 151.51,572.13 146.71,586.25 " fill="none" id="frontend-to-ogawayama" style="stroke:#A80036;stroke-width:1.0;"/><polygon fill="#A80036" points="144.97,591.29,151.6827,584.0831,146.5982,586.5625,144.1188,581.478,144.97,591.29" style="stroke:#A80036;stroke-width:1.0;"/><text fill="#000000" font-family="sans-serif" font-size="13" lengthAdjust="spacing" textLength="152" x="179" y="406.9951">message(CREATE ROLE)</text><!--MD5=[b770da932e45b5d2dd092a32931ce4f6]
@startuml role
actor admin

package PostgreSQL {
  database pg_catalog
  component frontend
  component manager
  entity role
}

package OLTP {
  component ogawayama
  entity "role" as role_
}

admin - -> frontend : CREATE ROLE
frontend -> role : Create
frontend - -> pg_catalog : metadata
pg_catalog - -> manager
manager - -> ogawayama : metadata
ogawayama -> role_ : Create
frontend - -> ogawayama : message(CREATE ROLE)

@enduml

PlantUML version 1.2021.01(Tue Feb 02 16:55:08 JST 2021)
(GPL source distribution)
Java Runtime: OpenJDK Runtime Environment
JVM: OpenJDK 64-Bit Server VM
Default Encoding: MS932
Language: ja
Country: JP
--></g></svg>