<?xml version="1.0" encoding="UTF-8" standalone="no"?><svg xmlns="http://www.w3.org/2000/svg" xmlns:xlink="http://www.w3.org/1999/xlink" contentScriptType="application/ecmascript" contentStyleType="text/css" height="536px" preserveAspectRatio="none" style="width:432px;height:536px;" version="1.1" viewBox="0 0 432 536" width="432px" zoomAndPan="magnify"><defs><filter height="300%" id="f1ical5d1wbfex" width="300%" x="-1" y="-1"><feGaussianBlur result="blurOut" stdDeviation="2.0"/><feColorMatrix in="blurOut" result="blurOut2" type="matrix" values="0 0 0 0 0 0 0 0 0 0 0 0 0 0 0 0 0 0 .4 0"/><feOffset dx="4.0" dy="4.0" in="blurOut2" result="blurOut3"/><feBlend in="SourceGraphic" in2="blurOut3" mode="normal"/></filter></defs><g><!--MD5=[e9cbb9dd88ded91326c7c57ecf0f8dfc]
cluster PostgreSQL--><polygon fill="#FFFFFF" filter="url(#f1ical5d1wbfex)" points="38,151.5,127,151.5,134,175.1094,415,175.1094,415,379.5,38,379.5,38,151.5" style="stroke:#000000;stroke-width:1.5;"/><line style="stroke:#000000;stroke-width:1.5;" x1="38" x2="134" y1="175.1094" y2="175.1094"/><text fill="#000000" font-family="sans-serif" font-size="14" font-weight="bold" lengthAdjust="spacing" textLength="83" x="42" y="168.0332">PostgreSQL</text><!--MD5=[07f0e25f731765bfa93aaa20542a266d]
cluster oltp--><polygon fill="#FFFFFF" filter="url(#f1ical5d1wbfex)" points="16,429.5,58,429.5,65,453.1094,294,453.1094,294,529.5,16,529.5,16,429.5" style="stroke:#000000;stroke-width:1.5;"/><line style="stroke:#000000;stroke-width:1.5;" x1="16" x2="65" y1="453.1094" y2="453.1094"/><text fill="#000000" font-family="sans-serif" font-size="14" font-weight="bold" lengthAdjust="spacing" textLength="36" x="20" y="446.0332">OLTP</text><!--MD5=[f25decad58752b05205e78abebe8791f]
entity fdw--><rect fill="#FEFECE" filter="url(#f1ical5d1wbfex)" height="47.6094" style="stroke:#A80036;stroke-width:1.5;" width="72" x="54" y="315.5"/><rect fill="#FEFECE" height="10" style="stroke:#A80036;stroke-width:1.5;" width="15" x="106" y="320.5"/><rect fill="#FEFECE" height="2" style="stroke:#A80036;stroke-width:1.5;" width="4" x="104" y="322.5"/><rect fill="#FEFECE" height="2" style="stroke:#A80036;stroke-width:1.5;" width="4" x="104" y="326.5"/><text fill="#000000" font-family="sans-serif" font-size="14" lengthAdjust="spacing" textLength="32" x="69" y="350.0332">FDW</text><!--MD5=[0ef533f09b2843476631a5fe543a12d7]
entity ext_table--><ellipse cx="90" cy="203.5" fill="#FEFECE" filter="url(#f1ical5d1wbfex)" rx="12" ry="12" style="stroke:#A80036;stroke-width:1.5;"/><line style="stroke:#A80036;stroke-width:1.5;" x1="78" x2="102" y1="217.5" y2="217.5"/><text fill="#000000" font-family="sans-serif" font-size="14" lengthAdjust="spacing" textLength="71" x="54.5" y="234.0332">t_table(ext)</text><!--MD5=[a0302e260767c3a151b9bc67457b16f8]
entity pg_catalog--><path d="M309,199 C309,189 354,189 354,189 C354,189 399,189 399,199 L399,225.6094 C399,235.6094 354,235.6094 354,235.6094 C354,235.6094 309,235.6094 309,225.6094 L309,199 " fill="#FEFECE" filter="url(#f1ical5d1wbfex)" style="stroke:#000000;stroke-width:1.5;"/><path d="M309,199 C309,209 354,209 354,209 C354,209 399,209 399,199 " fill="none" style="stroke:#000000;stroke-width:1.5;"/><text fill="#000000" font-family="sans-serif" font-size="14" lengthAdjust="spacing" textLength="70" x="319" y="227.5332">pg_catalog</text><!--MD5=[3617a1dcecd131945f386a894a6d65d9]
entity ogawayama--><rect fill="#FEFECE" filter="url(#f1ical5d1wbfex)" height="47.6094" style="stroke:#A80036;stroke-width:1.5;" width="115" x="32.5" y="465.5"/><rect fill="#FEFECE" height="10" style="stroke:#A80036;stroke-width:1.5;" width="15" x="127.5" y="470.5"/><rect fill="#FEFECE" height="2" style="stroke:#A80036;stroke-width:1.5;" width="4" x="125.5" y="472.5"/><rect fill="#FEFECE" height="2" style="stroke:#A80036;stroke-width:1.5;" width="4" x="125.5" y="476.5"/><text fill="#000000" font-family="sans-serif" font-size="14" lengthAdjust="spacing" textLength="75" x="47.5" y="500.0332">ogawayama</text><!--MD5=[f885883bf97652c4492f5888ce4a5716]
entity t_table--><path d="M214.5,476 C214.5,466 246,466 246,466 C246,466 277.5,466 277.5,476 L277.5,502.6094 C277.5,512.6094 246,512.6094 246,512.6094 C246,512.6094 214.5,512.6094 214.5,502.6094 L214.5,476 " fill="#FEFECE" filter="url(#f1ical5d1wbfex)" style="stroke:#000000;stroke-width:1.5;"/><path d="M214.5,476 C214.5,486 246,486 246,486 C246,486 277.5,486 277.5,476 " fill="none" style="stroke:#000000;stroke-width:1.5;"/><text fill="#000000" font-family="sans-serif" font-size="14" lengthAdjust="spacing" textLength="43" x="224.5" y="504.5332">t_table</text><!--MD5=[8fc3522a43f8c7199df5e09e5bb0188e]
entity user--><ellipse cx="90" cy="14" fill="#FEFECE" filter="url(#f1ical5d1wbfex)" rx="8" ry="8" style="stroke:#A80036;stroke-width:1.5;"/><path d="M90,22 L90,49 M77,30 L103,30 M90,49 L77,64 M90,49 L103,64 " fill="none" filter="url(#f1ical5d1wbfex)" style="stroke:#A80036;stroke-width:1.5;"/><text fill="#000000" font-family="sans-serif" font-size="14" lengthAdjust="spacing" textLength="28" x="76" y="84.0332">user</text><!--MD5=[42672c6e43761d495519170ab12babf6]
link user to ext_table--><path d="M90,87.66 C90,116.92 90,155.7 90,182.02 " fill="none" id="user-to-ext_table" style="stroke:#A80036;stroke-width:1.0;"/><polygon fill="#A80036" points="90,187.11,94,178.11,90,182.11,86,178.11,90,187.11" style="stroke:#A80036;stroke-width:1.0;"/><text fill="#000000" font-family="sans-serif" font-size="13" lengthAdjust="spacing" textLength="135" x="91" y="131.9951">SELECT FROM t_table</text><!--MD5=[e25b590661d96e51952dc6bbfc439e98]
link ext_table to pg_catalog--><path d="M125.6,212.5 C171.46,212.5 251.44,212.5 303.55,212.5 " fill="none" id="ext_table-to-pg_catalog" style="stroke:#A80036;stroke-width:1.0;"/><polygon fill="#A80036" points="308.82,212.5,299.82,208.5,303.82,212.5,299.82,216.5,308.82,212.5" style="stroke:#A80036;stroke-width:1.0;"/><text fill="#000000" font-family="sans-serif" font-size="13" lengthAdjust="spacing" textLength="147" x="143.75" y="205.9951">Confirm access privileges</text><!--MD5=[e60bf614408567617223929f1faa631f]
link ext_table to fdw--><path d="M90,237.6 C90,258.36 90,288.33 90,310.22 " fill="none" id="ext_table-to-fdw" style="stroke:#A80036;stroke-width:1.0;"/><polygon fill="#A80036" points="90,315.32,94,306.32,90,310.32,86,306.32,90,315.32" style="stroke:#A80036;stroke-width:1.0;"/><text fill="#000000" font-family="sans-serif" font-size="13" lengthAdjust="spacing" textLength="139" x="91" y="281.9951">Scan the table on OLTP</text><!--MD5=[1074ee772f66a71e76416c045469f633]
link fdw to ogawayama--><path d="M90,363.62 C90,389.65 90,431.94 90,459.98 " fill="none" id="fdw-to-ogawayama" style="stroke:#A80036;stroke-width:1.0;"/><polygon fill="#A80036" points="90,465.05,94,456.05,90,460.05,86,456.05,90,465.05" style="stroke:#A80036;stroke-width:1.0;"/><text fill="#000000" font-family="sans-serif" font-size="13" lengthAdjust="spacing" textLength="135" x="91" y="409.9951">SELECT FROM t_table</text><!--MD5=[0b1ccbb062529ded3928f775cc3541cd]
link ogawayama to t_table--><path d="M147.65,489.5 C168.27,489.5 190.94,489.5 209.31,489.5 " fill="none" id="ogawayama-to-t_table" style="stroke:#A80036;stroke-width:1.0;"/><polygon fill="#A80036" points="214.38,489.5,205.38,485.5,209.38,489.5,205.38,493.5,214.38,489.5" style="stroke:#A80036;stroke-width:1.0;"/><text fill="#000000" font-family="sans-serif" font-size="13" lengthAdjust="spacing" textLength="30" x="166" y="482.9951">Scan</text><!--MD5=[d31ef61a86047c9552944b827bde65fa]
@startuml select_table
actor user

package PostgreSQL {
  component "FDW" as fdw
  entity "t_table(ext)" as ext_table
  database pg_catalog
}

package OLTP as oltp {
  component ogawayama
  database t_table as t_table
}

user - -> ext_table : SELECT FROM t_table
ext_table -> pg_catalog : Confirm access privileges
ext_table - -> fdw : Scan the table on OLTP
fdw - -> ogawayama : SELECT FROM t_table
ogawayama -> t_table : Scan
@enduml

PlantUML version 1.2021.01(Tue Feb 02 16:55:08 JST 2021)
(GPL source distribution)
Java Runtime: OpenJDK Runtime Environment
JVM: OpenJDK 64-Bit Server VM
Default Encoding: MS932
Language: ja
Country: JP
--></g></svg>